<svg width="130.000000" height="34.000000" viewBox="0 0 130 34" fill="none" xmlns="http://www.w3.org/2000/svg" xmlns:xlink="http://www.w3.org/1999/xlink">
	<desc>
			Created with Pixso.
	</desc>
	<defs>
		<clipPath id="clip187_2532">
			<rect id="Capitalist 1" width="130.000000" height="34.000000" fill="white" fill-opacity="0"/>
		</clipPath>
	</defs>
	<rect id="Capitalist 1" width="130.000000" height="34.000000" fill="#FFFFFF" fill-opacity="0"/>
	<g clip-path="url(#clip187_2532)">
		<path id="Vector" d="M23.7188 4.69092L34.0898 4.69092C34.7109 4.69092 35.3047 5.1543 35.2188 5.70398L34.2969 11.6313L34.2891 11.6313L34.2891 11.6367C34.2891 11.6421 34.2891 11.6528 34.2891 11.6583L34.2812 11.7122C34.2344 11.8792 34.0742 12.0032 33.875 12.0032L23.9062 12.0032C23.6953 12.0032 23.5195 11.863 23.4961 11.6744L22.5898 5.70398C22.5078 5.1543 23.0977 4.69092 23.7188 4.69092ZM21.4648 16.1847C23.6641 17.6935 26.2461 18.491 28.9141 18.491C31.5078 18.491 34.0469 17.7581 36.1914 16.3032C37.5234 15.4033 38.1719 16.9659 37.2852 17.5317C34.7539 19.1376 31.9297 20.1237 28.9141 20.1237C25.8984 20.1237 23.1094 19.0945 20.5586 17.5426C20.3086 17.3862 20.1406 17.1277 20.1406 16.8259C20.1406 16.1093 20.8203 15.7428 21.4648 16.1847ZM27.9609 22.9957C28.4258 22.7855 29.4258 22.7748 29.8906 22.985C30.2188 21.8641 31.2578 21.0828 32.4453 21.0828C33.918 21.0828 35.1133 22.2737 35.1133 23.7394C35.1133 25.2051 33.918 26.3959 32.4453 26.3959C30.9766 26.3959 29.7812 25.2051 29.7812 23.7394C29.7812 23.7178 29.7812 23.6908 29.7812 23.6693C29.4844 23.3999 28.3711 23.4268 28.0625 23.6801C28.0625 23.7017 28.0625 23.7178 28.0625 23.7394C28.0625 25.2051 26.8711 26.3959 25.3984 26.3959C23.9297 26.3959 22.7344 25.2051 22.7344 23.7394C22.7344 22.2737 23.9297 21.0828 25.3984 21.0828C26.5938 21.0774 27.6367 21.8695 27.9609 22.9957ZM32.4414 21.6971C31.3164 21.6971 30.4023 22.6078 30.4023 23.7285C30.4023 24.8494 31.3164 25.76 32.4414 25.76C33.5664 25.76 34.4805 24.8494 34.4805 23.7285C34.4844 22.6078 33.5703 21.6971 32.4414 21.6971ZM25.4062 21.6971C24.2812 21.6971 23.3672 22.6078 23.3672 23.7285C23.3672 24.8494 24.2812 25.76 25.4062 25.76C26.5273 25.76 27.4414 24.8494 27.4414 23.7285C27.4414 22.6078 26.5273 21.6971 25.4062 21.6971ZM21.6758 28.7615C21.8047 29.6074 22.1445 30.2971 22.7773 30.7983C24.5625 32.2047 27.3789 31.7413 28.9297 30.1462C30.4727 31.7305 33.2891 32.194 35.0703 30.7875C35.707 30.2864 36.043 29.5967 36.1719 28.7506C35.1211 29.5427 34.2734 29.9792 32.75 29.3704C31.1719 28.7399 30.4414 26.4336 28.9219 28.4111C27.4531 26.4282 26.6641 28.7561 25.1016 29.3811C23.5742 29.9846 22.7188 29.5536 21.6758 28.7615ZM34.0234 13.3557L34.0195 13.3718C34.0156 13.4042 34.0039 13.4365 33.9883 13.4689L34.0039 13.4742L33.6133 15.9906C33.4258 17.2031 29.8008 17.521 28.7773 17.521C27.8008 17.521 24.3281 17.1708 24.1523 15.9906L23.75 13.3395C23.75 13.3287 23.75 13.318 23.75 13.3125C23.75 13.1078 23.9336 12.9408 24.168 12.9408L33.6133 12.9408C33.8398 12.9408 34.0312 13.1078 34.0312 13.3125C34.0312 13.3287 34.0312 13.3448 34.0234 13.3557Z" fill="#8EA652" fill-opacity="1.000000" fill-rule="evenodd"/>
		<path id="Vector" d="M94.0117 10.4084L94.0352 8.38232L96.4922 8.38232L96.4688 10.4084L94.0117 10.4084ZM94.0352 21.5249L94.0117 11.5399L96.4688 11.5399L96.4922 21.5249L94.0352 21.5249ZM71.3711 10.4084L71.3945 8.38232L73.8516 8.38232L73.8281 10.4084L71.3711 10.4084ZM66.9883 19.224C67.2695 18.96 67.5156 18.5613 67.6523 18.0978C67.793 17.6344 67.8672 17.1063 67.8672 16.5082C67.8672 15.9154 67.8008 15.3873 67.6602 14.9347C67.5195 14.4767 67.3203 14.0618 67.0156 13.7654C66.6797 13.4636 66.2773 13.2913 65.875 13.2913C64.4453 13.2913 64.1719 14.6061 64.1719 15.2419L64.1719 17.4619C64.1719 19.6282 65.543 19.682 65.8242 19.682C66.2344 19.6713 66.707 19.488 66.9883 19.224ZM84.5859 19.736C84.7539 19.6713 84.9219 19.5742 85.0742 19.4396C85.2305 19.3102 85.3555 19.1271 85.457 18.9115C85.5547 18.6906 85.6094 18.4265 85.6133 18.1086L85.6133 16.7722C85.2852 16.7668 84.9648 16.7938 84.6562 16.8477C84.3477 16.8961 84.0625 16.9878 83.8164 17.1171C83.5586 17.2518 83.3594 17.4351 83.2148 17.6614C83.0625 17.8984 82.9883 18.0978 82.9805 18.4589C82.9883 18.7714 83.043 19.03 83.1445 19.2294C83.2422 19.4288 83.3867 19.5742 83.5547 19.6713C83.7227 19.7683 83.9102 19.8168 84.1133 19.8114C84.2617 19.8275 84.418 19.7952 84.5859 19.736ZM85.7266 20.6466L85.6953 20.6736C85.4414 21.0723 84.7461 21.7081 83.3945 21.7081C82.8594 21.7028 82.4023 21.5626 82.0156 21.2986C81.6328 21.0292 81.332 20.6681 81.1211 20.2209C80.918 19.7683 80.8086 19.2725 80.8086 18.7283C80.8086 18.0924 80.9297 17.532 81.1562 17.0686C81.3867 16.5944 81.707 16.2064 82.1328 15.8993C82.5508 15.5868 83.0469 15.3551 83.6211 15.2096C84.1914 15.0587 84.8242 14.9833 85.5078 14.9833C85.5117 14.6545 85.4688 14.3582 85.3867 14.0941C85.3008 13.8408 85.1445 13.6307 84.918 13.4799C84.6953 13.329 84.3711 13.2482 83.9609 13.2482C83.5586 13.2482 83.1836 13.3127 82.8203 13.4368C82.4531 13.5607 82.1289 13.7223 81.8477 13.9218L81.4141 12.2028C81.6055 12.0735 81.8477 11.9441 82.1406 11.8094C82.4375 11.6854 82.7695 11.5776 83.1484 11.4915C83.5352 11.4053 83.9453 11.3676 84.3945 11.3622C85.0625 11.3676 85.6094 11.4807 86.0508 11.7017C86.4961 11.9226 86.8398 12.2297 87.0938 12.6177C87.3477 13.0056 87.5312 13.4475 87.6406 13.9379C87.75 14.4336 87.7969 14.9563 87.7969 15.506L87.7969 19.0084C87.7969 19.4503 88.0391 19.9192 88.6797 19.9568L88.6797 21.8051C87.3008 22.15 86.3008 21.7889 85.7266 20.6466ZM56.7266 19.736C56.8945 19.6713 57.0625 19.5742 57.2109 19.4396C57.3672 19.3102 57.4922 19.1271 57.5977 18.9115C57.6953 18.6906 57.7461 18.4265 57.7539 18.1086L57.7539 16.7722C57.4219 16.7668 57.1055 16.7938 56.7969 16.8477C56.4883 16.8961 56.2031 16.9878 55.9531 17.1171C55.6992 17.2518 55.5 17.4351 55.3516 17.6614C55.2031 17.8984 55.125 18.0978 55.1211 18.4589C55.125 18.7714 55.1797 19.03 55.2812 19.2294C55.3789 19.4288 55.5273 19.5742 55.6953 19.6713C55.8594 19.7683 56.0508 19.8168 56.25 19.8114C56.4023 19.8275 56.5586 19.7952 56.7266 19.736ZM71.3945 21.5249L71.3711 11.5399L73.8281 11.5399L73.8516 21.5249L71.3945 21.5249ZM99.3242 21.6327C98.9961 21.5734 98.6953 21.4979 98.4062 21.3956C98.125 21.2932 97.8789 21.1801 97.6602 21.0453L97.957 19.1001C98.1328 19.2079 98.8086 19.5365 99.4844 19.6766C99.7539 19.7467 100.027 19.7791 100.289 19.7844C100.727 19.7791 101.051 19.6874 101.254 19.5096C101.465 19.3264 101.57 19.0839 101.559 18.7714C101.551 18.572 101.508 18.3888 101.418 18.2325C101.332 18.0817 101.191 17.9362 100.984 17.796C100.789 17.6614 100.516 17.5105 100.168 17.3596C99.582 17.101 99.1055 16.8153 98.7422 16.5082C98.3867 16.1903 98.1211 15.8616 97.9531 15.5114C97.7852 15.161 97.6953 14.8 97.6875 14.4282C97.6719 13.8193 97.8008 13.2805 98.0664 12.8009C98.332 12.3267 98.7188 11.9495 99.2227 11.6693C99.7305 11.3945 100.332 11.2544 101.027 11.249C101.508 11.2544 101.953 11.3082 102.359 11.416C102.758 11.5238 103.098 11.6531 103.375 11.8148L103.191 13.7385C102.98 13.6145 102.488 13.4529 102.176 13.3451C101.867 13.2319 101.531 13.1781 101.176 13.1674C100.797 13.1727 100.508 13.2697 100.32 13.4421C100.133 13.62 100.035 13.8463 100.043 14.1265C100.043 14.3097 100.094 14.4713 100.191 14.6115C100.281 14.757 100.438 14.8916 100.648 15.021C100.867 15.1556 101.152 15.3011 101.516 15.4628C102.316 15.8131 102.914 16.2388 103.305 16.7399C103.699 17.2465 103.91 17.8446 103.926 18.5343C103.941 19.1755 103.812 19.736 103.535 20.2101C103.262 20.6843 102.852 21.0562 102.309 21.3202C101.77 21.5787 101.105 21.7135 100.324 21.7242C99.9844 21.7081 99.6445 21.6865 99.3242 21.6327ZM48.5391 21.7189C47.6172 21.7135 46.8086 21.541 46.1016 21.2015C45.3906 20.8621 44.7969 20.3772 44.3125 19.7467C43.832 19.1216 43.4609 18.3727 43.2148 17.5105C42.9609 16.6429 42.8359 15.6837 42.8359 14.6276C42.8398 13.3882 43.0039 12.2998 43.3164 11.3729C43.6289 10.4407 44.0625 9.65942 44.6133 9.03967C45.1641 8.41467 45.7969 7.9458 46.5156 7.6333C47.2344 7.3208 48.0078 7.16455 48.8242 7.16455C49.2617 7.16455 49.6523 7.19678 49.9883 7.25073C50.7969 7.41235 51.6172 7.6333 52.457 8.02124L52.2461 10.042L51.5039 10.0366C50.6875 9.54089 49.8281 9.44385 48.9336 9.44385C48.4258 9.44385 47.9492 9.54626 47.5117 9.74561C47.0742 9.95032 46.6836 10.2576 46.3555 10.6724C46.0234 11.0819 45.7656 11.61 45.582 12.2405C45.3984 12.871 45.3008 13.62 45.2969 14.4713C45.3008 15.5437 45.4531 16.4435 45.7422 17.171C46.0391 17.9038 46.457 18.4535 46.9961 18.8253C47.543 19.2025 48.1797 19.3856 48.9219 19.3911C49.793 19.3749 50.6289 19.2025 51.4297 18.8414L52.1641 18.8253L52.3906 20.8729C51.1211 21.5465 49.5156 21.762 48.5391 21.7189ZM89.6367 19.278L89.6367 6.27539L92.1445 7.46082L92.1445 18.9762C92.1484 19.6497 92.4297 19.8868 92.8984 19.8976L92.8984 21.7028C90.6562 22.0637 89.6367 21.0992 89.6367 19.278ZM106.844 21.568C106.504 21.3956 106.234 21.1747 106.039 20.889C105.844 20.6143 105.703 20.3125 105.617 19.9891C105.527 19.6659 105.473 19.3588 105.449 19.0516C105.43 18.7444 105.418 18.4858 105.422 18.2595L105.418 13.4259L104.289 13.4259L104.289 11.5454L105.418 11.5454L105.422 8.06433L107.883 9.39001L107.883 11.5399L109.574 11.5399L109.574 13.4745L107.883 13.4745L107.883 18.3672C107.883 19.057 107.98 19.3479 108.156 19.6173C108.34 19.8813 108.93 20.0969 109.574 19.9246L109.574 21.6434C109.445 21.7028 109.297 21.7405 109.145 21.7673C108.859 21.8051 108.531 21.8267 108.164 21.8267C107.633 21.8267 107.195 21.7351 106.844 21.568ZM77.2266 21.568C76.8867 21.3956 76.6172 21.1747 76.4219 20.889C76.2266 20.6143 76.0859 20.3125 76 19.9891C75.9062 19.6659 75.8516 19.3588 75.832 19.0516C75.8086 18.7444 75.8008 18.4858 75.8047 18.2595L75.8008 13.4259L74.668 13.4259L74.668 11.5454L75.8008 11.5454L75.8086 8.05896L78.2695 9.38452L78.2695 11.5345L79.9609 11.5345L79.9609 13.4691L78.2695 13.4691L78.2695 18.3618C78.2695 19.0516 78.3672 19.3425 78.5469 19.6119C78.7266 19.876 79.3164 20.0916 79.9609 19.9192L79.9609 21.6381C79.832 21.6974 79.6836 21.7351 79.5352 21.762C79.2461 21.7997 78.918 21.8213 78.5508 21.8213C78.0156 21.8267 77.5781 21.7351 77.2266 21.568ZM57.8711 20.6466L57.8398 20.6736C57.5859 21.0723 56.8867 21.7081 55.5391 21.7081C55.0039 21.7028 54.5469 21.5626 54.1602 21.2986C53.7734 21.0292 53.4766 20.6681 53.2656 20.2209C53.0625 19.7683 52.9531 19.2725 52.9531 18.7283C52.9531 18.0924 53.0703 17.532 53.3008 17.0686C53.5312 16.5944 53.8516 16.2064 54.2773 15.8993C54.6953 15.5868 55.1914 15.3551 55.7656 15.2096C56.3359 15.0587 56.9688 14.9833 57.6484 14.9833C57.6562 14.6545 57.6133 14.3582 57.5312 14.0941C57.4453 13.8408 57.2891 13.6307 57.0625 13.4799C56.8398 13.329 56.5156 13.2482 56.1055 13.2482C55.7031 13.2482 55.3281 13.3127 54.9648 13.4368C54.5977 13.5607 54.2734 13.7223 53.9922 13.9218L53.5586 12.2028C53.7461 12.0735 53.9922 11.9441 54.2812 11.8094C54.582 11.6854 54.9141 11.5776 55.293 11.4915C55.6797 11.4053 56.0898 11.3676 56.5352 11.3622C57.207 11.3676 57.7539 11.4807 58.1953 11.7017C58.6406 11.9226 58.9844 12.2297 59.2383 12.6177C59.5 13.0056 59.6758 13.4475 59.7852 13.9379C59.8945 14.4336 59.9414 14.9563 59.9414 15.506L59.9414 19.0084C59.9414 19.4503 60.1836 19.9192 60.8242 19.9568L60.8242 21.8051C59.4375 22.15 58.4375 21.7889 57.8711 20.6466ZM64.3477 24.6772L61.9297 23.5457L61.9297 14.8C61.9297 14.1642 61.9258 13.5768 61.9102 13.038C61.8984 12.5045 61.9297 11.8472 61.9102 11.3945L63.7734 11.3945C63.8828 11.61 63.9648 11.8363 64.0117 12.0626C64.6758 11.5562 65.4805 11.2975 66.4375 11.3082C67.4258 11.3082 68.0703 11.5615 68.5898 11.9872C69.1094 12.4021 69.5117 12.9895 69.8125 13.7493C70.1094 14.509 70.2578 15.3928 70.2656 16.4166C70.2578 17.3273 70.1523 18.114 69.9414 18.7767C69.7305 19.4396 69.4453 19.9784 69.0938 20.4094C68.7344 20.8352 68.3359 21.1531 67.8984 21.3579C67.4609 21.5626 67 21.665 66.5352 21.665C65.6875 21.6919 64.9453 21.4711 64.3477 20.9752L64.3477 24.6772Z" fill="#8EA652" fill-opacity="1.000000" fill-rule="evenodd"/>
		<path id="Vector" d="M45.4727 27.7646C45.4727 28.2119 45.3633 28.573 45.1484 28.8478C44.9336 29.1226 44.6367 29.2573 44.2617 29.2573C44.0664 29.2573 43.8984 29.225 43.7578 29.1603C43.6133 29.0956 43.4883 28.9987 43.3906 28.8693L43.3906 30.3889L42.8242 30.3889L42.8242 26.0942L43.2578 26.0942L43.3477 26.4929C43.4531 26.342 43.5742 26.2289 43.7266 26.1534C43.8789 26.0726 44.0547 26.0349 44.2578 26.0349C44.6406 26.0349 44.9414 26.1858 45.1523 26.4929C45.3711 26.8002 45.4727 27.2042 45.4727 27.7054L45.4727 27.7646ZM44.9062 27.7054C44.9062 27.3551 44.8359 27.0642 44.6953 26.8379C44.5547 26.6116 44.3477 26.4984 44.0781 26.4984C43.9141 26.4984 43.7773 26.5361 43.6602 26.6116C43.5469 26.687 43.4531 26.7839 43.3828 26.9133L43.3828 28.4113C43.4531 28.5406 43.543 28.6376 43.6602 28.713C43.7773 28.7831 43.9141 28.8208 44.082 28.8208C44.3555 28.8208 44.5547 28.7239 44.6953 28.5298C44.8359 28.3304 44.8984 28.0826 44.8984 27.77L44.8984 27.7054L44.9062 27.7054ZM48.0781 29.198C48.0625 29.1064 48.0469 29.0201 48.0352 28.9502C48.0234 28.8801 48.0195 28.8047 48.0195 28.7346C47.9102 28.8855 47.7734 29.0094 47.6055 29.1118C47.4414 29.2142 47.2578 29.2627 47.0625 29.2627C46.7383 29.2627 46.4883 29.1819 46.3203 29.0148C46.1523 28.8478 46.0664 28.6215 46.0664 28.3304C46.0664 28.0341 46.1875 27.8024 46.4297 27.6354C46.6719 27.4683 46.9961 27.3821 47.4062 27.3821L48.0234 27.3821L48.0234 27.075C48.0234 26.8917 47.9688 26.7516 47.8555 26.6438C47.7422 26.5361 47.5859 26.4822 47.3867 26.4822C47.2031 26.4822 47.0547 26.5306 46.9414 26.6223C46.8281 26.7139 46.7695 26.827 46.7695 26.9564L46.2305 26.9564L46.2227 26.9402C46.2148 26.7139 46.3203 26.5092 46.543 26.3206C46.7695 26.132 47.0625 26.0403 47.418 26.0403C47.7695 26.0403 48.0547 26.132 48.2656 26.3098C48.4844 26.4875 48.5898 26.7462 48.5898 27.0857L48.5898 28.5784C48.5898 28.6915 48.5977 28.7938 48.6094 28.9016C48.6172 29.004 48.6406 29.1064 48.6719 29.2034L48.0781 29.2034L48.0781 29.198ZM47.1367 28.7885C47.3438 28.7885 47.5273 28.7346 47.6953 28.6322C47.8594 28.5244 47.9648 28.4059 48.0195 28.2712L48.0195 27.7646L47.3789 27.7646C47.1523 27.7646 46.9688 27.824 46.8359 27.9371C46.6992 28.0503 46.6289 28.1849 46.6289 28.3412C46.6289 28.4813 46.6719 28.5891 46.7578 28.6699C46.8438 28.7454 46.9688 28.7885 47.1367 28.7885ZM50.3594 28.0503L50.4609 28.4382L50.4766 28.4382L51.2461 26.0942L51.8789 26.0942L50.5703 29.6722C50.4883 29.8823 50.3789 30.0602 50.2305 30.2164C50.082 30.3727 49.8828 30.4481 49.6328 30.4481C49.5898 30.4481 49.5312 30.4427 49.4609 30.432C49.3906 30.4211 49.3359 30.4104 49.3008 30.3997L49.3594 29.9578C49.3477 29.9578 49.3789 29.9578 49.4609 29.9631C49.543 29.9686 49.5898 29.974 49.6133 29.974C49.7305 29.974 49.8359 29.92 49.9102 29.8123C49.9844 29.7045 50.0508 29.5859 50.1055 29.4567L50.2383 29.1333L49.082 26.0942L49.7148 26.0942L50.3594 28.0503ZM52.875 26.0942L52.9141 26.5038C53.0156 26.3583 53.1484 26.2397 53.3047 26.1589C53.4609 26.078 53.6406 26.0349 53.8516 26.0349C54.0547 26.0349 54.2344 26.0835 54.3867 26.1804C54.5352 26.2775 54.6445 26.423 54.7188 26.6116C54.8164 26.4337 54.9453 26.299 55.1094 26.1912C55.2695 26.0889 55.4609 26.0349 55.6719 26.0349C55.9883 26.0349 56.2383 26.1427 56.4219 26.3583C56.6055 26.5739 56.6992 26.9025 56.6992 27.339L56.6992 29.1926L56.1289 29.1926L56.1289 27.3336C56.1289 27.0265 56.0781 26.8109 55.9727 26.687C55.8672 26.5576 55.707 26.4984 55.5039 26.4984C55.3086 26.4984 55.1523 26.563 55.0352 26.6978C54.9141 26.8324 54.8438 26.9995 54.8242 27.2042L54.8242 27.2258L54.8242 29.198L54.2539 29.198L54.2539 27.339C54.2539 27.048 54.1992 26.8379 54.0938 26.7031C53.9844 26.5684 53.8281 26.4984 53.6211 26.4984C53.4492 26.4984 53.3086 26.5361 53.1953 26.6061C53.082 26.6761 53 26.7786 52.9414 26.9025L52.9414 29.198L52.375 29.198L52.375 26.0942L52.875 26.0942ZM58.8125 29.2573C58.3789 29.2573 58.0312 29.1118 57.7812 28.8262C57.5234 28.5406 57.3945 28.1635 57.3945 27.7054L57.3945 27.5814C57.3945 27.1396 57.5234 26.7732 57.7891 26.4768C58.0547 26.1804 58.3633 26.0349 58.7266 26.0349C59.1484 26.0349 59.4609 26.1589 59.6758 26.4121C59.8906 26.6654 60 26.9995 60 27.4198L60 27.77L57.9844 27.77L57.9727 27.7863C57.9805 28.0826 58.0547 28.3304 58.1992 28.519C58.3477 28.713 58.5508 28.8101 58.8125 28.8101C59.0078 28.8101 59.1719 28.7831 59.3203 28.7292C59.4648 28.6753 59.5898 28.5999 59.6914 28.5029L59.9141 28.8693C59.8008 28.9771 59.6562 29.0687 59.4766 29.1442C59.2891 29.225 59.0664 29.2573 58.8125 29.2573ZM58.7266 26.4822C58.5352 26.4822 58.375 26.563 58.2383 26.7247C58.1016 26.8864 58.0234 27.0857 57.9883 27.3282L57.9961 27.3444L59.4336 27.3444L59.4336 27.2689C59.4336 27.048 59.375 26.8594 59.2539 26.7139C59.1289 26.5576 58.957 26.4822 58.7266 26.4822ZM61.1406 26.0942L61.1797 26.5576C61.2812 26.3906 61.4102 26.2666 61.5664 26.175C61.7266 26.0835 61.9023 26.0403 62.1016 26.0403C62.4375 26.0403 62.6992 26.1373 62.8828 26.3313C63.0664 26.5306 63.1562 26.8324 63.1562 27.2419L63.1562 29.198L62.5898 29.198L62.5898 27.2528C62.5898 26.9779 62.5352 26.7839 62.4258 26.6708C62.3203 26.5576 62.1523 26.4984 61.9297 26.4984C61.7695 26.4984 61.6211 26.5361 61.4961 26.6169C61.375 26.6978 61.2695 26.8055 61.1953 26.9402L61.1953 29.2034L60.6289 29.2034L60.6289 26.0996L61.1406 26.0996L61.1406 26.0942ZM64.7305 25.3452L64.7305 26.0942L65.3203 26.0942L65.3203 26.5145L64.7305 26.5145L64.7305 28.4005C64.7305 28.546 64.7578 28.6484 64.8203 28.7076C64.8789 28.767 64.9609 28.7993 65.0664 28.7993C65.0977 28.7993 65.1367 28.7938 65.1719 28.7885C65.2109 28.7831 65.25 28.7723 65.2734 28.7616L65.3516 29.1495C65.3086 29.1819 65.25 29.2142 65.168 29.2357C65.0859 29.2573 65.0039 29.2681 64.918 29.2681C64.6875 29.2681 64.5078 29.198 64.3672 29.0579C64.2305 28.9178 64.1641 28.7023 64.1641 28.4059L64.1641 26.5199L63.6641 26.5199L63.6641 26.0996L64.1641 26.0996L64.1641 25.3506L64.7305 25.3506L64.7305 25.3452ZM68.7031 28.3735C68.7031 28.2496 68.6523 28.1472 68.5625 28.0664C68.4648 27.9856 68.2852 27.9155 68.0195 27.8563C67.6445 27.7754 67.3633 27.6622 67.168 27.5222C66.9766 27.3821 66.8789 27.1881 66.8789 26.9456C66.8789 26.6924 66.9883 26.4768 67.2031 26.299C67.4219 26.1212 67.7031 26.0295 68.043 26.0295C68.4062 26.0295 68.6914 26.1212 68.9062 26.3098C69.125 26.4984 69.2188 26.7192 69.2148 26.9888L69.2109 27.0049L68.668 27.0049C68.668 26.8701 68.6094 26.7462 68.4961 26.6384C68.3828 26.5306 68.2305 26.4768 68.043 26.4768C67.8438 26.4768 67.6914 26.5199 67.5938 26.6116C67.4961 26.6978 67.4492 26.8055 67.4492 26.9294C67.4492 27.0533 67.4922 27.1504 67.5781 27.2205C67.6641 27.2905 67.8438 27.3551 68.1016 27.4091C68.4961 27.4952 68.7891 27.6084 68.9766 27.7539C69.168 27.8994 69.2656 28.0934 69.2656 28.3358C69.2656 28.6107 69.1523 28.8315 68.9297 29.004C68.707 29.1765 68.4141 29.2573 68.0547 29.2573C67.6602 29.2573 67.3438 29.1549 67.1172 28.9556C66.8906 28.7561 66.7812 28.519 66.793 28.255L66.8008 28.2389L67.3398 28.2389C67.3516 28.4382 67.4258 28.5837 67.5625 28.6807C67.7031 28.7723 67.8633 28.8208 68.0547 28.8208C68.2539 28.8208 68.4102 28.7777 68.5273 28.6969C68.6484 28.6161 68.7031 28.5083 68.7031 28.3735ZM70.9297 28.0503L71.0312 28.4382L71.0469 28.4382L71.8164 26.0942L72.4492 26.0942L71.1406 29.6722C71.0586 29.8823 70.9492 30.0602 70.8008 30.2164C70.6523 30.3727 70.4531 30.4481 70.2031 30.4481C70.1602 30.4481 70.1016 30.4427 70.0312 30.432C69.9609 30.4211 69.9062 30.4104 69.8711 30.3997L69.9297 29.9578C69.918 29.9578 69.9492 29.9578 70.0312 29.9631C70.1133 29.9686 70.1602 29.974 70.1836 29.974C70.3008 29.974 70.4062 29.92 70.4805 29.8123C70.5547 29.7045 70.6211 29.5859 70.6758 29.4567L70.8086 29.1333L69.6523 26.0942L70.2852 26.0942L70.9297 28.0503ZM74.75 28.3735C74.75 28.2496 74.7031 28.1472 74.6094 28.0664C74.5117 27.9856 74.332 27.9155 74.0703 27.8563C73.6914 27.7754 73.4102 27.6622 73.2148 27.5222C73.0273 27.3821 72.9297 27.1881 72.9297 26.9456C72.9297 26.6924 73.0352 26.4768 73.2539 26.299C73.4688 26.1212 73.75 26.0295 74.0898 26.0295C74.4531 26.0295 74.7383 26.1212 74.957 26.3098C75.1719 26.4984 75.2695 26.7192 75.2617 26.9888L75.2578 27.0049L74.7188 27.0049C74.7188 26.8701 74.6602 26.7462 74.543 26.6384C74.4297 26.5306 74.2812 26.4768 74.0898 26.4768C73.8906 26.4768 73.7383 26.5199 73.6406 26.6116C73.543 26.6978 73.4961 26.8055 73.4961 26.9294C73.4961 27.0533 73.5391 27.1504 73.625 27.2205C73.7109 27.2905 73.8906 27.3551 74.1484 27.4091C74.543 27.4952 74.8359 27.6084 75.0234 27.7539C75.2148 27.8994 75.3125 28.0934 75.3125 28.3358C75.3125 28.6107 75.1992 28.8315 74.9766 29.004C74.7539 29.1765 74.4648 29.2573 74.1016 29.2573C73.707 29.2573 73.3945 29.1549 73.168 28.9556C72.9375 28.7561 72.832 28.519 72.8438 28.255L72.8477 28.2389L73.3867 28.2389C73.3984 28.4382 73.4727 28.5837 73.6094 28.6807C73.75 28.7723 73.9141 28.8208 74.1016 28.8208C74.3008 28.8208 74.457 28.7777 74.5781 28.6969C74.6914 28.6161 74.75 28.5083 74.75 28.3735ZM76.7656 25.3452L76.7656 26.0942L77.3555 26.0942L77.3555 26.5145L76.7656 26.5145L76.7656 28.4005C76.7656 28.546 76.793 28.6484 76.8594 28.7076C76.918 28.767 77 28.7993 77.1016 28.7993C77.1328 28.7993 77.1719 28.7938 77.2109 28.7885C77.2461 28.7831 77.2852 28.7723 77.3125 28.7616L77.3867 29.1495C77.3438 29.1819 77.2852 29.2142 77.2031 29.2357C77.1211 29.2573 77.043 29.2681 76.957 29.2681C76.7227 29.2681 76.543 29.198 76.4023 29.0579C76.2695 28.9178 76.1992 28.7023 76.1992 28.4059L76.1992 26.5199L75.6992 26.5199L75.6992 26.0996L76.1992 26.0996L76.1992 25.3506L76.7656 25.3506L76.7656 25.3452ZM79.3438 29.2573C78.9102 29.2573 78.5664 29.1118 78.3125 28.8262C78.0586 28.5406 77.9297 28.1635 77.9297 27.7054L77.9297 27.5814C77.9297 27.1396 78.0586 26.7732 78.3242 26.4768C78.5859 26.1804 78.8945 26.0349 79.2578 26.0349C79.6797 26.0349 79.9922 26.1589 80.207 26.4121C80.4258 26.6654 80.5312 26.9995 80.5312 27.4198L80.5312 27.77L78.5156 27.77L78.5078 27.7863C78.5117 28.0826 78.5859 28.3304 78.7344 28.519C78.8789 28.713 79.0859 28.8101 79.3438 28.8101C79.5391 28.8101 79.707 28.7831 79.8516 28.7292C79.9961 28.6753 80.1211 28.5999 80.2266 28.5029L80.4453 28.8693C80.332 28.9771 80.1875 29.0687 80.0078 29.1442C79.8242 29.225 79.6016 29.2573 79.3438 29.2573ZM79.2578 26.4822C79.0664 26.4822 78.9062 26.563 78.7695 26.7247C78.6367 26.8864 78.5547 27.0857 78.5234 27.3282L78.5273 27.3444L79.9648 27.3444L79.9648 27.2689C79.9648 27.048 79.9062 26.8594 79.7891 26.7139C79.668 26.5576 79.4961 26.4822 79.2578 26.4822ZM81.6797 26.0942L81.7148 26.5038C81.8203 26.3583 81.9492 26.2397 82.1055 26.1589C82.2617 26.078 82.4414 26.0349 82.6523 26.0349C82.8555 26.0349 83.0352 26.0835 83.1875 26.1804C83.3398 26.2775 83.4453 26.423 83.5234 26.6116C83.6172 26.4337 83.75 26.299 83.9102 26.1912C84.0742 26.0889 84.2617 26.0349 84.4727 26.0349C84.793 26.0349 85.0391 26.1427 85.2227 26.3583C85.4062 26.5739 85.5 26.9025 85.5 27.339L85.5 29.1926L84.9336 29.1926L84.9336 27.3336C84.9336 27.0265 84.8789 26.8109 84.7773 26.687C84.668 26.5576 84.5117 26.4984 84.3047 26.4984C84.1094 26.4984 83.9531 26.563 83.8359 26.6978C83.7148 26.8324 83.6445 26.9995 83.625 27.2042L83.625 27.2258L83.625 29.198L83.0586 29.198L83.0586 27.339C83.0586 27.048 83.0039 26.8379 82.8945 26.7031C82.7852 26.5684 82.6289 26.4984 82.4258 26.4984C82.25 26.4984 82.1094 26.5361 81.9961 26.6061C81.8828 26.6761 81.8047 26.7786 81.7422 26.9025L81.7422 29.198L81.1758 29.198L81.1758 26.0942L81.6797 26.0942Z" fill="#FFFFFF" fill-opacity="1.000000" fill-rule="nonzero"/>
	</g>
</svg>
