<svg width="43.000000" height="43.000000" viewBox="0 0 43 43" fill="none" xmlns="http://www.w3.org/2000/svg" xmlns:xlink="http://www.w3.org/1999/xlink">
	<desc>
			Created with Pixso.
	</desc>
	<defs>
		<clipPath id="clip187_2550">
			<rect id="vk 1" width="25.000000" height="25.000000" transform="translate(9.000000 9.000000)" fill="white" fill-opacity="0"/>
		</clipPath>
	</defs>
	<rect id="Rectangle 39" rx="5.000000" width="43.000000" height="43.000000" fill="#4B729F" fill-opacity="1.000000"/>
	<rect id="vk 1" width="25.000000" height="25.000000" transform="translate(9.000000 9.000000)" fill="#FFFFFF" fill-opacity="0"/>
	<g clip-path="url(#clip187_2550)">
		<path id="Vector" d="M29.7461 22.5706C29.3398 22.0601 29.457 21.833 29.7461 21.3767C29.75 21.3716 33.0859 16.7611 33.4297 15.1976L33.4336 15.1965C33.6016 14.6267 33.4336 14.208 32.6055 14.208L29.8711 14.208C29.1758 14.208 28.8555 14.5674 28.6836 14.9695C28.6836 14.9695 27.293 18.3007 25.3242 20.4601C24.6875 21.0841 24.3945 21.2841 24.0469 21.2841C23.8789 21.2841 23.6133 21.0841 23.6133 20.5143L23.6133 15.1965C23.6133 14.5132 23.418 14.208 22.8398 14.208L18.543 14.208C18.1055 14.208 17.8477 14.5267 17.8477 14.8236C17.8477 15.4716 18.832 15.6205 18.9336 17.4435L18.9336 21.3987C18.9336 22.2653 18.7773 22.4247 18.4258 22.4247C17.4961 22.4247 15.2422 19.0798 13.9062 15.2517C13.6367 14.509 13.3711 14.2091 12.6719 14.2091L9.9375 14.2091C9.15625 14.2091 9 14.5685 9 14.9705C9 15.6809 9.92969 19.2133 13.3203 23.8799C15.582 27.0653 18.7656 28.7914 21.6602 28.7914C23.4023 28.7914 23.6133 28.408 23.6133 27.7487C23.6133 24.7048 23.457 24.4174 24.3281 24.4174C24.7305 24.4174 25.4297 24.6174 27.0547 26.1538C28.9102 27.9757 29.2148 28.7914 30.2539 28.7914L32.9883 28.7914C33.7695 28.7914 34.1641 28.408 33.9336 27.6517C33.4141 26.0612 29.9023 22.7893 29.7461 22.5706Z" fill="#FFFFFF" fill-opacity="1.000000" fill-rule="nonzero"/>
	</g>
</svg>
