<svg width="21.000000" height="22.000000" viewBox="0 0 21 22" fill="none" xmlns="http://www.w3.org/2000/svg" xmlns:xlink="http://www.w3.org/1999/xlink">
	<desc>
			Created with Pixso.
	</desc>
	<defs>
		<clipPath id="clip187_2716">
			<rect id="australia (2) 1" width="21.000000" height="22.000000" fill="white" fill-opacity="0"/>
		</clipPath>
	</defs>
	<rect id="australia (2) 1" width="21.000000" height="22.000000" fill="#FFFFFF" fill-opacity="0"/>
	<g clip-path="url(#clip187_2716)">
		<path id="Vector" d="M10.5 0C4.69922 0 0 4.92487 0 11C0 17.0751 4.69922 22 10.5 22C16.3008 22 21 17.0751 21 11C20.9922 4.92766 16.2969 0.00669861 10.5 0ZM10.5 21.1876C5.12891 21.1876 0.777344 16.6264 0.777344 11C0.777344 5.37357 5.12891 0.812408 10.5 0.812408C15.8711 0.812408 20.2227 5.37357 20.2227 11C20.2188 16.6237 15.8672 21.1809 10.5 21.1876Z" fill="#FFFFFF" fill-opacity="1.000000" fill-rule="nonzero"/>
		<path id="Vector" d="M12.418 12.4136C12.2188 12.116 11.9766 11.8505 11.7031 11.6255C11.3164 11.2803 11.0508 11.0487 10.8281 9.0096C10.7344 8.15657 10.5586 7.28729 9.94141 7.28729C9.32422 7.28729 8.94922 8.21344 8.67969 9.00146C8.64844 9.06078 8.60938 9.11542 8.5625 9.16396C8.47266 9.04265 8.40234 8.90511 8.35547 8.75775L8.27344 8.55464L8.06641 8.51402C7.92578 8.48834 7.78125 8.4761 7.63672 8.47746C6.9375 8.46365 6.27344 8.79645 5.84766 9.37518C5.72266 9.45485 5.57812 9.49181 5.43359 9.48079C5.37109 9.45413 5.30469 9.44037 5.23828 9.44017C4.84766 9.44017 4.72656 9.81387 4.63672 10.0576C4.48047 10.4638 4.38672 10.6182 4.12891 10.6182C3.52344 10.5932 2.94141 10.8816 2.57812 11.39C2.27734 11.8808 2.23047 12.4957 2.44922 13.031L2.53516 13.2626C2.84766 13.9819 3.01562 14.7599 3.03125 15.5495C3.01172 16.0854 3.41406 16.5345 3.92578 16.5528C3.94531 16.5536 3.96875 16.5536 3.98828 16.5528C4.76562 16.5528 5.77734 15.7973 6.38281 15.0499C6.52734 14.8359 6.75781 14.703 7.00781 14.6883C7.39453 14.7408 7.73828 14.9737 7.94531 15.322C8.16406 15.8176 9.45703 16.7925 10.4883 16.7925C10.7266 16.7953 10.9648 16.7397 11.1797 16.63C11.9453 16.1548 12.4922 15.3749 12.6953 14.469C12.8945 13.7741 12.793 13.0229 12.418 12.4136ZM11.9414 14.2496L11.9375 14.2659C11.7812 14.9384 11.3828 15.5213 10.8242 15.8907C10.7148 15.9445 10.5977 15.9709 10.4766 15.9679C9.76562 15.8733 9.11328 15.5176 8.63281 14.9645C8.30078 14.3373 7.69141 13.9278 7.00781 13.8759C6.52734 13.8881 6.08203 14.1289 5.79297 14.5299C5.18359 15.2814 4.38281 15.7485 3.99219 15.7485C3.89453 15.7485 3.82422 15.7485 3.80859 15.5048C3.78906 14.6332 3.60156 13.7748 3.26172 12.9782L3.17969 12.7467C3.04297 12.4559 3.05859 12.1139 3.21875 11.8368C3.4375 11.5563 3.77734 11.4052 4.125 11.4306C4.71875 11.3999 5.22266 10.9561 5.35156 10.346L5.35156 10.2932C5.69141 10.3042 6.02344 10.2064 6.30859 10.0129L6.36719 9.97231L6.40625 9.91136C6.69531 9.51385 7.15234 9.29277 7.625 9.32237L7.71875 9.32237C7.85547 9.69684 8.17969 9.95924 8.55859 10.0007C9.05469 10.0007 9.33594 9.44423 9.38672 9.33456L9.38672 9.29395C9.50781 8.91693 9.67188 8.55684 9.875 8.22156C9.95703 8.50986 10.0117 8.8067 10.0391 9.10709C10.2812 11.3534 10.6328 11.7677 11.1992 12.2511C11.418 12.4307 11.6094 12.6429 11.7656 12.8807C12.0078 13.2903 12.0703 13.7881 11.9414 14.2496Z" fill="#FFFFFF" fill-opacity="1.000000" fill-rule="nonzero"/>
		<path id="Vector" d="M9.08203 17.0931L9.01562 16.9631L8.875 16.9062C8.67188 16.8327 8.46094 16.7943 8.25 16.7925C7.96094 16.7848 7.67969 16.9006 7.47266 17.1134C7.25 17.3825 7.14453 17.7373 7.17969 18.0923C7.20703 18.8032 7.625 19.055 7.95312 19.055C8.38672 19.0182 8.77344 18.7618 8.99219 18.3685C9.23828 17.9908 9.27344 17.5042 9.08203 17.0931ZM8.33984 17.9339C8.25391 18.0857 8.11328 18.1955 7.94922 18.2386C7.92969 18.1802 7.91797 18.1182 7.91797 18.0558C7.89844 17.9215 7.92578 17.7843 7.99609 17.6699C8.0625 17.6179 8.14844 17.5933 8.23047 17.6008C8.28906 17.5954 8.34766 17.5954 8.40625 17.6008C8.41797 17.7172 8.39062 17.8338 8.33594 17.9339L8.33984 17.9339Z" fill="#FFFFFF" fill-opacity="1.000000" fill-rule="nonzero"/>
		<path id="Vector" d="M12.7305 5.41473C12.543 4.87042 11.8203 4.61858 11.3438 4.50078C11.3125 4.25822 11.2188 4.02917 11.0703 3.83867C10.7227 3.38371 10.1016 3.14406 9.22266 3.13593C8.75391 2.70474 8.16016 2.44406 7.53906 2.39258C7.00781 2.39587 6.51172 2.67226 6.21484 3.13187C5.90625 3.46674 5.8125 3.96007 5.98047 4.3911C6.26953 5.02884 7.19141 5.20351 7.64453 5.25226C7.91797 5.78606 8.43359 6.1398 9.00781 6.19464C9.23438 6.19206 9.45703 6.13214 9.65625 6.01997C10.0195 6.35713 10.7422 6.92987 11.4727 6.92987C11.8555 6.93303 12.2188 6.75912 12.4688 6.45462C12.7422 6.19302 12.8477 5.78549 12.7305 5.41473ZM11.8945 5.92249L11.8945 5.91031C11.793 6.04115 11.6406 6.11604 11.4805 6.1134C10.9336 6.1134 10.2188 5.4716 9.99219 5.22382C9.85547 5.07698 9.63672 5.05956 9.48047 5.1832C9.35156 5.30099 9.19141 5.37097 9.01953 5.38223C8.57031 5.38223 8.24609 4.69576 8.24609 4.6917C8.18359 4.55577 8.05469 4.46666 7.91016 4.46016C7.41406 4.43579 6.78906 4.26111 6.69531 4.05396C6.66016 3.97272 6.71875 3.81429 6.84766 3.64775C7.00391 3.39676 7.26562 3.24399 7.55078 3.24155C8.02734 3.30496 8.47266 3.52705 8.82422 3.87523C8.89453 3.94727 8.99219 3.98662 9.09375 3.98489L9.16797 3.98489C9.80859 3.98489 10.2695 4.123 10.4648 4.3911C10.5547 4.50468 10.5977 4.65102 10.582 4.7973C10.5508 5.01137 10.6875 5.2133 10.8906 5.25632C11.3906 5.32536 11.9414 5.54878 11.9961 5.70314C12.0156 5.71939 12.0078 5.78844 11.8945 5.92249Z" fill="#FFFFFF" fill-opacity="1.000000" fill-rule="nonzero"/>
		<path id="Vector" d="M18.1836 14.2293C17.9727 13.551 17.6328 13.4169 17.3828 13.4169C17.0117 13.4723 16.6875 13.7212 16.5273 14.079C16.2578 14.4251 15.957 14.7446 15.6328 15.0336L14.9375 15.0336C14.7227 15.0325 14.5469 15.2135 14.5469 15.4378C14.5469 15.4521 14.5469 15.4663 14.5508 15.4805L14.6289 16.2685L13.9531 16.9793C13.8789 17.058 13.8359 17.1651 13.8398 17.2759C13.8633 17.8721 14.3438 18.3363 14.9102 18.3126C14.918 18.3123 14.9219 18.312 14.9297 18.3117C15.1289 18.3082 15.3242 18.2754 15.5156 18.2142C15.5586 18.2005 15.6016 18.1785 15.6406 18.1492C16.1445 17.743 18.6328 15.6835 18.1836 14.2293ZM15.2266 17.4587C15.1289 17.4862 15.0312 17.5012 14.9297 17.5033C14.8242 17.5162 14.7188 17.4701 14.6484 17.3815L15.3086 16.6869C15.3906 16.6006 15.4336 16.4797 15.4219 16.3578L15.3672 15.8257L15.7773 15.8257C15.8711 15.8256 15.9648 15.7895 16.0352 15.7242C16.4609 15.3575 16.8477 14.9465 17.1953 14.4974L17.1914 14.4852C17.2383 14.4048 17.2891 14.3299 17.3516 14.2618C17.3906 14.3326 17.4219 14.4076 17.4414 14.4852C17.6445 15.1392 16.2773 16.6259 15.2266 17.4587Z" fill="#FFFFFF" fill-opacity="1.000000" fill-rule="nonzero"/>
	</g>
</svg>
