<svg width="20.000000" height="20.000000" viewBox="0 0 20 20" fill="none" xmlns="http://www.w3.org/2000/svg" xmlns:xlink="http://www.w3.org/1999/xlink">
	<desc>
			Created with Pixso.
	</desc>
	<defs>
		<clipPath id="clip187_5198">
			<rect id="australia (2) 1" width="20.000000" height="20.000000" fill="white" fill-opacity="0"/>
		</clipPath>
	</defs>
	<rect id="australia (2) 1" width="20.000000" height="20.000000" fill="#FFFFFF" fill-opacity="0"/>
	<g clip-path="url(#clip187_5198)">
		<path id="Vector" d="M10 0C4.47656 0 0 4.47714 0 10C0 15.5229 4.47656 20 10 20C15.5234 20 20 15.5229 20 10C19.9922 4.47968 15.5195 0.00610352 10 0ZM10 19.2614C4.88672 19.2614 0.738281 15.1149 0.738281 10C0.738281 4.88507 4.88672 0.738556 10 0.738556C15.1133 0.738556 19.2617 4.88507 19.2617 10C19.2539 15.1125 15.1133 19.2554 10 19.2614Z" fill="#FFFFFF" fill-opacity="1.000000" fill-rule="nonzero"/>
		<path id="Vector" d="M11.8281 11.2851C11.6367 11.0145 11.4062 10.7732 11.1484 10.5687C10.7773 10.2548 10.5234 10.0443 10.3125 8.19055C10.2266 7.41507 10.0547 6.62482 9.46875 6.62482C8.87891 6.62482 8.52344 7.46677 8.26953 8.18317C8.23828 8.23709 8.19922 8.28674 8.15625 8.33087C8.07031 8.22061 8 8.09555 7.95703 7.96161L7.87891 7.77695L7.68359 7.74002C7.54688 7.71667 7.41016 7.70554 7.27344 7.70679C6.60938 7.69424 5.97656 7.99677 5.56641 8.52289C5.44922 8.59531 5.3125 8.62894 5.17578 8.6189C5.11719 8.59467 5.05469 8.58215 4.98828 8.58197C4.62109 8.58197 4.5 8.92172 4.41797 9.14328C4.26953 9.51254 4.17969 9.65289 3.93359 9.65289C3.35547 9.63016 2.80078 9.8924 2.45703 10.3545C2.16797 10.8007 2.125 11.3597 2.33203 11.8464L2.41406 12.0569C2.71094 12.7108 2.87109 13.4181 2.88672 14.1359C2.87109 14.6231 3.25391 15.0314 3.73828 15.048C3.75781 15.0487 3.78125 15.0487 3.80078 15.048C4.53906 15.048 5.5 14.3611 6.07812 13.6817C6.21875 13.4872 6.4375 13.3664 6.67578 13.353C7.04297 13.4008 7.37109 13.6125 7.56641 13.9291C7.77734 14.3796 9.00781 15.2659 9.98828 15.2659C10.2188 15.2685 10.4453 15.2179 10.6484 15.1182C11.3789 14.6862 11.8984 13.9772 12.0938 13.1536C12.2812 12.5219 12.1836 11.839 11.8281 11.2851ZM11.375 12.9542L11.3711 12.969C11.2227 13.5804 10.8398 14.1103 10.3086 14.4461C10.207 14.495 10.0938 14.519 9.97656 14.5162C9.30469 14.4303 8.67969 14.1069 8.22266 13.6041C7.90625 13.0339 7.32422 12.6617 6.67578 12.6145C6.21875 12.6255 5.79297 12.8445 5.51562 13.209C4.9375 13.8922 4.17578 14.3168 3.80469 14.3168C3.71094 14.3168 3.64453 14.3168 3.62891 14.0953C3.60938 13.3029 3.42969 12.5225 3.10938 11.7984L3.02734 11.5879C2.89844 11.3235 2.91406 11.0126 3.06641 10.7607C3.27734 10.5058 3.59766 10.3683 3.92969 10.3914C4.49609 10.3636 4.97656 9.96008 5.09766 9.40546L5.09766 9.35745C5.42188 9.36749 5.73828 9.27853 6.00781 9.10266L6.0625 9.06573L6.10547 9.01035C6.375 8.64896 6.8125 8.44797 7.26172 8.47488L7.35156 8.47488C7.48047 8.81531 7.78906 9.05386 8.15234 9.09158C8.625 9.09158 8.89062 8.58566 8.94141 8.48596L8.94141 8.44904C9.05469 8.10629 9.21094 7.77893 9.40625 7.47415C9.48438 7.73624 9.53516 8.0061 9.55859 8.27917C9.79297 10.3213 10.1289 10.6979 10.668 11.1374C10.875 11.3007 11.0547 11.4935 11.207 11.7097C11.4375 12.0821 11.4961 12.5346 11.375 12.9542Z" fill="#FFFFFF" fill-opacity="1.000000" fill-rule="nonzero"/>
		<path id="Vector" d="M8.65234 15.5392L8.58984 15.421L8.45312 15.3693C8.26172 15.3025 8.05859 15.2675 7.85938 15.2659C7.58203 15.2589 7.31641 15.3642 7.12109 15.5576C6.90625 15.8023 6.80469 16.1248 6.83984 16.4476C6.86328 17.0938 7.26172 17.3228 7.57812 17.3228C7.98828 17.2893 8.35938 17.0562 8.56641 16.6987C8.80078 16.3553 8.83203 15.913 8.65234 15.5392ZM7.94141 16.3036C7.86328 16.4416 7.73047 16.5413 7.57422 16.5805C7.55469 16.5274 7.54297 16.4711 7.54297 16.4143C7.52344 16.2923 7.55078 16.1675 7.61719 16.0635C7.67969 16.0163 7.76172 15.9939 7.83984 16.0008C7.89453 15.9958 7.95312 15.9958 8.00781 16.0008C8.01953 16.1065 7.99219 16.2126 7.9375 16.3036L7.94141 16.3036Z" fill="#FFFFFF" fill-opacity="1.000000" fill-rule="nonzero"/>
		<path id="Vector" d="M12.125 4.92245C11.9453 4.42764 11.2578 4.19867 10.8008 4.09158C10.7734 3.87109 10.6836 3.66287 10.543 3.48969C10.2109 3.07608 9.62109 2.85822 8.78125 2.85083C8.33594 2.45883 7.77344 2.22186 7.17969 2.17505C6.67578 2.17804 6.20312 2.42929 5.91797 2.84714C5.625 3.15155 5.53516 3.60004 5.69531 3.99188C5.97266 4.57166 6.84766 4.73044 7.28125 4.77475C7.54297 5.26004 8.03125 5.58163 8.57812 5.63147C8.79297 5.62912 9.00781 5.57465 9.19531 5.47269C9.54297 5.77917 10.2305 6.29987 10.9258 6.29987C11.2891 6.30273 11.6367 6.14462 11.875 5.8678C12.1367 5.63 12.2344 5.25952 12.125 4.92245ZM11.3281 5.38406L11.3281 5.37299C11.2305 5.49194 11.0859 5.56003 10.9336 5.55762C10.4102 5.55762 9.73047 4.97415 9.51562 4.7489C9.38672 4.61542 9.17969 4.59958 9.03125 4.71198C8.90625 4.81906 8.75391 4.88266 8.58984 4.89291C8.16406 4.89291 7.85156 4.26886 7.85156 4.26517C7.79297 4.14157 7.67188 4.06058 7.53516 4.05466C7.0625 4.0325 6.46875 3.87372 6.375 3.68539C6.33984 3.61154 6.39844 3.46753 6.52344 3.3161C6.66797 3.08795 6.92188 2.94907 7.19141 2.94684C7.64453 3.00449 8.07031 3.20639 8.40234 3.52292C8.47266 3.58841 8.56641 3.62418 8.66016 3.62262L8.73047 3.62262C9.33984 3.62262 9.78125 3.74817 9.96875 3.99188C10.0547 4.09515 10.0938 4.22818 10.0781 4.36118C10.0508 4.55579 10.1758 4.73935 10.3711 4.77844C10.8477 4.84122 11.3711 5.04431 11.4219 5.18466C11.4414 5.19943 11.4336 5.26221 11.3281 5.38406Z" fill="#FFFFFF" fill-opacity="1.000000" fill-rule="nonzero"/>
		<path id="Vector" d="M17.3164 12.9358C17.1172 12.3191 16.793 12.1972 16.5547 12.1972C16.1992 12.2475 15.8906 12.4738 15.7383 12.7991C15.4805 13.1137 15.1953 13.4041 14.8867 13.6669L14.2266 13.6669C14.0195 13.6659 13.8555 13.8304 13.8555 14.0344C13.8555 14.0473 13.8555 14.0602 13.8555 14.0731L13.9297 14.7895L13.2852 15.4358C13.2148 15.5073 13.1758 15.6046 13.1797 15.7053C13.2031 16.2474 13.6602 16.6694 14.1992 16.6478C14.207 16.6476 14.2109 16.6473 14.2188 16.647C14.4062 16.6439 14.5938 16.614 14.7734 16.5583C14.8164 16.5459 14.8594 16.5259 14.8945 16.4993C15.375 16.13 17.7422 14.2578 17.3164 12.9358ZM14.5 15.8715C14.4102 15.8965 14.3125 15.9101 14.2188 15.9121C14.1172 15.9239 14.0156 15.8819 13.9531 15.8013L14.5781 15.1699C14.6602 15.0914 14.6992 14.9815 14.6875 14.8708L14.6328 14.387L15.0273 14.387C15.1172 14.3869 15.2031 14.3541 15.2695 14.2947C15.6758 13.9614 16.043 13.5877 16.375 13.1795L16.3711 13.1684C16.4141 13.0952 16.4648 13.0272 16.5273 12.9653C16.5625 13.0296 16.5898 13.0978 16.6094 13.1684C16.8008 13.7629 15.5039 15.1145 14.5 15.8715Z" fill="#FFFFFF" fill-opacity="1.000000" fill-rule="nonzero"/>
	</g>
</svg>
