<svg width="20.000000" height="20.000000" viewBox="0 0 20 20" fill="none" xmlns="http://www.w3.org/2000/svg" xmlns:xlink="http://www.w3.org/1999/xlink">
	<desc>
			Created with Pixso.
	</desc>
	<defs>
		<clipPath id="clip187_7618">
			<rect id="gear 1" width="20.000000" height="20.000000" fill="white" fill-opacity="0"/>
		</clipPath>
	</defs>
	<rect id="gear 1" width="20.000000" height="20.000000" fill="#FFFFFF" fill-opacity="0"/>
	<g clip-path="url(#clip187_7618)">
		<path id="Vector" d="M18.9219 10C18.9219 9.22929 18.8242 8.46687 18.6289 7.72804L19.7578 6.89754L17.5664 3.10242L16.2812 3.66571C15.1836 2.57437 13.8359 1.79668 12.3477 1.39305L12.1914 0L7.8125 0L7.65625 1.39305C6.16797 1.79668 4.82031 2.57437 3.72266 3.66571L2.4375 3.10242L0.246094 6.89754L1.375 7.72804C1.17969 8.46687 1.08203 9.22929 1.08203 10C1.08203 10.7707 1.17969 11.5331 1.375 12.272L0.246094 13.1024L2.4375 16.8975L3.72266 16.3343C4.82031 17.4256 6.16797 18.2033 7.65625 18.6069L7.8125 20L12.1914 20L12.3477 18.6069C13.8359 18.2033 15.1836 17.4256 16.2812 16.3343L17.5664 16.8975L19.7578 13.1024L18.6289 12.272C18.8242 11.5331 18.9219 10.7707 18.9219 10ZM11.6836 17.5638L11.2734 17.6544L11.1445 18.8281L8.85938 18.8281L8.73047 17.6544L8.32031 17.5638C6.76562 17.2202 5.375 16.4158 4.29297 15.2374L4.01172 14.9289L2.92578 15.4032L1.78516 13.4249L2.73438 12.7259L2.60938 12.3263C2.375 11.576 2.25391 10.7934 2.25391 10C2.25391 9.2066 2.375 8.4239 2.60938 7.67368L2.73438 7.27414L1.78516 6.57515L2.92578 4.59676L4.01172 5.07109L4.29297 4.76257C5.375 3.58421 6.76562 2.77977 8.32031 2.43622L8.73047 2.34558L8.85938 1.17188L11.1445 1.17188L11.2734 2.34558L11.6836 2.43622C13.2344 2.7798 14.6289 3.58426 15.7109 4.76257L15.9922 5.07109L17.0781 4.59676L18.2188 6.57515L17.2695 7.27414L17.3945 7.67368C17.6289 8.42395 17.75 9.20663 17.75 10C17.75 10.7934 17.6289 11.576 17.3945 12.3263L17.2695 12.7259L18.2188 13.4249L17.0781 15.4032L15.9922 14.9289L15.7109 15.2374C14.6289 16.4158 13.2344 17.2202 11.6836 17.5638Z" fill="#FFFFFF" fill-opacity="1.000000" fill-rule="nonzero"/>
		<path id="Vector" d="M7.67578 8.6586L6.83984 7.83868L4.69531 10.0269L6.88281 12.17L7.70312 11.3327L6.35156 10.0096L7.67578 8.6586Z" fill="#FFFFFF" fill-opacity="1.000000" fill-rule="nonzero"/>
		<path id="Vector" d="M12.3281 8.6586L13.6523 10.0096L12.3008 11.3327L13.1211 12.17L15.3086 10.0269L13.1641 7.83868L12.3281 8.6586Z" fill="#FFFFFF" fill-opacity="1.000000" fill-rule="nonzero"/>
		<path id="Vector" d="M8.59766 13.835L10.2656 5.91469L11.4102 6.15611L9.74609 14.0764L8.59766 13.835Z" fill="#FFFFFF" fill-opacity="1.000000" fill-rule="nonzero"/>
	</g>
</svg>
