<svg width="21.000000" height="21.000000" viewBox="0 0 21 21" fill="none" xmlns="http://www.w3.org/2000/svg" xmlns:xlink="http://www.w3.org/1999/xlink">
	<desc>
			Created with Pixso.
	</desc>
	<defs>
		<clipPath id="clip187_2769">
			<rect id="gear 1" width="21.000000" height="21.000000" fill="white" fill-opacity="0"/>
		</clipPath>
	</defs>
	<rect id="gear 1" width="21.000000" height="21.000000" fill="#FFFFFF" fill-opacity="0"/>
	<g clip-path="url(#clip187_2769)">
		<path id="Vector" d="M19.8672 10.5C19.8672 9.69077 19.7617 8.89021 19.5586 8.11446L20.7461 7.24242L18.4453 3.25754L17.0938 3.84898C15.9414 2.70309 14.5273 1.88652 12.9648 1.46269L12.8008 0L8.19922 0L8.03906 1.46269C6.47656 1.88652 5.0625 2.70309 3.91016 3.84898L2.55859 3.25754L0.257812 7.24242L1.44141 8.11446C1.23828 8.89021 1.13672 9.69077 1.13672 10.5C1.13672 11.3092 1.23828 12.1098 1.44141 12.8855L0.257812 13.7575L2.55859 17.7424L3.91016 17.151C5.0625 18.2969 6.47656 19.1135 8.03906 19.5373L8.19922 21L12.8008 21L12.9648 19.5373C14.5273 19.1135 15.9414 18.2969 17.0938 17.151L18.4453 17.7424L20.7461 13.7575L19.5586 12.8855C19.7617 12.1098 19.8672 11.3092 19.8672 10.5ZM12.2695 18.442L11.8359 18.5371L11.6992 19.7695L9.30078 19.7695L9.16406 18.5371L8.73438 18.442C7.10547 18.0812 5.64453 17.2366 4.50781 15.9993L4.21094 15.6754L3.07422 16.1734L1.875 14.0961L2.87109 13.3622L2.73828 12.9426C2.49219 12.1549 2.36719 11.333 2.36719 10.5C2.36719 9.66693 2.49219 8.84511 2.73828 8.05736L2.87109 7.63785L1.875 6.90392L3.07422 4.8266L4.21094 5.32465L4.50781 5.0007C5.64453 3.76343 7.10547 2.91875 8.73438 2.55801L9.16406 2.46286L9.30078 1.23047L11.6992 1.23047L11.8359 2.46286L12.2695 2.55801C13.8984 2.91879 15.3594 3.76347 16.4961 5.0007L16.793 5.32465L17.9297 4.8266L19.1289 6.90392L18.1328 7.63785L18.2617 8.05736C18.5117 8.84514 18.6367 9.66698 18.6367 10.5C18.6367 11.333 18.5117 12.1549 18.2617 12.9426L18.1328 13.3622L19.1289 14.0961L17.9297 16.1734L16.793 15.6754L16.4961 15.9993C15.3594 17.2366 13.8984 18.0812 12.2695 18.442Z" fill="#FFFFFF" fill-opacity="1.000000" fill-rule="nonzero"/>
		<path id="Vector" d="M8.05859 9.09151L7.17969 8.23059L4.92969 10.5282L7.22656 12.7785L8.08984 11.8994L6.66797 10.5101L8.05859 9.09151Z" fill="#FFFFFF" fill-opacity="1.000000" fill-rule="nonzero"/>
		<path id="Vector" d="M12.9414 9.09151L14.332 10.5101L12.9141 11.8994L13.7734 12.7785L16.0742 10.5282L13.8242 8.23059L12.9414 9.09151Z" fill="#FFFFFF" fill-opacity="1.000000" fill-rule="nonzero"/>
		<path id="Vector" d="M9.02734 14.5267L10.7773 6.21042L11.9805 6.4639L10.2305 14.7802L9.02734 14.5267Z" fill="#FFFFFF" fill-opacity="1.000000" fill-rule="nonzero"/>
	</g>
</svg>
