<svg width="20.000000" height="20.000000" viewBox="0 0 20 20" fill="none" xmlns="http://www.w3.org/2000/svg" xmlns:xlink="http://www.w3.org/1999/xlink">
	<desc>
			Created with Pixso.
	</desc>
	<defs>
		<clipPath id="clip187_7584">
			<rect id="gift 1" width="20.000000" height="20.000000" fill="white" fill-opacity="0"/>
		</clipPath>
	</defs>
	<rect id="gift 1" width="20.000000" height="20.000000" fill="#FFFFFF" fill-opacity="0"/>
	<g clip-path="url(#clip187_7584)">
		<path id="Gift" d="M17.2891 5L13.3281 5C13.5898 4.65125 13.75 4.21915 13.75 3.75C13.75 2.60123 12.8125 1.66666 11.6641 1.66666C10.9844 1.66666 10.3789 1.9975 10 2.5054C9.61719 1.9975 9.01562 1.66666 8.33203 1.66666C7.18359 1.66666 6.25 2.60123 6.25 3.75C6.25 4.21915 6.40625 4.65125 6.66797 5L2.70703 5C2.01953 5 1.45703 5.56061 1.45703 6.25L1.45703 7.91666C1.45703 8.45978 1.80469 8.92166 2.28906 9.09373L2.28906 17.0833C2.28906 17.7727 2.85156 18.3333 3.53906 18.3333L16.457 18.3333C17.1445 18.3333 17.707 17.7727 17.707 17.0833L17.707 9.09373C18.1914 8.92166 18.5391 8.45978 18.5391 7.91666L18.5391 6.25C18.5391 5.56061 17.9805 5 17.2891 5ZM8.75 8.33331L8.75 5.83331L11.25 5.83331L11.25 8.33331L8.75 8.33331ZM11.25 9.16666L11.25 17.5L8.75 17.5L8.75 9.16666L11.25 9.16666ZM11.6641 2.5C12.3555 2.5 12.9141 3.06061 12.9141 3.75C12.9141 4.43936 12.3555 5 11.6641 5L10.4141 5L10.4141 3.75C10.4141 3.06061 10.9766 2.5 11.6641 2.5ZM7.08203 3.75C7.08203 3.06061 7.64453 2.5 8.33203 2.5C9.01953 2.5 9.58203 3.06061 9.58203 3.75L9.58203 5L8.33203 5C7.64453 5 7.08203 4.43936 7.08203 3.75ZM2.28906 6.25C2.28906 6.0202 2.47656 5.83331 2.70703 5.83331L7.91406 5.83331L7.91406 8.33331L2.70703 8.33331C2.47656 8.33331 2.28906 8.14645 2.28906 7.91666L2.28906 6.25ZM3.125 17.0833L3.125 9.16666L7.91406 9.16666L7.91406 17.5L3.53906 17.5C3.3125 17.5 3.125 17.3131 3.125 17.0833ZM16.457 17.5L12.082 17.5L12.082 9.16666L16.875 9.16666L16.875 17.0833C16.875 17.3131 16.6875 17.5 16.457 17.5ZM17.707 7.91666C17.707 8.14645 17.5195 8.33331 17.2891 8.33331L12.082 8.33331L12.082 5.83331L17.2891 5.83331C17.5195 5.83331 17.707 6.0202 17.707 6.25L17.707 7.91666Z" fill="#FFFFFF" fill-opacity="1.000000" fill-rule="nonzero"/>
	</g>
</svg>
