<svg width="24.000000" height="24.000000" viewBox="0 0 24 24" fill="none" xmlns="http://www.w3.org/2000/svg" xmlns:xlink="http://www.w3.org/1999/xlink">
	<desc>
			Created with Pixso.
	</desc>
	<defs>
		<clipPath id="clip187_2736">
			<rect id="gift 1" width="24.000000" height="24.000000" fill="white" fill-opacity="0"/>
		</clipPath>
	</defs>
	<rect id="gift 1" width="24.000000" height="24.000000" fill="#FFFFFF" fill-opacity="0"/>
	<g clip-path="url(#clip187_2736)">
		<path id="Gift" d="M20.75 6L15.9961 6C16.3086 5.5815 16.5 5.063 16.5 4.5C16.5 3.12151 15.3789 2 14 2C13.1836 2 12.457 2.397 12 3.0065C11.543 2.397 10.8164 2 10 2C8.62109 2 7.5 3.12151 7.5 4.5C7.5 5.063 7.69141 5.5815 8.00391 6L3.25 6C2.42188 6 1.75 6.67274 1.75 7.5L1.75 9.5C1.75 10.1517 2.16797 10.706 2.75 10.9125L2.75 20.5C2.75 21.3273 3.42188 22 4.25 22L19.75 22C20.5781 22 21.25 21.3273 21.25 20.5L21.25 10.9125C21.832 10.706 22.25 10.1517 22.25 9.5L22.25 7.5C22.25 6.67274 21.5781 6 20.75 6ZM10.5 10L10.5 7L13.5 7L13.5 10L10.5 10ZM13.5 11L13.5 21L10.5 21L10.5 11L13.5 11ZM14 3C14.8281 3 15.5 3.67274 15.5 4.5C15.5 5.32726 14.8281 6 14 6L12.5 6L12.5 4.5C12.5 3.67274 13.1719 3 14 3ZM8.5 4.5C8.5 3.67274 9.17188 3 10 3C10.8281 3 11.5 3.67274 11.5 4.5L11.5 6L10 6C9.17188 6 8.5 5.32726 8.5 4.5ZM2.75 7.5C2.75 7.22424 2.97266 7 3.25 7L9.5 7L9.5 10L3.25 10C2.97266 10 2.75 9.77576 2.75 9.5L2.75 7.5ZM3.75 20.5L3.75 11L9.5 11L9.5 21L4.25 21C3.97266 21 3.75 20.7757 3.75 20.5ZM19.75 21L14.5 21L14.5 11L20.25 11L20.25 20.5C20.25 20.7757 20.0273 21 19.75 21ZM21.25 9.5C21.25 9.77576 21.0273 10 20.75 10L14.5 10L14.5 7L20.75 7C21.0273 7 21.25 7.22424 21.25 7.5L21.25 9.5Z" fill="#FFFFFF" fill-opacity="1.000000" fill-rule="nonzero"/>
	</g>
</svg>
