<svg width="21.000000" height="21.000000" viewBox="0 0 21 21" fill="none" xmlns="http://www.w3.org/2000/svg" xmlns:xlink="http://www.w3.org/1999/xlink">
	<desc>
			Created with Pixso.
	</desc>
	<defs>
		<clipPath id="clip187_2742">
			<rect id="magnifying-glass (10) 1" width="21.000000" height="21.000000" fill="white" fill-opacity="0"/>
		</clipPath>
	</defs>
	<rect id="magnifying-glass (10) 1" width="21.000000" height="21.000000" fill="#FFFFFF" fill-opacity="0"/>
	<g clip-path="url(#clip187_2742)">
		<path id="Vector" d="M17.9375 4.375C16.7305 4.375 15.75 3.39412 15.75 2.1875C15.75 0.980881 16.7305 0 17.9375 0C19.1445 0 20.125 0.980881 20.125 2.1875C20.125 3.39412 19.1445 4.375 17.9375 4.375ZM17.9375 0.875C17.2148 0.875 16.625 1.46388 16.625 2.1875C16.625 2.91113 17.2148 3.5 17.9375 3.5C18.6602 3.5 19.25 2.91113 19.25 2.1875C19.25 1.46388 18.6602 0.875 17.9375 0.875Z" fill="#FFFFFF" fill-opacity="1.000000" fill-rule="nonzero"/>
		<path id="Vector" d="M20.5625 5.25002C20.4492 5.25002 20.3398 5.20714 20.2539 5.12227L18.9414 3.80977C18.7695 3.63914 18.7695 3.36177 18.9414 3.19115C19.1094 3.02051 19.3867 3.02051 19.5586 3.19115L20.8711 4.50365C21.043 4.67427 21.043 4.95164 20.8711 5.12227C20.7852 5.20714 20.6758 5.25002 20.5625 5.25002Z" fill="#FFFFFF" fill-opacity="1.000000" fill-rule="nonzero"/>
		<path id="Vector" d="M12.6875 5.25L1.3125 5.25C0.589844 5.25 0 4.66113 0 3.9375L0 1.3125C0 0.588882 0.589844 0 1.3125 0L12.6875 0C13.4102 0 14 0.588882 14 1.3125L14 3.9375C14 4.66113 13.4102 5.25 12.6875 5.25ZM1.3125 0.875C1.07031 0.875 0.875 1.07187 0.875 1.3125L0.875 3.9375C0.875 4.17813 1.07031 4.375 1.3125 4.375L12.6875 4.375C12.9297 4.375 13.125 4.17813 13.125 3.9375L13.125 1.3125C13.125 1.07187 12.9297 0.875 12.6875 0.875L1.3125 0.875Z" fill="#FFFFFF" fill-opacity="1.000000" fill-rule="nonzero"/>
		<path id="Vector" d="M2.625 21C1.17969 21 0 19.8223 0 18.375C0 16.9277 1.17969 15.75 2.625 15.75C4.07031 15.75 5.25 16.9277 5.25 18.375C5.25 19.8223 4.07031 21 2.625 21ZM2.625 16.625C1.66016 16.625 0.875 17.4099 0.875 18.375C0.875 19.3401 1.66016 20.125 2.625 20.125C3.58984 20.125 4.375 19.3401 4.375 18.375C4.375 17.4099 3.58984 16.625 2.625 16.625Z" fill="#FFFFFF" fill-opacity="1.000000" fill-rule="nonzero"/>
		<path id="Vector" d="M4.8125 11.375L0.4375 11.375C0.195312 11.375 0 11.179 0 10.9375C0 10.696 0.195312 10.5 0.4375 10.5L4.8125 10.5C5.05469 10.5 5.25 10.696 5.25 10.9375C5.25 11.179 5.05469 11.375 4.8125 11.375Z" fill="#FFFFFF" fill-opacity="1.000000" fill-rule="nonzero"/>
		<path id="Vector" d="M4.8125 14L0.4375 14C0.195312 14 0 13.804 0 13.5625C0 13.321 0.195312 13.125 0.4375 13.125L4.8125 13.125C5.05469 13.125 5.25 13.321 5.25 13.5625C5.25 13.804 5.05469 14 4.8125 14Z" fill="#FFFFFF" fill-opacity="1.000000" fill-rule="nonzero"/>
		<path id="Vector" d="M4.8125 8.75L0.4375 8.75C0.195312 8.75 0 8.554 0 8.3125C0 8.071 0.195312 7.875 0.4375 7.875L4.8125 7.875C5.05469 7.875 5.25 8.071 5.25 8.3125C5.25 8.554 5.05469 8.75 4.8125 8.75Z" fill="#FFFFFF" fill-opacity="1.000000" fill-rule="nonzero"/>
		<path id="Vector" d="M19.6875 21L8.3125 21C7.58984 21 7 20.4111 7 19.6875L7 8.3125C7 7.58888 7.58984 7 8.3125 7L19.6875 7C20.4102 7 21 7.58888 21 8.3125L21 19.6875C21 20.4111 20.4102 21 19.6875 21ZM8.3125 7.875C8.07031 7.875 7.875 8.07187 7.875 8.3125L7.875 19.6875C7.875 19.9281 8.07031 20.125 8.3125 20.125L19.6875 20.125C19.9297 20.125 20.125 19.9281 20.125 19.6875L20.125 8.3125C20.125 8.07187 19.9297 7.875 19.6875 7.875L8.3125 7.875Z" fill="#FFFFFF" fill-opacity="1.000000" fill-rule="nonzero"/>
		<path id="Vector" d="M14 13.125C13.2773 13.125 12.6875 12.5361 12.6875 11.8125C12.6875 11.0889 13.2773 10.5 14 10.5C14.7227 10.5 15.3125 11.0889 15.3125 11.8125C15.3125 12.5361 14.7227 13.125 14 13.125ZM14 11.375C13.7578 11.375 13.5625 11.5719 13.5625 11.8125C13.5625 12.0531 13.7578 12.25 14 12.25C14.2422 12.25 14.4375 12.0531 14.4375 11.8125C14.4375 11.5719 14.2422 11.375 14 11.375Z" fill="#FFFFFF" fill-opacity="1.000000" fill-rule="nonzero"/>
		<path id="Vector" d="M16.1875 16.625C15.9453 16.625 15.75 16.429 15.75 16.1875L15.75 15.75C15.75 15.267 15.3594 14.875 14.875 14.875L13.125 14.875C12.6406 14.875 12.25 15.267 12.25 15.75L12.25 16.1875C12.25 16.429 12.0547 16.625 11.8125 16.625C11.5703 16.625 11.375 16.429 11.375 16.1875L11.375 15.75C11.375 14.7849 12.1602 14 13.125 14L14.875 14C15.8398 14 16.625 14.7849 16.625 15.75L16.625 16.1875C16.625 16.429 16.4297 16.625 16.1875 16.625Z" fill="#FFFFFF" fill-opacity="1.000000" fill-rule="nonzero"/>
	</g>
</svg>
