<svg width="18.000000" height="18.000000" viewBox="0 0 18 18" fill="none" xmlns="http://www.w3.org/2000/svg" xmlns:xlink="http://www.w3.org/1999/xlink">
	<desc>
			Created with Pixso.
	</desc>
	<defs>
		<clipPath id="clip187_7591">
			<rect id="magnifying-glass (10) 1" width="18.000000" height="18.000000" fill="white" fill-opacity="0"/>
		</clipPath>
	</defs>
	<rect id="magnifying-glass (10) 1" width="18.000000" height="18.000000" fill="#FFFFFF" fill-opacity="0"/>
	<g clip-path="url(#clip187_7591)">
		<path id="Vector" d="M15.375 3.75C14.3398 3.75 13.5 2.90926 13.5 1.875C13.5 0.840744 14.3398 0 15.375 0C16.4102 0 17.25 0.840744 17.25 1.875C17.25 2.90926 16.4102 3.75 15.375 3.75ZM15.375 0.75C14.7539 0.75 14.25 1.25475 14.25 1.875C14.25 2.49525 14.7539 3 15.375 3C15.9961 3 16.5 2.49525 16.5 1.875C16.5 1.25475 15.9961 0.75 15.375 0.75Z" fill="#FFFFFF" fill-opacity="1.000000" fill-rule="nonzero"/>
		<path id="Vector" d="M17.625 4.49998C17.5273 4.49998 17.4336 4.46324 17.3594 4.39049L16.2344 3.26549C16.0898 3.11923 16.0898 2.88148 16.2344 2.73523C16.3828 2.58899 16.6172 2.58899 16.7656 2.73523L17.8906 3.86023C18.0352 4.00648 18.0352 4.24423 17.8906 4.39049C17.8164 4.46324 17.7227 4.49998 17.625 4.49998Z" fill="#FFFFFF" fill-opacity="1.000000" fill-rule="nonzero"/>
		<path id="Vector" d="M10.875 4.5L1.125 4.5C0.503906 4.5 0 3.99525 0 3.375L0 1.125C0 0.504745 0.503906 0 1.125 0L10.875 0C11.4961 0 12 0.504745 12 1.125L12 3.375C12 3.99525 11.4961 4.5 10.875 4.5ZM1.125 0.75C0.917969 0.75 0.75 0.918747 0.75 1.125L0.75 3.375C0.75 3.58125 0.917969 3.75 1.125 3.75L10.875 3.75C11.082 3.75 11.25 3.58125 11.25 3.375L11.25 1.125C11.25 0.918747 11.082 0.75 10.875 0.75L1.125 0.75Z" fill="#FFFFFF" fill-opacity="1.000000" fill-rule="nonzero"/>
		<path id="Vector" d="M2.25 18C1.00781 18 0 16.9905 0 15.75C0 14.5095 1.00781 13.5 2.25 13.5C3.49219 13.5 4.5 14.5095 4.5 15.75C4.5 16.9905 3.49219 18 2.25 18ZM2.25 14.25C1.42188 14.25 0.75 14.9227 0.75 15.75C0.75 16.5773 1.42188 17.25 2.25 17.25C3.07812 17.25 3.75 16.5773 3.75 15.75C3.75 14.9227 3.07812 14.25 2.25 14.25Z" fill="#FFFFFF" fill-opacity="1.000000" fill-rule="nonzero"/>
		<path id="Vector" d="M4.125 9.75L0.375 9.75C0.167969 9.75 0 9.582 0 9.375C0 9.168 0.167969 9 0.375 9L4.125 9C4.33203 9 4.5 9.168 4.5 9.375C4.5 9.582 4.33203 9.75 4.125 9.75Z" fill="#FFFFFF" fill-opacity="1.000000" fill-rule="nonzero"/>
		<path id="Vector" d="M4.125 12L0.375 12C0.167969 12 0 11.832 0 11.625C0 11.418 0.167969 11.25 0.375 11.25L4.125 11.25C4.33203 11.25 4.5 11.418 4.5 11.625C4.5 11.832 4.33203 12 4.125 12Z" fill="#FFFFFF" fill-opacity="1.000000" fill-rule="nonzero"/>
		<path id="Vector" d="M4.125 7.5L0.375 7.5C0.167969 7.5 0 7.332 0 7.125C0 6.918 0.167969 6.75 0.375 6.75L4.125 6.75C4.33203 6.75 4.5 6.918 4.5 7.125C4.5 7.332 4.33203 7.5 4.125 7.5Z" fill="#FFFFFF" fill-opacity="1.000000" fill-rule="nonzero"/>
		<path id="Vector" d="M16.875 18L7.125 18C6.50391 18 6 17.4953 6 16.875L6 7.125C6 6.50475 6.50391 6 7.125 6L16.875 6C17.4961 6 18 6.50475 18 7.125L18 16.875C18 17.4953 17.4961 18 16.875 18ZM7.125 6.75C6.91797 6.75 6.75 6.91875 6.75 7.125L6.75 16.875C6.75 17.0813 6.91797 17.25 7.125 17.25L16.875 17.25C17.082 17.25 17.25 17.0813 17.25 16.875L17.25 7.125C17.25 6.91875 17.082 6.75 16.875 6.75L7.125 6.75Z" fill="#FFFFFF" fill-opacity="1.000000" fill-rule="nonzero"/>
		<path id="Vector" d="M12 11.25C11.3789 11.25 10.875 10.7453 10.875 10.125C10.875 9.50475 11.3789 9 12 9C12.6211 9 13.125 9.50475 13.125 10.125C13.125 10.7453 12.6211 11.25 12 11.25ZM12 9.75C11.793 9.75 11.625 9.91875 11.625 10.125C11.625 10.3313 11.793 10.5 12 10.5C12.207 10.5 12.375 10.3313 12.375 10.125C12.375 9.91875 12.207 9.75 12 9.75Z" fill="#FFFFFF" fill-opacity="1.000000" fill-rule="nonzero"/>
		<path id="Vector" d="M13.875 14.25C13.668 14.25 13.5 14.082 13.5 13.875L13.5 13.5C13.5 13.086 13.1641 12.75 12.75 12.75L11.25 12.75C10.8359 12.75 10.5 13.086 10.5 13.5L10.5 13.875C10.5 14.082 10.332 14.25 10.125 14.25C9.91797 14.25 9.75 14.082 9.75 13.875L9.75 13.5C9.75 12.6727 10.4219 12 11.25 12L12.75 12C13.5781 12 14.25 12.6727 14.25 13.5L14.25 13.875C14.25 14.082 14.082 14.25 13.875 14.25Z" fill="#FFFFFF" fill-opacity="1.000000" fill-rule="nonzero"/>
	</g>
</svg>
