<svg width="26.750000" height="31.511259" viewBox="0 0 26.75 31.5113" fill="none" xmlns="http://www.w3.org/2000/svg" xmlns:xlink="http://www.w3.org/1999/xlink">
	<desc>
			Created with Pixso.
	</desc>
	<defs/>
	<path id="Vector" d="M22.8789 2.35703L22.8789 29.154C22.8789 30.2503 21.9922 31.139 20.8945 31.139L2.35547 31.139C1.26172 31.139 0.371094 30.2503 0.371094 29.154L0.371094 2.35703C0.371094 1.26075 1.26172 0.37207 2.35547 0.37207L20.8945 0.37207C21.9922 0.37207 22.8789 1.26081 22.8789 2.35703Z" fill="#FFFFFF" fill-opacity="1.000000" fill-rule="nonzero"/>
	<path id="Vector" d="M12.5508 28.6202C12.5508 29.1316 12.1367 29.5465 11.625 29.5465C11.1133 29.5465 10.6992 29.1316 10.6992 28.6202C10.6992 28.1089 11.1133 27.6939 11.625 27.6939C12.1367 27.6939 12.5508 28.1089 12.5508 28.6202Z" fill="#F6F6F6" fill-opacity="1.000000" fill-rule="nonzero"/>
	<path id="Vector" d="M13.3945 7.33264C13.3945 8.30801 12.5977 9.09736 11.625 9.09736C10.6484 9.09736 9.85938 8.30801 9.85938 7.33264C9.85938 6.35727 10.6484 5.56372 11.625 5.56372C12.5977 5.56372 13.3945 6.3572 13.3945 7.33264Z" fill="#495CEE" fill-opacity="1.000000" fill-rule="nonzero"/>
	<path id="Vector" d="M8.27734 14.5001C8.27734 12.1663 9.77344 10.2677 11.6211 10.2677C13.4727 10.2677 14.9766 12.1663 14.9766 14.5001L8.27734 14.5001Z" fill="#495CEE" fill-opacity="1.000000" fill-rule="nonzero"/>
	<path id="Vector" d="M26.375 7.72933C26.375 9.6646 24.8125 11.2278 22.8828 11.2278C20.9453 11.2278 19.3828 9.6646 19.3828 7.72933C19.3828 5.79896 20.9453 4.23578 22.8828 4.23578C24.8125 4.23578 26.375 5.79896 26.375 7.72933Z" fill="#34BBDA" fill-opacity="1.000000" fill-rule="nonzero"/>
	<path id="Vector" d="M15.2539 2.54417L15.793 2.54417C16 2.54417 16.1641 2.37749 16.1641 2.17202C16.1641 1.96654 16 1.79987 15.793 1.79987L15.2539 1.79987C15.0508 1.79987 14.8828 1.96654 14.8828 2.17202C14.8828 2.37749 15.0508 2.54417 15.2539 2.54417Z" fill="#2C2C2C" fill-opacity="1.000000" fill-rule="nonzero"/>
	<path id="Vector" d="M7.45703 2.54417L13.3516 2.54417C13.5547 2.54417 13.7227 2.37749 13.7227 2.17202C13.7227 1.96654 13.5547 1.79987 13.3516 1.79987L7.45703 1.79987C7.25391 1.79987 7.08594 1.96654 7.08594 2.17202C7.08594 2.37749 7.25391 2.54417 7.45703 2.54417Z" fill="#2C2C2C" fill-opacity="1.000000" fill-rule="nonzero"/>
	<path id="Vector" d="M11.625 27.3218C10.9102 27.3218 10.3281 27.9043 10.3281 28.6201C10.3281 29.3363 10.9102 29.9188 11.625 29.9188C12.3398 29.9188 12.9219 29.3363 12.9219 28.6201C12.9219 27.9043 12.3398 27.3218 11.625 27.3218ZM11.625 29.1744C11.3203 29.1744 11.0742 28.9258 11.0742 28.62C11.0742 28.3147 11.3203 28.0661 11.625 28.0661C11.9297 28.0661 12.1797 28.3147 12.1797 28.62C12.1797 28.9258 11.9297 29.1744 11.625 29.1744Z" fill="#2C2C2C" fill-opacity="1.000000" fill-rule="nonzero"/>
	<path id="Vector" d="M11.625 5.19159C10.4453 5.19159 9.48828 6.15207 9.48828 7.33259C9.48828 8.51118 10.4453 9.46973 11.625 9.46973C12.8047 9.46973 13.7656 8.51118 13.7656 7.33259C13.7656 6.15207 12.8047 5.19159 11.625 5.19159ZM11.625 8.72536C10.8555 8.72536 10.2344 8.10068 10.2344 7.33259C10.2344 6.56257 10.8555 5.93596 11.625 5.93596C12.3945 5.93596 13.0234 6.56257 13.0234 7.33259C13.0234 8.10068 12.3945 8.72536 11.625 8.72536Z" fill="#2C2C2C" fill-opacity="1.000000" fill-rule="nonzero"/>
	<path id="Vector" d="M7.90625 14.5C7.90625 14.7054 8.07422 14.8721 8.27734 14.8721L14.9766 14.8721L14.9883 14.8721C15.1914 14.8721 15.3594 14.7054 15.3594 14.5C15.3594 14.4694 15.3555 14.4399 15.3477 14.4113C15.3086 11.9131 13.6523 9.89569 11.625 9.89569C9.57422 9.89569 7.90625 11.9611 7.90625 14.5ZM14.5898 14.1277L8.66406 14.1277C8.80859 12.1733 10.082 10.64 11.625 10.64C13.1719 10.6401 14.4453 12.1733 14.5898 14.1277Z" fill="#2C2C2C" fill-opacity="1.000000" fill-rule="nonzero"/>
	<path id="Vector" d="M4.75 17.9383L18.5039 17.9383C18.707 17.9383 18.875 17.7717 18.875 17.5662C18.875 17.3607 18.707 17.194 18.5039 17.194L4.75 17.194C4.54688 17.194 4.37891 17.3607 4.37891 17.5662C4.37891 17.7716 4.54688 17.9383 4.75 17.9383Z" fill="#2C2C2C" fill-opacity="1.000000" fill-rule="nonzero"/>
	<path id="Vector" d="M4.75 21.3509L18.5039 21.3509C18.707 21.3509 18.875 21.1843 18.875 20.9788C18.875 20.7733 18.707 20.6066 18.5039 20.6066L4.75 20.6066C4.54688 20.6066 4.37891 20.7733 4.37891 20.9788C4.37891 21.1843 4.54688 21.3509 4.75 21.3509Z" fill="#2C2C2C" fill-opacity="1.000000" fill-rule="nonzero"/>
	<path id="Vector" d="M15.0391 24.0198L8.21875 24.0198C8.01562 24.0198 7.84766 24.1865 7.84766 24.3919C7.84766 24.5974 8.01562 24.7641 8.21875 24.7641L15.0391 24.7641C15.2461 24.7641 15.4102 24.5974 15.4102 24.3919C15.4102 24.1865 15.2461 24.0198 15.0391 24.0198Z" fill="#2C2C2C" fill-opacity="1.000000" fill-rule="nonzero"/>
	<path id="Vector" d="M0 2.35711L0 29.1541C0 30.4538 1.05859 31.5113 2.35547 31.5113L20.8984 31.5113C22.1953 31.5113 23.2539 30.4538 23.2539 29.1541L23.2539 11.5813C25.2109 11.3944 26.75 9.73887 26.75 7.72954C26.75 5.72247 25.2109 4.06931 23.2539 3.88253L23.2539 2.35711C23.2539 1.05742 22.1953 0 20.8984 0L2.35547 0C1.05859 0 0 1.05742 0 2.35711ZM22.8828 4.60814C24.6055 4.60814 26.0039 6.00819 26.0039 7.72954C26.0039 9.45328 24.6055 10.8558 22.8828 10.8558C21.1602 10.8558 19.7578 9.45334 19.7578 7.72954C19.7578 6.00819 21.1602 4.60814 22.8828 4.60814ZM0.746094 2.35711C0.746094 1.46786 1.46875 0.744305 2.35547 0.744305L20.8984 0.744305C21.7852 0.744305 22.5078 1.46786 22.5078 2.35711L22.5078 3.88272C20.5508 4.07163 19.0117 5.72408 19.0117 7.72948C19.0117 9.73719 20.5508 11.3918 22.5078 11.5811L22.5078 29.1541C22.5078 30.0434 21.7852 30.767 20.8984 30.767L2.35547 30.767C1.46875 30.767 0.746094 30.0434 0.746094 29.1541L0.746094 2.35711L0.746094 2.35711Z" fill="#2C2C2C" fill-opacity="1.000000" fill-rule="nonzero"/>
	<path id="Vector" d="M22.0781 8.91777C22.2227 9.06318 22.4609 9.06318 22.6055 8.91777L24.4531 7.0719C24.5977 6.92649 24.5977 6.69098 24.4531 6.54564C24.3047 6.40023 24.0703 6.40023 23.9258 6.54564L22.3438 8.12835L21.8398 7.62484C21.6914 7.47944 21.457 7.47944 21.3125 7.62484C21.168 7.77025 21.168 8.00576 21.3125 8.1511L22.0781 8.91777Z" fill="#FFFFFF" fill-opacity="1.000000" fill-rule="nonzero"/>
</svg>
