<svg width="54.000000" height="54.000000" viewBox="0 0 54 54" fill="none" xmlns="http://www.w3.org/2000/svg" xmlns:xlink="http://www.w3.org/1999/xlink">
	<desc>
			Created with Pixso.
	</desc>
	<defs>
		<clipPath id="clip187_2357">
			<rect id="online-registration 1" width="54.000000" height="54.000000" fill="white" fill-opacity="0"/>
		</clipPath>
	</defs>
	<rect id="online-registration 1" width="54.000000" height="54.000000" fill="#FFFFFF" fill-opacity="0"/>
	<g clip-path="url(#clip187_2357)">
		<path id="Vector" d="M42.5547 5.07503L42.5547 48.9246C42.5547 50.7185 41.1016 52.1727 39.3086 52.1727L8.97266 52.1727C7.17578 52.1727 5.72266 50.7185 5.72266 48.9246L5.72266 5.07503C5.72266 3.28111 7.17578 1.8269 8.97266 1.8269L39.3086 1.8269C41.1016 1.8269 42.5547 3.28121 42.5547 5.07503Z" fill="#FFFFFF" fill-opacity="1.000000" fill-rule="nonzero"/>
		<path id="Vector" d="M25.6523 48.0513C25.6523 48.888 24.9766 49.567 24.1406 49.567C23.3047 49.567 22.625 48.888 22.625 48.0513C22.625 47.2145 23.3047 46.5355 24.1406 46.5355C24.9766 46.5355 25.6523 47.2145 25.6523 48.0513Z" fill="#F6F6F6" fill-opacity="1.000000" fill-rule="nonzero"/>
		<path id="Vector" d="M27.0312 13.2169C27.0312 14.813 25.7344 16.1046 24.1367 16.1046C22.543 16.1046 21.25 14.813 21.25 13.2169C21.25 11.6209 22.543 10.3223 24.1367 10.3223C25.7344 10.3223 27.0312 11.6208 27.0312 13.2169Z" fill="#495CEE" fill-opacity="1.000000" fill-rule="nonzero"/>
		<path id="Vector" d="M18.6602 24.9455C18.6602 21.1266 21.1094 18.0198 24.1328 18.0198C27.1602 18.0198 29.6211 21.1266 29.6211 24.9455L18.6602 24.9455Z" fill="#495CEE" fill-opacity="1.000000" fill-rule="nonzero"/>
		<path id="Vector" d="M48.2773 13.8661C48.2773 17.0329 45.7188 19.5908 42.5625 19.5908C39.3945 19.5908 36.8359 17.0329 36.8359 13.8661C36.8359 10.7073 39.3945 8.14935 42.5625 8.14935C45.7188 8.14935 48.2773 10.7073 48.2773 13.8661Z" fill="#34BBDA" fill-opacity="1.000000" fill-rule="nonzero"/>
		<path id="Vector" d="M30.0781 5.38135L30.957 5.38135C31.293 5.38135 31.5664 5.1086 31.5664 4.77237C31.5664 4.43613 31.293 4.16339 30.957 4.16339L30.0781 4.16339C29.7422 4.16339 29.4688 4.43613 29.4688 4.77237C29.4688 5.1086 29.7422 5.38135 30.0781 5.38135Z" fill="#2C2C2C" fill-opacity="1.000000" fill-rule="nonzero"/>
		<path id="Vector" d="M17.3203 5.38135L26.9609 5.38135C27.2969 5.38135 27.5703 5.1086 27.5703 4.77237C27.5703 4.43613 27.2969 4.16339 26.9609 4.16339L17.3203 4.16339C16.9844 4.16339 16.7109 4.43613 16.7109 4.77237C16.7109 5.1086 16.9844 5.38135 17.3203 5.38135Z" fill="#2C2C2C" fill-opacity="1.000000" fill-rule="nonzero"/>
		<path id="Vector" d="M24.1406 45.9265C22.9688 45.9265 22.0156 46.8797 22.0156 48.051C22.0156 49.2231 22.9688 50.1762 24.1406 50.1762C25.3086 50.1762 26.2617 49.2229 26.2617 48.051C26.2617 46.8797 25.3086 45.9265 24.1406 45.9265ZM24.1406 48.9581C23.6406 48.9581 23.2344 48.5513 23.2344 48.0509C23.2344 47.5513 23.6406 47.1445 24.1406 47.1445C24.6367 47.1445 25.043 47.5513 25.043 48.0509C25.043 48.5513 24.6367 48.9581 24.1406 48.9581Z" fill="#2C2C2C" fill-opacity="1.000000" fill-rule="nonzero"/>
		<path id="Vector" d="M24.1367 9.7135C22.2109 9.7135 20.6406 11.2852 20.6406 13.217C20.6406 15.1456 22.2109 16.7141 24.1367 16.7141C26.0703 16.7141 27.6406 15.1456 27.6406 13.217C27.6406 11.2852 26.0703 9.7135 24.1367 9.7135ZM24.1367 15.496C22.8789 15.496 21.8594 14.4738 21.8594 13.217C21.8594 11.9569 22.8828 10.9316 24.1367 10.9316C25.3984 10.9316 26.4219 11.9569 26.4219 13.217C26.4219 14.4738 25.3984 15.496 24.1367 15.496Z" fill="#2C2C2C" fill-opacity="1.000000" fill-rule="nonzero"/>
		<path id="Vector" d="M18.0508 24.9454C18.0508 25.2816 18.3242 25.5544 18.6602 25.5544L29.6211 25.5544L29.6367 25.5544C29.9727 25.5544 30.2461 25.2816 30.2461 24.9454C30.2461 24.8954 30.2383 24.8471 30.2266 24.8003C30.1641 20.7124 27.457 17.4111 24.1328 17.4111C20.7812 17.4111 18.0508 20.7909 18.0508 24.9454ZM28.9883 24.3363L19.293 24.3363C19.5273 21.1382 21.6094 18.6291 24.1328 18.6291C26.6641 18.6292 28.75 21.1382 28.9883 24.3363Z" fill="#2C2C2C" fill-opacity="1.000000" fill-rule="nonzero"/>
		<path id="Vector" d="M12.8867 30.5717L35.3867 30.5717C35.7227 30.5717 35.9961 30.299 35.9961 29.9627C35.9961 29.6265 35.7227 29.3538 35.3867 29.3538L12.8867 29.3538C12.5508 29.3538 12.2773 29.6265 12.2773 29.9627C12.2773 30.2989 12.5508 30.5717 12.8867 30.5717Z" fill="#2C2C2C" fill-opacity="1.000000" fill-rule="nonzero"/>
		<path id="Vector" d="M12.8867 36.1559L35.3867 36.1559C35.7227 36.1559 35.9961 35.8832 35.9961 35.547C35.9961 35.2107 35.7227 34.938 35.3867 34.938L12.8867 34.938C12.5508 34.938 12.2773 35.2107 12.2773 35.547C12.2773 35.8832 12.5508 36.1559 12.8867 36.1559Z" fill="#2C2C2C" fill-opacity="1.000000" fill-rule="nonzero"/>
		<path id="Vector" d="M29.7227 40.5233L18.5625 40.5233C18.2266 40.5233 17.9531 40.796 17.9531 41.1322C17.9531 41.4685 18.2266 41.7412 18.5625 41.7412L29.7227 41.7412C30.0586 41.7412 30.3281 41.4685 30.3281 41.1322C30.3281 40.7961 30.0586 40.5233 29.7227 40.5233Z" fill="#2C2C2C" fill-opacity="1.000000" fill-rule="nonzero"/>
		<path id="Vector" d="M5.11328 5.07518L5.11328 48.9249C5.11328 51.0516 6.84375 52.782 8.96875 52.782L39.3086 52.782C41.4336 52.782 43.1641 51.0516 43.1641 48.9249L43.1641 20.1693C46.3711 19.8635 48.8867 17.1544 48.8867 13.8664C48.8867 10.5821 46.3711 7.87695 43.1641 7.5713L43.1641 5.07518C43.1641 2.9484 41.4336 1.21808 39.3086 1.21808L8.96875 1.21808C6.84375 1.21808 5.11328 2.9484 5.11328 5.07518ZM42.5586 8.75867C45.375 8.75867 47.668 11.0497 47.668 13.8664C47.668 16.6871 45.375 18.9821 42.5586 18.9821C39.7383 18.9821 37.4453 16.6872 37.4453 13.8664C37.4453 11.0497 39.7383 8.75867 42.5586 8.75867ZM6.33203 5.07518C6.33203 3.62003 7.51562 2.43604 8.96875 2.43604L39.3086 2.43604C40.7617 2.43604 41.9453 3.62003 41.9453 5.07518L41.9453 7.57162C38.7422 7.88075 36.2266 10.5848 36.2266 13.8663C36.2266 17.1517 38.7422 19.8593 41.9453 20.1689L41.9453 48.9249C41.9453 50.38 40.7617 51.564 39.3086 51.564L8.96875 51.564C7.51562 51.564 6.33203 50.38 6.33203 48.9249L6.33203 5.07518L6.33203 5.07518Z" fill="#2C2C2C" fill-opacity="1.000000" fill-rule="nonzero"/>
		<path id="Vector" d="M41.2422 15.8109C41.4805 16.0488 41.8633 16.0488 42.1016 15.8109L45.125 12.7903C45.3633 12.5524 45.3633 12.167 45.125 11.9292C44.8867 11.6913 44.5 11.6913 44.2617 11.9292L41.6719 14.5191L40.8477 13.6952C40.6094 13.4572 40.2266 13.4572 39.9883 13.6952C39.75 13.9331 39.75 14.3185 39.9883 14.5563L41.2422 15.8109Z" fill="#FFFFFF" fill-opacity="1.000000" fill-rule="nonzero"/>
	</g>
</svg>
