<svg width="76.890625" height="12.040588" viewBox="0 0 76.8906 12.0406" fill="none" xmlns="http://www.w3.org/2000/svg" xmlns:xlink="http://www.w3.org/1999/xlink">
	<desc>
			Created with Pixso.
	</desc>
	<defs/>
	<path id="Vector" d="M0 4.18802L1.22266 4.01352C1.63281 4.31891 2.03906 4.62427 2.44531 4.92966L1.22266 5.14777C0.816406 4.79877 0.410156 4.49341 0 4.18802ZM2.98828 6.02029L4.21094 5.80215C4.75391 6.0639 5.30078 6.36929 5.97656 6.63104L4.89062 6.89279C4.07812 6.5874 3.53125 6.32565 2.98828 6.02029ZM6.65625 7.67804L7.74609 7.37268C8.42188 7.63443 9.10156 7.85254 9.91797 8.11429L8.96875 8.41968C8.15234 8.20154 7.47266 7.93979 6.65625 7.67804ZM11.2773 9.11768L12.0898 8.76868C12.9062 8.98682 13.7227 9.20493 14.5352 9.37943L13.7227 9.72842C13.043 9.55392 12.0898 9.33582 11.2773 9.11768ZM16.5742 10.2956L17.2539 9.90295C18.2031 10.0775 19.0195 10.252 19.9688 10.3828L19.4258 10.7755C18.4766 10.6446 17.5273 10.4701 16.5742 10.2956ZM22.2812 11.2117L22.8242 10.8191C23.7734 10.95 24.7266 11.0372 25.8125 11.1245L25.4062 11.5607C24.3164 11.4734 23.3672 11.3426 22.2812 11.2117ZM28.5273 11.8224L28.8008 11.3862C29.207 11.4298 29.4805 11.4298 29.8867 11.4298C30.5664 11.4734 31.2461 11.4734 31.9258 11.5171L31.7891 11.9533C31.1094 11.9097 30.4297 11.9097 29.75 11.8661C29.207 11.8661 28.8008 11.8224 28.5273 11.8224ZM34.9141 12.0406L34.9141 11.6043C35.1875 11.6043 35.457 11.6043 35.7305 11.6043C36.543 11.6043 37.2227 11.6043 38.0391 11.5607L38.1758 11.9969C37.3594 11.9969 36.543 12.0406 35.7305 12.0406C35.3203 12.0406 35.1875 12.0406 34.9141 12.0406ZM41.0273 11.4734C41.9766 11.4298 43.0664 11.3426 44.0156 11.299L44.2891 11.7352C43.1992 11.8224 42.1133 11.8661 41.1641 11.9097L41.0273 11.4734ZM47.1406 10.9936C48.0898 10.9063 49.043 10.7755 49.9922 10.6446L50.5352 11.0372C49.5859 11.1681 48.5 11.299 47.5469 11.3862L47.1406 10.9936ZM52.8438 10.252C53.7969 10.1211 54.7461 9.94656 55.5625 9.77206L56.2422 10.1647C55.2891 10.3392 54.3398 10.5137 53.3906 10.6446L52.8438 10.252ZM58.1445 9.24857C58.957 9.07407 59.7734 8.85593 60.5898 8.63782L61.5391 8.98682C60.7266 9.20493 59.9102 9.42307 58.957 9.64117L58.1445 9.24857ZM62.7617 7.93979C63.4414 7.72168 64.1211 7.45993 64.8008 7.19818L65.8867 7.45993C65.207 7.72168 64.5273 7.98343 63.7148 8.24518L62.7617 7.93979ZM66.7031 6.41293C67.2461 6.15115 67.7891 5.84579 68.332 5.58405L69.5547 5.80215C69.0117 6.10754 68.4688 6.4129 67.7891 6.67465L66.7031 6.41293ZM69.9609 4.66791C70.3711 4.36252 70.9141 4.05716 71.3203 3.75177L72.543 3.92627C72.1367 4.23166 71.5938 4.53702 71.1836 4.84241L69.9609 4.66791ZM72.4062 2.83563C72.8164 2.53027 73.0859 2.22488 73.4961 1.87589L74.8516 2.00677C74.4453 2.31213 74.1719 2.66113 73.7656 2.96652L72.4062 2.83563ZM74.582 0.959747C74.8516 0.654388 75.2617 0.305389 75.5312 0L76.8906 0.130859C76.6172 0.436249 76.2109 0.785248 75.9414 1.09064L74.582 0.959747Z" fill="#FFFFFF" fill-opacity="1.000000" fill-rule="nonzero"/>
</svg>
