<svg width="150.000000" height="18.000000" viewBox="0 0 150 18" fill="none" xmlns="http://www.w3.org/2000/svg" xmlns:xlink="http://www.w3.org/1999/xlink">
	<desc>
			Created with Pixso.
	</desc>
	<defs/>
	<path id="Vector" d="M19.8516 0.797119C19.4805 0.800537 19.125 0.949219 18.8633 1.21063C18.6016 1.47205 18.4531 1.82495 18.457 2.19214L18.457 14.4514L12.3047 14.4514L12.3047 0.797119L10.6367 0.797119C10.2656 0.800537 9.91016 0.949219 9.64844 1.21063C9.38672 1.47205 9.23828 1.82495 9.24219 2.19214L9.24219 14.4514L3.06641 14.4514L3.06641 0.797119L1.39453 0.797119C1.21094 0.797974 1.03125 0.834595 0.859375 0.904785C0.691406 0.975037 0.535156 1.07758 0.40625 1.20648C0.277344 1.33545 0.175781 1.48828 0.105469 1.65631C0.0351562 1.82428 0 2.00421 0 2.18573L0 17.505L20.2188 17.505C20.5625 17.505 20.8945 17.3696 21.1406 17.1284C21.3828 16.8873 21.5234 16.5602 21.5234 16.2193L21.5234 0.79071L19.8516 0.797119ZM37.1367 3.90216L31.6484 16.6179C31.5352 16.8819 31.3477 17.1074 31.1055 17.2662C30.8633 17.425 30.5781 17.5103 30.2852 17.5114L28.043 17.5114L35.6211 0.797119L38.6992 0.797119L46.3047 17.5114L44.0078 17.5114C43.7188 17.5117 43.4336 17.4277 43.1914 17.2699C42.9492 17.1122 42.7578 16.8877 42.6445 16.6243L37.1367 3.90216ZM58.6953 10.5172L55.9766 13.2365L55.9766 17.5114L52.8242 17.5114L52.8242 0.797119L56.0039 0.797119L56.0039 9.36646L64.4805 0.797119L68.0469 0.797119L60.875 8.27356L68.4766 17.5114L65.6406 17.5114C65.3672 17.5137 65.0977 17.4575 64.8477 17.3464C64.5977 17.2355 64.375 17.0724 64.1953 16.8686L58.6953 10.5172ZM75.6523 0.797119L86.9492 0.797119C87.3203 0.797119 87.6758 0.942749 87.9375 1.20197C88.2031 1.46118 88.3516 1.81274 88.3516 2.17926L88.3516 3.4007L77.0547 3.4007C76.8711 3.4007 76.6875 3.36499 76.5195 3.29547C76.3477 3.22601 76.1914 3.12421 76.0625 2.99591C75.9336 2.86755 75.8281 2.71521 75.7578 2.54749C75.6875 2.37982 75.6523 2.20007 75.6523 2.01855L75.6523 0.797119ZM75.6523 14.9078L87.293 14.9078C87.6641 14.9078 88.0234 15.0535 88.2852 15.3127C88.5469 15.5719 88.6953 15.9235 88.6953 16.29L88.6953 17.5114L77.0547 17.5114C76.6836 17.5098 76.3281 17.3645 76.0664 17.107C75.8047 16.8495 75.6562 16.5006 75.6523 16.1357L75.6523 14.9143L75.6523 14.9078Z" fill="#FFFFFF" fill-opacity="1.000000" fill-rule="nonzero"/>
	<path id="Vector" d="M75.6523 7.71429L85.8789 7.71429C86.0625 7.71429 86.2461 7.75006 86.4141 7.81952C86.5859 7.88898 86.7383 7.99078 86.8711 8.11908C87 8.2475 87.1016 8.39984 87.1719 8.5675C87.2422 8.73523 87.2812 8.91498 87.2812 9.09644L87.2812 10.2857L77.0547 10.2857C76.6875 10.2858 76.332 10.1428 76.0703 9.88776C75.8086 9.63269 75.6562 9.28607 75.6523 8.92285L75.6523 7.71429Z" fill="#34BBDA" fill-opacity="1.000000" fill-rule="nonzero"/>
	<path id="Vector" d="M95.2188 9.14783C95.2188 4.29425 98.8984 0.790649 103.848 0.790649C105.047 0.746826 106.242 0.968262 107.344 1.43878C108.449 1.9093 109.43 2.61694 110.219 3.50995L109.176 4.49994C108.949 4.71466 108.656 4.84253 108.344 4.86023C108.031 4.87793 107.723 4.7843 107.473 4.59637C106.617 3.95551 105.598 3.56366 104.523 3.46521C103.453 3.36676 102.379 3.56555 101.418 4.03918C100.453 4.51282 99.6484 5.24237 99.0859 6.1452C98.5195 7.04803 98.2266 8.0882 98.2305 9.14783C98.1719 10.6027 98.6992 12.0215 99.6992 13.093C100.699 14.1645 102.09 14.801 103.566 14.8628L103.984 14.8628C105.246 14.882 106.477 14.4711 107.465 13.6992C107.715 13.5078 108.027 13.412 108.344 13.4298C108.656 13.4475 108.957 13.5775 109.184 13.7957L110.219 14.7856C109.422 15.6777 108.438 16.384 107.332 16.8532C106.223 17.3225 105.023 17.5429 103.82 17.4985C98.8984 17.5049 95.2188 14.0013 95.2188 9.14783Z" fill="#FFFFFF" fill-opacity="1.000000" fill-rule="nonzero"/>
	<path id="Vector" d="M134.406 7.97144C134.406 8.78143 133.891 9.25714 132.895 9.25714L131.59 9.25714L131.59 6.68573L132.895 6.68573C133.891 6.69214 134.406 7.16144 134.406 7.97144ZM126.422 6.78857L125.066 6.78857L125.066 9.35999L126.422 9.35999C127.441 9.35999 127.961 8.89069 127.961 8.07428C127.961 7.25787 127.441 6.78857 126.422 6.78857ZM150 6.42859L150 17.0357C150 17.2914 149.895 17.5367 149.715 17.7176C149.527 17.8984 149.281 18 149.02 18L123.914 18C122.184 18 120.523 17.3227 119.301 16.1171C118.078 14.9115 117.391 13.2764 117.391 11.5714L117.391 0.964294C117.391 0.708557 117.492 0.463257 117.676 0.28241C117.859 0.101624 118.109 0 118.367 0L143.477 0C145.207 0 146.867 0.677307 148.09 1.88287C149.312 3.0885 150 4.72363 150 6.42859ZM129.129 8.06787C129.129 6.64069 128.113 5.7793 126.477 5.7793L123.914 5.7793L123.914 12.2143L125.066 12.2143L125.066 10.35L126.477 10.35C128.113 10.35 129.129 9.48212 129.129 8.06787ZM135.652 12.1115L134.25 10.0029C134.656 9.84021 134.996 9.55713 135.23 9.19293C135.465 8.82874 135.578 8.40173 135.555 7.97144C135.555 6.55072 134.555 5.68286 132.945 5.68286L130.434 5.68286L130.434 12.1115L131.57 12.1115L131.57 10.2407L133.18 10.2407L134.434 12.1243L135.652 12.1115ZM143.477 8.89716C143.477 8.22333 143.273 7.56458 142.895 7.00427C142.516 6.44391 141.977 6.0072 141.344 5.74933C140.711 5.49146 140.016 5.42401 139.348 5.55548C138.676 5.68695 138.062 6.01141 137.578 6.48792C137.094 6.96448 136.766 7.57153 136.633 8.23242C136.496 8.89337 136.566 9.57843 136.828 10.201C137.09 10.8236 137.531 11.3557 138.102 11.7301C138.668 12.1045 139.336 12.3043 140.02 12.3043C140.938 12.3043 141.816 11.9453 142.465 11.3064C143.113 10.6674 143.477 9.80072 143.477 8.89716ZM140.02 6.57001C139.727 6.56836 139.434 6.62378 139.16 6.7334C138.891 6.84296 138.641 7.00446 138.43 7.20862C138.223 7.41278 138.055 7.65558 137.941 7.92328C137.824 8.19092 137.766 8.47821 137.766 8.76855C137.762 8.8114 137.762 8.85431 137.766 8.89716C137.766 9.487 138.004 10.0528 138.426 10.47C138.848 10.8871 139.422 11.1214 140.02 11.1214C140.621 11.1214 141.195 10.8871 141.617 10.47C142.039 10.0528 142.277 9.487 142.277 8.89716C142.293 8.60663 142.25 8.31592 142.152 8.04163C142.055 7.76733 141.902 7.51489 141.703 7.29871C141.508 7.08246 141.27 6.90686 141 6.7818C140.734 6.6568 140.445 6.58478 140.152 6.57001L140.02 6.57001Z" fill="#34BBDA" fill-opacity="1.000000" fill-rule="nonzero"/>
</svg>
