<svg width="800" height="258.96907" viewBox="0 0 1880.14 608.623" fill="none" xmlns="http://www.w3.org/2000/svg" xmlns:xlink="http://www.w3.org/1999/xlink">
	<desc>
			Created with Pixso.
	</desc>
	<defs/>
	<path id="Vector" d="M0.214844 173.19C0.214844 173.19 73.5039 159.633 93.0273 165.107C112.398 170.631 74.5469 184.729 95.3906 192.517C116.234 200.305 132.203 202.948 195.141 190.242C258.215 177.581 255.641 174.964 365.875 154.576C475.816 134.193 497.062 128.783 552.824 140.723C608.586 152.663 574.613 181.234 512.344 217.125C450.23 252.967 407.625 271.506 414.262 282.885C421.035 294.309 451.176 285.69 486.254 284.226C521.625 282.757 543.695 277.612 564.539 285.4C585.387 293.188 614.848 288.23 693.688 276.157C772.531 264.084 816.84 244.204 835.891 255.393C855.094 266.533 867.406 256.664 805.055 300.087C742.844 343.555 730.852 347.759 723.164 370.45" stroke="#3A3A3A" stroke-opacity="1.000000" stroke-width="0.635000"/>
	<path id="Vector" d="M2.79297 172.626C2.79297 172.626 75.5 159.08 95.1953 164.411C114.738 169.791 77.6602 183.641 98.3828 191.291C117.891 198.449 133.137 201.059 185.75 191.403C189.672 190.674 193.75 189.895 197.98 189.065C260.848 176.736 257.773 174.456 366.77 154.465C475.629 134.43 497.164 129.015 552.359 140.872C562.449 143.019 569.668 145.734 574.168 148.969C591.668 161.451 570.52 181.312 532.035 205.15C525.957 208.868 519.555 212.778 512.566 216.7C451.109 252.155 408.949 270.638 415.723 282.062C422.496 293.486 452.621 284.96 487.855 283.447C520.734 282.072 542.406 277.496 562.309 283.291C563.547 283.688 564.922 284.13 566.297 284.572C587.312 292.216 617.223 287.203 695.461 275.235C709.395 273.145 722.207 270.796 733.852 268.469C788.602 257.51 821.188 245.898 836.508 255.194C851.18 264.082 861.125 259.917 836.109 278.635C829.172 283.865 820.219 290.537 806.672 300.009C745.391 343.179 733.227 347.526 725.434 369.985" stroke="#3A3A3A" stroke-opacity="1.000000" stroke-width="0.635000"/>
	<path id="Vector" d="M7.87891 171.873C7.87891 171.873 80.293 158.332 100.004 163.569C119.582 168.762 82.9688 182.463 103.867 189.969C123.406 196.94 138.809 199.499 191.094 190.037C194.863 189.357 198.938 188.578 203.172 187.749C265.848 175.657 262.258 173.808 370.031 154.121C477.809 134.434 499.48 129.063 554.262 140.788C564.352 142.934 571.434 145.606 575.793 148.797C593.16 161.234 572.34 180.901 534.316 204.591C528.242 208.308 521.992 212.169 515.16 216.041C454.336 251.203 412.645 269.538 419.57 280.911C426.363 292.241 456.449 283.904 491.684 282.39C524.562 281.016 546.238 276.44 566.156 282.141C567.395 282.538 568.633 282.935 570.008 283.377C591.488 290.872 621.57 285.715 699.328 273.99C713.258 271.901 726.055 269.646 737.836 267.363C792.535 256.686 824.363 245.228 839.512 254.668C853.719 263.705 862.926 259.601 839.234 278.246C832.434 283.521 824.531 290.033 811.121 299.549C750.766 342.42 738.449 346.817 730.535 369.138" stroke="#3A3A3A" stroke-opacity="1.000000" stroke-width="0.635000"/>
	<path id="Vector" d="M15.0273 170.986C15.0273 170.986 86.8555 157.456 106.742 162.55C126.492 167.599 90.4961 181.1 111.43 188.419C130.984 195.296 146.559 197.712 198.52 188.443C202.289 187.763 206.5 187.028 210.578 186.249C272.91 174.444 268.82 172.932 375.648 153.637C482.188 134.348 504.309 128.922 558.66 140.608C568.613 142.71 575.691 145.382 580.055 148.572C597.281 160.966 576.77 180.534 539.23 203.98C533.309 207.648 526.922 211.465 520.227 215.381C460.195 250.201 418.812 268.435 425.879 279.853C432.824 291.133 462.738 282.939 497.977 281.426C530.562 280.057 552.371 275.525 572.465 281.082C573.855 281.43 575.094 281.827 576.312 282.319C597.969 289.67 628.359 284.414 705.652 272.838C719.582 270.749 732.516 268.538 744.145 266.305C798.633 255.959 830 244.65 844.547 254.195C858.289 263.381 866.773 259.244 844.098 277.917C837.57 283.28 830.441 289.543 817.152 299.198C757.727 341.77 745.098 346.267 737.066 368.45" stroke="#3A3A3A" stroke-opacity="1.000000" stroke-width="0.635000"/>
	<path id="Vector" d="M24.543 169.866C24.543 169.866 95.9258 156.391 115.848 161.297C135.629 166.159 100.254 179.461 121.203 186.686C140.934 193.419 156.523 195.741 208.16 186.666C211.926 185.986 215.984 185.301 220.215 184.472C282.344 172.998 277.754 171.822 383.344 152.926C488.656 133.94 511.055 128.602 565.148 140.107C575.102 142.209 582.043 144.836 586.406 148.027C603.496 160.377 583.449 179.795 546.234 203.048C540.316 206.716 534.082 210.483 527.543 214.349C468.305 248.827 427.23 266.962 434.449 278.33C441.551 289.56 471.156 281.466 506.527 279.997C538.977 278.583 560.77 274.146 581.035 279.559C582.426 279.907 583.508 280.354 585.039 280.746C607.934 287.699 637.703 282.642 714.238 271.221C728.172 269.131 740.949 266.97 752.559 264.831C806.707 254.773 837.742 243.657 851.828 253.351C865.258 262.637 872.848 258.61 851.203 277.217C844.953 282.668 838.891 288.677 825.445 298.381C766.949 340.655 754.305 345.246 746.016 367.247" stroke="#3A3A3A" stroke-opacity="1.000000" stroke-width="0.635000"/>
	<path id="Vector" d="M35.832 168.618C35.832 168.618 106.629 155.155 126.566 159.966C146.383 164.64 111.766 177.788 132.75 184.825C152.359 191.42 168.262 193.643 219.414 184.811C223.18 184.131 227.238 183.445 231.453 182.71C293.371 171.568 288.438 170.68 392.789 152.181C497.02 133.543 519.711 128.2 573.234 139.621C583.051 141.679 589.992 144.307 594.355 147.498C611.309 159.803 591.434 179.078 554.84 202.132C549.074 205.75 542.844 209.517 536.301 213.383C477.855 247.518 437.227 265.598 444.449 276.967C451.703 288.147 481.293 280.147 516.527 278.633C548.82 277.269 570.77 272.782 591.051 278.102C592.441 278.449 593.68 278.847 595.055 279.288C618.43 285.999 648.355 280.892 724.273 269.67C738.203 267.58 750.965 265.513 762.711 263.418C816.805 253.641 847.227 242.725 860.844 252.568C873.812 262.003 880.66 258.037 860.34 276.572C854.227 282.067 849.215 287.915 835.754 297.713C778.34 339.64 765.387 344.33 756.977 366.192" stroke="#3A3A3A" stroke-opacity="1.000000" stroke-width="0.635000"/>
	<path id="Vector" d="M49.043 167.192C49.043 167.192 119.391 153.784 139.363 158.408C159.199 162.988 124.738 176.086 146.375 182.736C166.621 189.039 182.23 191.267 233.039 182.722C236.941 182.086 240.711 181.406 244.922 180.671C306.5 169.816 301.203 169.309 404.469 151.158C507.461 132.918 530.445 127.569 583.559 138.858C593.371 140.916 600.316 143.544 604.539 146.69C621.355 158.952 601.789 178.127 565.68 200.938C559.91 204.556 553.836 208.273 547.449 212.09C489.793 245.882 449.477 263.863 456.852 275.182C464.262 286.312 493.68 278.455 528.914 276.942C561.07 275.534 582.863 271.096 603.453 276.317C604.848 276.664 606.082 277.062 607.457 277.503C631.297 284.065 661.242 278.864 736.832 267.835C750.898 265.79 763.66 263.722 775.254 261.677C829.004 252.187 859.113 241.37 872.266 251.363C884.926 260.897 891.172 257.036 871.594 275.51C865.598 281.143 861.652 286.738 848.328 296.58C791.844 338.208 778.719 343.042 770.203 364.672" stroke="#3A3A3A" stroke-opacity="1.000000" stroke-width="0.635000"/>
	<path id="Vector" d="M63.7305 165.643C63.7305 165.643 133.496 152.247 153.777 156.771C173.648 161.163 139.805 174.063 161.461 180.619C181.875 186.778 197.504 188.912 247.984 180.56C251.887 179.925 255.793 179.289 260.008 178.554C321.531 167.98 315.426 167.91 417.473 150.062C519.516 132.215 542.652 126.817 595.199 138.023C604.879 140.037 611.82 142.664 615.906 145.767C632.582 157.984 613.348 176.966 577.699 199.628C572.09 203.196 566.012 206.913 559.625 210.73C502.762 244.18 462.598 262.111 470.266 273.424C477.676 284.555 507.074 276.791 542.312 275.278C574.312 273.92 596.262 269.432 616.867 274.559C618.262 274.906 619.5 275.304 620.891 275.652C643.957 282.462 675.293 276.813 750.281 265.889C764.195 263.894 777.094 261.871 788.688 259.826C842.09 250.623 871.871 239.999 884.562 250.141C896.758 259.824 902.266 256.024 883.855 274.476C878.137 280.197 875.117 285.493 861.621 295.479C805.93 336.765 792.785 341.692 783.996 363.235" stroke="#3A3A3A" stroke-opacity="1.000000" stroke-width="0.635000"/>
	<path id="Vector" d="M80.0195 164.111C80.0195 164.111 149.199 150.726 169.656 155.107C189.695 159.355 156.938 171.906 178.164 178.424C198.133 184.638 214.398 186.48 264.551 178.321C268.301 177.736 272.359 177.05 276.418 176.365C337.598 166.078 331.129 166.389 432.094 148.89C532.898 131.44 556.328 126.036 608.461 137.11C618.141 139.124 624.945 141.707 629.031 144.809C645.57 156.982 626.508 175.821 591.477 198.284C585.867 201.852 579.945 205.52 573.562 209.336C517.332 242.493 477.633 260.275 485.457 271.538C493.023 282.619 522.25 275 557.484 273.487C589.348 272.084 611.277 267.691 632.059 272.674C633.449 273.021 634.688 273.419 636.082 273.766C659.473 280.383 691.121 274.635 765.488 263.91C779.402 261.914 792.438 259.935 803.859 258.034C857.059 249.163 886.375 238.688 898.465 248.935C910.191 258.767 914.961 255.028 897.734 273.364C892.293 279.174 890.188 284.265 876.828 294.295C822.062 335.282 808.902 340.304 799.859 361.664" stroke="#3A3A3A" stroke-opacity="1.000000" stroke-width="0.635000"/>
	<path id="Vector" d="M97.7773 162.456C97.7773 162.456 166.508 149.126 187 153.319C207.078 157.38 174.938 169.732 196.18 176.156C216.32 182.227 232.602 183.974 282.273 176.059C286.023 175.473 289.926 174.837 294.125 174.196C355.098 164.241 348.133 164.888 448.008 147.737C547.75 130.542 571.453 125.226 623.176 136.167C632.852 138.181 639.52 140.72 643.605 143.823C660.008 155.951 641.117 174.646 606.707 196.911C601.25 200.429 595.328 204.096 589.098 207.863C533.66 240.678 494.273 258.36 502.234 269.668C509.953 280.699 539.008 273.223 574.262 271.616C605.969 270.263 628.055 265.82 648.852 270.709C650.246 271.057 651.637 271.404 652.875 271.802C676.578 278.319 708.398 272.427 782.301 261.852C796.215 259.856 809.234 257.971 820.652 256.07C873.664 247.436 902.496 237.204 914.277 247.55C925.695 257.482 929.863 253.848 913.516 272.167C908.211 278.021 907.152 282.952 893.777 293.076C839.941 333.765 826.469 338.886 817.461 360.058" stroke="#3A3A3A" stroke-opacity="1.000000" stroke-width="0.635000"/>
	<path id="Vector" d="M116.57 160.734C116.57 160.734 184.719 147.415 205.379 151.465C225.492 155.338 194.109 167.535 215.387 173.771C235.406 179.704 252.137 181.396 301.344 173.63C305.09 173.044 308.996 172.408 313.039 171.817C373.957 162.143 366.34 163.177 464.977 146.424C563.617 129.671 587.77 124.3 638.922 135.158C648.461 137.128 655.129 139.667 659.219 142.769C675.48 154.854 656.898 173.449 622.836 195.427C617.379 198.945 611.613 202.563 605.242 206.286C550.598 238.758 511.656 256.385 519.633 267.598C527.371 278.536 556.547 271.198 591.645 269.64C623.062 268.293 645.285 263.894 666.254 268.64C667.645 268.987 668.902 269.291 670.43 269.683C694.457 276.007 726.57 270.109 800.008 259.683C813.922 257.687 826.941 255.802 838.484 254.039C891.148 245.692 919.52 235.61 930.969 246.149C941.926 256.23 945.488 252.701 930.191 270.86C925.16 276.802 925.172 281.479 911.621 291.747C858.578 332.093 845.227 337.352 835.961 358.342" stroke="#3A3A3A" stroke-opacity="1.000000" stroke-width="0.635000"/>
	<path id="Vector" d="M136.508 159.083C136.508 159.083 204.074 145.775 224.906 149.681C245.035 153.46 214.289 165.365 235.738 171.457C255.934 177.246 272.68 178.845 321.559 171.272C325.309 170.686 329.195 170.144 333.254 169.459C393.828 160.072 385.848 161.487 483.406 145.082C580.805 128.727 605.246 123.35 655.988 134.076C665.531 136.046 672.059 138.541 676.008 141.599C692.137 153.64 673.879 172.042 640.281 193.87C634.98 197.338 629.211 200.956 623 204.629C569.145 236.759 530.516 254.286 538.629 265.544C546.52 276.432 575.523 269.238 610.621 267.68C642.039 266.333 664.105 261.984 685.25 266.585C686.504 266.889 687.895 267.237 689.426 267.628C713.762 273.853 746.047 267.812 819.023 257.535C833.074 255.583 845.938 253.748 857.477 251.984C909.938 243.969 937.844 234.036 948.691 244.68C959.18 254.911 962.301 251.437 947.742 269.535C942.984 275.565 943.77 279.994 930.355 290.305C878.242 330.353 864.582 335.712 855.059 356.52" stroke="#FFFFFF" stroke-opacity="1.000000" stroke-width="0.635000"/>
	<path id="Vector" d="M157.332 157.415C157.332 157.415 224.449 144.162 245.457 147.925C265.617 151.516 235.629 163.266 256.957 169.221C277.324 174.866 294.242 176.321 342.777 169.035C346.527 168.45 350.414 167.908 354.457 167.316C414.688 158.217 406.207 159.969 502.68 143.912C598.703 127.91 623.441 122.528 673.75 133.215C683 135.19 689.684 137.636 693.633 140.694C709.625 152.69 691.676 170.993 658.559 192.578C653.258 196.047 647.645 199.615 641.434 203.288C588.371 235.075 550.047 252.503 558.32 263.711C566.367 274.549 595.195 267.498 630.293 265.941C661.418 264.599 683.777 260.244 704.938 264.752C706.348 265.006 707.586 265.403 708.977 265.751C733.777 271.827 766.375 265.686 838.59 255.564C852.641 253.612 865.488 251.871 876.875 250.157C929.145 242.379 956.566 232.689 966.953 243.483C977.133 253.812 979.492 250.493 965.969 268.525C961.332 274.693 963.336 278.818 949.754 289.273C898.43 328.978 884.891 334.475 875.105 355.101" stroke="#3A3A3A" stroke-opacity="1.000000" stroke-width="0.635000"/>
	<path id="Vector" d="M179.004 155.823C179.004 155.823 245.535 142.582 266.715 146.201C286.914 149.604 257.68 161.199 279.043 166.966C299.43 172.518 316.52 173.829 364.727 166.737C368.32 166.2 372.207 165.659 376.25 165.067C436.41 156.344 427.297 158.388 522.527 142.729C617.469 127.075 642.344 121.737 692.398 132.242C701.645 134.218 708.328 136.663 712.297 139.627C728.148 151.579 710.375 169.738 677.875 191.124C672.727 194.543 667.117 198.111 661.059 201.735C608.633 233.229 570.777 250.508 579.184 261.76C587.23 272.598 616.043 265.642 651.293 264.034C682.281 262.649 704.488 258.343 725.957 262.752C727.367 263.006 728.605 263.403 730.152 263.701C755.262 269.677 788.031 263.393 859.781 253.42C873.832 251.468 886.82 249.771 898.188 248.151C950.109 240.66 977.207 231.164 987.285 242.057C997 252.536 998.914 249.272 986.281 267.192C981.918 273.449 984.836 277.369 971.391 287.869C920.996 327.276 907.301 332.822 897.398 353.31" stroke="#3A3A3A" stroke-opacity="1.000000" stroke-width="0.635000"/>
	<path id="Vector" d="M201.262 154.221C201.262 154.221 267.211 140.99 288.559 144.465C308.93 147.725 280.18 159.078 301.562 164.751C322.117 170.159 339.223 171.376 386.949 164.527C390.547 163.99 394.57 163.493 398.613 162.901C458.582 154.415 448.949 156.891 543.102 141.579C636.957 126.274 662.258 120.974 711.609 131.352C720.719 133.284 727.402 135.729 731.371 138.693C747.086 150.601 729.777 168.611 697.605 189.804C692.613 193.173 687 196.741 680.941 200.364C629.172 231.472 591.605 248.746 600.324 259.898C608.523 270.687 637.164 263.873 672.281 262.222C703.266 260.836 725.473 256.531 746.961 260.846C748.367 261.099 749.762 261.447 751.152 261.795C776.594 267.577 809.652 261.288 880.941 251.464C894.992 249.512 907.957 247.909 919.328 246.289C970.906 239.085 997.539 229.738 1007.15 240.78C1016.4 251.408 1017.71 248.249 1006.11 266.104C1002.03 272.449 1005.72 276.12 992.254 286.714C942.652 325.778 928.922 331.512 918.918 351.768" stroke="#3A3A3A" stroke-opacity="1.000000" stroke-width="0.635000"/>
	<path id="Vector" d="M223.781 152.799C223.781 152.799 288.988 139.63 310.668 142.912C330.918 146.034 303.078 157.181 324.492 162.667C345.086 167.887 362.348 169.055 409.746 162.398C413.34 161.862 417.211 161.414 421.25 160.823C481.016 152.668 470.887 155.48 563.797 140.567C656.57 125.609 682.008 120.354 730.945 130.6C740.055 132.531 746.605 134.932 750.57 137.896C766.148 149.76 749.008 167.626 717.457 188.62C712.465 191.99 707.008 195.508 700.949 199.131C649.969 229.897 612.852 247.115 621.57 258.267C629.926 269.006 658.41 262.242 693.508 260.685C724.203 259.305 746.547 255.044 768.207 259.215C769.617 259.469 771.008 259.816 772.398 260.164C798.305 265.797 831.379 259.414 902.051 249.789C916.102 247.837 929.066 246.234 940.418 244.708C991.793 237.836 1017.96 228.637 1027.11 239.829C1035.89 250.606 1036.76 247.502 1025.89 265.296C1022.09 271.729 1026.84 275.147 1013.36 285.834C964.535 324.65 950.805 330.384 940.523 350.551" stroke="#3A3A3A" stroke-opacity="1.000000" stroke-width="0.635000"/>
	<path id="Vector" d="M246.859 151.46C246.859 151.46 311.621 138.346 333.332 141.44C353.617 144.374 326.398 155.323 347.832 160.715C368.441 165.841 386.027 166.815 432.945 160.402C436.68 159.91 440.41 159.418 444.434 158.921C504.148 151.047 493.363 154.246 585.344 139.631C676.879 125.071 702.766 119.761 751.273 129.968C760.246 131.855 766.793 134.256 770.621 137.176C786.062 148.996 769.234 166.763 738.164 187.514C733.188 190.789 727.871 194.352 721.965 197.925C671.777 228.348 634.969 245.466 643.84 256.57C652.352 267.258 680.668 260.639 715.762 259.081C746.32 257.657 768.648 253.49 790.477 257.517C791.887 257.771 793.281 258.118 794.828 258.416C821.039 263.95 854.582 257.418 924.492 247.947C938.68 246.04 951.496 244.486 962.828 243.054C1014.01 236.419 1039.7 227.464 1048.38 238.805C1056.86 249.681 1057.1 246.777 1047.29 264.41C1043.6 270.981 1049.42 274.144 1035.93 284.925C987.891 323.399 974.125 329.321 963.738 349.256" stroke="#3A3A3A" stroke-opacity="1.000000" stroke-width="0.635000"/>
	<path id="Vector" d="M270.062 150.259C270.062 150.259 334.234 137.156 356.258 140.151C376.715 142.941 350.113 153.691 371.582 158.895C392.363 163.878 409.969 164.758 456.559 158.538C460.293 158.046 464.023 157.554 467.895 157.106C527.398 149.565 516.113 153.101 606.719 138.839C697.172 124.627 723.195 119.361 771.445 129.386C780.418 131.273 786.828 133.63 790.656 136.55C805.961 148.326 789.457 165.899 758.852 186.501C753.879 189.776 748.715 193.289 742.809 196.862C693.414 226.943 656.914 243.962 665.926 255.109C674.59 265.748 702.73 259.272 737.984 257.665C768.387 256.29 790.867 252.073 812.715 256.007C814.125 256.261 815.516 256.608 816.926 256.862C843.605 262.247 877.164 255.621 946.609 246.299C960.645 244.441 973.594 242.932 984.93 241.5C1035.77 235.152 1061.12 226.39 1069.36 237.786C1077.38 248.812 1077.17 245.963 1068.1 263.535C1064.68 270.195 1071.28 273.109 1057.92 283.934C1010.68 322.065 996.895 328.081 986.391 347.879" stroke="#3A3A3A" stroke-opacity="1.000000" stroke-width="0.635000"/>
	<path id="Vector" d="M293.227 149.245C293.227 149.245 356.816 136.153 379.012 139.004C399.348 141.656 373.504 152.252 395.16 157.218C415.957 162.107 433.875 162.888 480 156.817C483.578 156.375 487.449 155.927 491.336 155.385C550.496 148.131 538.852 152.048 628.215 138.184C717.582 124.32 743.898 119.048 791.582 128.99C800.555 130.877 806.828 133.19 810.656 136.11C825.82 147.842 809.629 165.316 779.508 185.674C774.688 188.9 769.523 192.413 763.773 195.937C715.168 225.675 678.98 242.594 688.145 253.692C696.828 264.237 724.934 257.948 760.188 256.341C790.453 254.923 812.914 250.799 834.934 254.589C836.344 254.843 837.738 255.191 839.145 255.445C866.152 260.636 900 254.004 968.984 244.832C983.02 242.974 996.105 241.509 1007.29 240.127C1057.78 234.066 1082.68 225.453 1090.58 237.043C1098.13 248.218 1097.62 245.468 1089.15 262.935C1086.01 269.683 1093.67 272.343 1080.14 283.312C1033.82 321.145 1020.02 327.254 1009.26 346.87" stroke="#3A3A3A" stroke-opacity="1.000000" stroke-width="0.635000"/>
	<path id="Vector" d="M316.355 148.418C316.355 148.418 379.363 135.338 401.727 138.045C422.102 140.51 396.875 150.906 418.551 155.779C439.52 160.524 457.453 161.211 503.234 155.428C506.812 154.985 510.684 154.537 514.551 154.089C573.664 147.117 561.223 151.376 649.645 137.904C737.773 124.438 764.383 119.161 811.652 128.971C820.488 130.814 826.898 133.17 830.59 136.047C845.617 147.734 829.598 165.064 799.953 185.18C795.133 188.405 789.988 191.824 784.238 195.348C736.27 224.793 700.547 241.564 709.848 252.705C718.531 263.251 746.621 257.056 781.734 255.405C811.844 254.036 834.172 249.869 856.5 253.559C857.91 253.813 859.164 254.116 860.867 254.365C888.184 259.457 922.203 252.681 990.723 243.658C1004.76 241.8 1017.69 240.385 1028.99 239.14C1079.14 233.367 1103.71 224.948 1111.15 236.686C1118.39 247.96 1117.41 245.36 1109.84 262.716C1106.97 269.553 1115.55 272.009 1102.15 283.022C1056.63 320.512 1042.66 326.765 1031.77 346.242" stroke="#3A3A3A" stroke-opacity="1.000000" stroke-width="0.635000"/>
	<path id="Vector" d="M339.16 147.786C339.16 147.786 401.582 134.716 423.965 137.33C444.215 139.657 419.902 149.849 441.613 154.533C462.754 159.135 480.707 159.728 526.16 154.138C529.738 153.696 533.453 153.298 537.324 152.85C596.227 146.208 583.289 150.805 670.625 137.681C757.668 124.563 784.57 119.28 831.273 129.007C840.109 130.85 846.383 133.163 849.938 135.995C864.824 147.638 849.27 164.819 819.957 184.741C815.289 187.917 810.145 191.336 804.551 194.81C757.371 223.913 721.941 240.678 731.414 251.676C740.254 262.171 768.324 256.071 803.285 254.469C833.258 253.056 855.719 248.933 878.066 252.529C879.477 252.783 880.887 253.037 882.434 253.335C910.215 258.278 944.547 251.403 1012.31 242.535C1026.34 240.677 1039.41 239.305 1050.55 238.111C1100.65 232.619 1124.6 224.399 1131.6 236.192C1138.37 247.616 1136.93 245.164 1130.11 262.366C1127.37 269.341 1136.87 271.498 1123.6 282.649C1078.86 319.797 1065.01 326.188 1053.88 345.483" stroke="#3A3A3A" stroke-opacity="1.000000" stroke-width="0.635000"/>
	<path id="Vector" d="M361.477 147.395C361.477 147.395 423.453 134.381 445.871 136.807C466.293 138.99 442.602 148.983 464.191 153.53C485.211 157.993 503.629 158.438 548.602 153.09C552.18 152.648 555.895 152.25 559.746 151.896C618.441 145.586 604.852 150.569 691.102 137.793C776.91 125.073 804.102 119.784 850.391 129.379C859.09 131.178 865.363 133.49 868.918 136.322C883.668 147.921 868.285 164.959 839.59 184.682C834.926 187.858 829.934 191.227 824.34 194.702C777.953 223.462 742.832 240.127 752.305 251.125C761.297 261.571 789.199 255.614 824.16 254.012C853.977 252.649 876.441 248.526 898.961 251.979C900.367 252.233 901.777 252.486 903.324 252.784C931.57 257.578 965.918 250.609 1033.21 241.89C1047.39 240.077 1060.3 238.755 1071.59 237.604C1121.34 232.4 1144.96 224.373 1151.49 236.315C1157.8 247.888 1156.05 245.536 1149.97 262.677C1147.5 269.74 1158.07 271.643 1144.64 282.844C1100.7 319.649 1086.83 326.134 1075.57 345.291" stroke="#3A3A3A" stroke-opacity="1.000000" stroke-width="0.635000"/>
	<path id="Vector" d="M383.316 147.248C383.316 147.248 444.551 134.295 467.434 136.572C487.738 138.617 464.82 148.361 486.578 152.764C507.773 157.084 526.344 157.479 570.852 152.281C574.43 151.838 578.129 151.534 581.996 151.086C640.641 145.058 626.395 150.427 711.426 137.956C796.148 125.584 823.617 120.383 869.496 129.845C878.191 131.644 884.328 133.913 887.883 136.745C902.344 148.349 887.426 165.238 859.211 184.718C854.699 187.844 849.707 191.213 844.113 194.688C798.383 223.061 763.707 239.671 773.32 250.713C782.469 261.11 810.195 255.296 845.309 253.645C874.988 252.237 897.59 248.158 920.129 251.517C921.691 251.721 922.945 252.025 924.355 252.279C953.062 256.923 987.566 249.905 1054.4 241.335C1068.57 239.521 1081.47 238.293 1092.75 237.143C1142.16 232.225 1165.32 224.347 1171.52 236.484C1177.52 248.156 1175.31 245.953 1169.98 262.939C1167.79 270.09 1179.27 271.789 1165.82 283.084C1122.52 319.596 1108.77 326.219 1097.41 345.144" stroke="#3A3A3A" stroke-opacity="1.000000" stroke-width="0.635000"/>
	<path id="Vector" d="M404.359 147.443C404.359 147.443 465.008 134.5 488.062 136.634C508.402 138.491 486.238 148.081 508.035 152.296C529.402 156.472 547.988 156.773 592.016 151.818C595.594 151.376 599.293 151.071 603.145 150.717C661.445 144.976 646.836 150.727 730.785 138.603C814.422 126.579 842.184 121.373 887.492 130.753C896.055 132.507 902.188 134.776 905.742 137.608C920.066 149.168 905.473 165.863 877.723 185.195C873.215 188.321 868.379 191.64 862.938 195.065C817.996 223.096 783.633 239.606 793.398 250.599C802.703 260.945 830.258 255.275 865.371 253.624C894.762 252.222 917.496 248.187 940.207 251.403C941.773 251.607 943.027 251.91 944.59 252.114C973.473 256.615 1008.42 249.541 1074.65 241.076C1088.82 239.263 1101.86 238.079 1112.83 237.028C1161.9 232.398 1184.73 224.713 1190.33 236.954C1196 248.82 1193.34 246.672 1188.76 263.598C1186.84 270.837 1199.09 272.287 1185.92 283.67C1143.41 319.84 1129.64 326.557 1117.87 345.35" stroke="#3A3A3A" stroke-opacity="1.000000" stroke-width="0.635000"/>
	<path id="Vector" d="M424.77 147.93C424.77 147.93 484.832 134.999 508.062 136.989C528.281 138.708 507.027 148.093 528.703 152.171C550.09 156.253 568.848 156.41 612.547 151.649C616.109 151.3 619.824 150.902 623.52 150.598C681.613 145.188 666.508 151.275 749.215 139.549C831.613 127.923 859.668 122.711 904.719 131.909C913.281 133.664 919.277 135.888 922.832 138.72C937.016 150.236 922.734 166.832 895.469 185.92C891.113 188.996 886.277 192.316 880.836 195.74C836.531 223.479 802.633 239.84 812.535 250.877C821.992 261.173 849.379 255.647 884.355 253.952C913.742 252.55 936.324 248.565 959.207 251.636C960.773 251.84 962.027 252.144 963.59 252.348C992.934 256.7 1027.9 249.532 1093.67 241.216C1107.84 239.403 1120.72 238.269 1131.97 237.306C1180.69 232.963 1203.19 225.472 1208.49 237.812C1213.7 249.827 1210.72 247.779 1206.74 264.599C1205.09 271.927 1218.42 273.123 1204.94 284.605C1163.21 320.433 1149.41 327.337 1137.54 345.898" stroke="#3A3A3A" stroke-opacity="1.000000" stroke-width="0.635000"/>
	<path id="Vector" d="M443.801 148.772C443.801 148.772 503.129 135.902 526.684 137.698C547.074 139.274 526.305 148.416 548.152 152.349C569.707 156.288 588.777 156.346 631.996 151.827C635.555 151.479 639.254 151.175 642.969 150.776C701.008 145.648 685.109 152.078 766.871 140.745C848.051 129.422 876.379 124.299 921.02 133.364C929.441 135.074 935.438 137.299 938.855 140.087C952.902 151.559 938.793 168.011 912.145 186.9C907.789 189.976 903.109 193.246 897.824 196.621C854.312 224.017 820.859 240.323 830.781 251.266C840.102 261.518 867.758 256.08 902.578 254.434C931.676 253.038 954.414 249.003 977.449 252.025C979.016 252.229 980.426 252.483 981.836 252.737C1011.64 256.94 1046.92 249.673 1111.93 241.511C1126.1 239.698 1138.96 238.658 1150.21 237.695C1198.74 233.59 1220.77 226.341 1225.59 238.831C1230.34 250.995 1227.05 249.046 1223.83 265.712C1222.3 273.178 1236.7 274.119 1223.35 285.646C1182.42 321.131 1168.6 328.129 1156.61 346.552" stroke="#3A3A3A" stroke-opacity="1.000000" stroke-width="0.635000"/>
	<path id="Vector" d="M461.887 150.005C461.887 150.005 520.629 137.146 544.355 138.799C564.625 140.237 544.77 149.174 566.496 152.97C588.223 156.765 607.312 156.729 650.203 152.404C653.762 152.055 657.457 151.751 661.156 151.447C718.992 146.65 702.594 153.417 783.133 142.387C863.074 131.463 891.848 126.284 935.922 135.266C944.344 136.977 950.344 139.201 953.621 141.945C967.531 153.373 953.887 169.675 927.566 188.371C923.367 191.398 918.684 194.668 913.398 198.043C870.676 225.096 837.379 241.352 847.594 252.29C857.066 262.492 884.555 257.198 919.531 255.502C948.625 254.106 971.211 250.121 994.418 253C995.984 253.204 997.391 253.457 998.957 253.661C1029.23 257.715 1064.53 250.354 1128.92 242.392C1143.23 240.622 1156.09 239.582 1167.18 238.669C1215.37 234.851 1236.77 227.802 1241.29 240.391C1245.72 252.654 1241.98 250.854 1239.49 267.459C1238.38 275.058 1253.41 275.707 1240.18 287.371C1199.89 322.563 1186.34 329.65 1174.09 347.891" stroke="#3A3A3A" stroke-opacity="1.000000" stroke-width="0.635000"/>
	<path id="Vector" d="M478.598 151.593C478.598 151.593 536.754 138.745 560.789 140.298C581.094 141.548 561.996 150.331 583.758 153.939C605.656 157.591 624.898 157.505 667.324 153.329C670.887 152.98 674.43 152.725 678.125 152.421C735.906 147.906 718.855 155.059 798.16 144.428C877.016 133.851 905.926 128.716 949.586 137.566C957.875 139.233 963.871 141.457 967.148 144.201C980.922 155.585 967.449 171.744 941.75 190.241C937.547 193.268 933.02 196.488 927.891 199.813C885.824 226.479 852.973 242.68 863.34 253.568C872.969 263.721 900.148 258.526 935.262 256.875C964.066 255.484 986.941 251.493 1010.17 254.278C1011.73 254.482 1013.14 254.736 1014.7 254.94C1045.44 258.844 1080.89 251.433 1144.82 243.62C1158.97 241.901 1171.97 240.905 1183.05 240.085C1230.89 236.555 1251.96 229.698 1256.18 242.387C1260.14 254.799 1256.23 253.144 1254.36 269.549C1253.52 277.236 1269.62 277.631 1256.38 289.389C1216.88 324.239 1203.16 331.469 1190.78 349.572" stroke="#3A3A3A" stroke-opacity="1.000000" stroke-width="0.635000"/>
	<path id="Vector" d="M493.777 153.584C493.777 153.584 551.195 140.797 575.559 142.156C595.742 143.269 577.418 151.803 599.199 155.317C621.117 158.875 640.527 158.645 682.473 154.712C686.035 154.364 689.578 154.109 693.258 153.899C750.832 149.714 733.281 157.205 811.5 146.921C889.27 136.693 918.477 131.553 961.57 140.32C969.855 141.986 975.715 144.166 978.996 146.91C992.629 158.25 979.465 174.31 954.246 192.564C950.199 195.541 945.672 198.761 940.543 202.086C899.27 228.41 866.727 244.511 877.234 255.443C887.016 265.546 914.023 260.495 949.137 258.844C977.941 257.453 1000.66 253.512 1024.06 256.153C1025.48 256.313 1026.89 256.567 1028.46 256.771C1059.66 260.526 1095.27 253.065 1158.59 245.357C1172.75 243.638 1185.75 242.642 1196.8 241.917C1244.3 238.673 1265.05 232.01 1268.79 244.848C1272.3 257.409 1268.07 255.853 1266.95 272.198C1266.38 279.973 1283.39 280.163 1269.99 291.971C1231.28 326.478 1217.68 333.847 1205.05 351.767" stroke="#3A3A3A" stroke-opacity="1.000000" stroke-width="0.635000"/>
	<path id="Vector" d="M507.562 156.022C507.562 156.022 564.531 143.29 588.93 144.462C609.133 145.48 591.582 153.766 613.395 157.092C635.348 160.463 655.07 160.133 696.535 156.443C700.094 156.095 703.617 155.934 707.316 155.63C764.684 151.777 746.633 159.605 823.77 149.669C900.301 139.838 929.801 134.693 972.617 143.371C980.902 145.038 986.625 147.174 989.77 149.873C1003.13 161.125 990.43 177.035 965.535 195.096C961.492 198.073 957.117 201.243 951.852 204.524C911.211 230.556 879.137 246.508 889.797 257.39C899.734 267.444 926.566 262.536 961.543 260.84C990.055 259.455 1012.91 255.558 1036.48 258.056C1037.91 258.216 1039.32 258.47 1041.04 258.624C1072.57 262.186 1108.33 254.676 1171.19 247.117C1185.34 245.397 1198.33 244.495 1209.38 243.77C1256.54 240.813 1276.96 234.344 1280.1 247.286C1283.3 259.947 1278.76 258.49 1278.08 274.78C1277.79 282.643 1295.57 282.585 1282.45 294.481C1244.53 328.646 1230.77 336.158 1218.16 353.891" stroke="#3A3A3A" stroke-opacity="1.000000" stroke-width="0.635000"/>
	<path id="Vector" d="M519.371 158.919C519.371 158.919 575.754 146.198 600.324 147.227C620.562 148.057 603.766 156.188 625.617 159.326C647.742 162.553 667.621 162.174 708.617 158.633C712.023 158.335 715.703 158.124 719.383 157.914C776.699 154.343 757.859 162.513 833.891 153.019C909.34 143.536 939.129 138.385 981.383 146.981C989.531 148.603 995.25 150.739 998.395 153.439C1011.62 164.646 999.227 180.457 974.816 198.275C970.926 201.202 966.555 204.372 961.441 207.604C921.594 233.292 889.824 249.146 900.625 260.072C910.562 270.125 937.379 265.311 972.512 263.566C1000.73 262.186 1023.88 258.284 1047.47 260.688C1048.89 260.848 1050.46 261.052 1052.02 261.256C1084.02 264.668 1120.09 257.059 1182.19 249.655C1196.48 247.979 1209.31 247.127 1220.5 246.446C1267.47 243.727 1287.27 237.456 1290.09 250.592C1292.82 263.402 1288.11 262.089 1288.05 278.18C1288.17 286.175 1306.88 285.819 1293.59 297.859C1256.3 331.731 1242.81 339.331 1229.96 356.882" stroke="#3A3A3A" stroke-opacity="1.000000" stroke-width="0.635000"/>
	<path id="Vector" d="M528.875 162.468C528.875 162.468 584.52 149.808 609.418 150.644C629.535 151.336 613.668 159.169 635.379 162.263C657.52 165.396 677.57 164.873 718.379 161.57C721.785 161.271 725.465 161.061 728.992 160.9C786.102 157.66 766.758 166.167 841.57 156.977C915.781 147.892 945.863 142.735 987.859 151.149C996.004 152.771 1001.59 154.863 1004.89 157.513C1017.97 168.676 1005.75 184.344 981.965 201.963C978.074 204.89 973.855 208.011 968.742 211.242C929.688 236.588 898.211 252.436 909.184 263.218C919.277 273.222 946.074 268.502 981.051 266.806C1009.27 265.427 1032.13 261.53 1056.03 263.834C1057.45 263.994 1059.02 264.198 1060.58 264.402C1093.04 267.666 1129.27 260.006 1190.9 252.751C1205.2 251.076 1218.02 250.223 1229.05 249.686C1275.66 247.254 1295.14 241.177 1297.51 254.368C1299.77 267.328 1294.75 266.114 1295.43 282.144C1295.68 290.277 1315.32 289.622 1302.16 301.706C1265.54 335.192 1252.16 342.93 1239.03 360.393" stroke="#3A3A3A" stroke-opacity="1.000000" stroke-width="0.635000"/>
	<path id="Vector" d="M535.938 166.626C535.938 166.626 591 153.977 616.207 154.713C636.34 155.311 621.246 162.895 642.996 165.802C665.309 168.791 685.516 168.219 725.859 165.065C729.402 164.81 732.926 164.649 736.449 164.489C793.508 161.53 773.516 170.424 847.242 161.582C920.367 152.845 950.742 147.683 992.168 156.014C1000.18 157.592 1005.77 159.684 1009.06 162.334C1022.01 173.453 1010.26 188.971 986.793 206.397C982.918 209.23 978.84 212.395 973.883 215.576C935.48 240.536 904.453 256.328 915.559 267.155C925.672 277.065 952.434 272.533 987.41 270.837C1015.34 269.463 1038.33 265.61 1062.4 267.771C1063.98 267.881 1065.39 268.135 1067.11 268.289C1100.04 271.404 1136.28 263.65 1197.45 256.545C1211.74 254.869 1224.55 254.11 1235.58 253.573C1281.71 251.384 1301 245.544 1302.91 258.885C1304.71 271.994 1299.52 270.923 1300.66 286.804C1301.18 295.026 1321.73 294.167 1308.55 306.345C1272.72 339.487 1259.31 347.413 1246.08 364.644" stroke="#3A3A3A" stroke-opacity="1.000000" stroke-width="0.635000"/>
	<path id="Vector" d="M542.051 171.97C542.051 171.97 596.371 159.382 621.906 159.924C641.918 160.385 627.738 167.764 649.363 170.533C671.852 173.378 692.211 172.756 731.938 169.801C735.477 169.547 739.004 169.386 742.527 169.225C799.379 166.598 778.887 175.829 851.375 167.385C923.418 158.996 953.93 153.878 994.945 162.076C1002.95 163.654 1008.54 165.746 1011.7 168.352C1024.51 179.427 1012.93 194.802 990.082 212.028C986.211 214.862 982.285 217.977 977.328 221.158C939.715 245.775 909 261.468 920.262 272.245C930.527 282.105 957.117 277.716 991.957 275.977C1019.88 274.603 1042.88 270.75 1066.96 272.817C1068.55 272.927 1069.96 273.181 1071.54 273.291C1104.93 276.256 1141.32 268.453 1201.89 261.452C1216.19 259.777 1229.14 259.062 1240.14 258.619C1285.93 256.717 1304.89 251.071 1306.33 264.561C1307.82 277.769 1302.46 276.842 1304.21 292.618C1305 300.928 1326.62 299.814 1313.43 312.086C1278.23 344.936 1264.96 352.906 1251.6 369.999" stroke="#3A3A3A" stroke-opacity="1.000000" stroke-width="0.635000"/>
	<path id="Vector" d="M547.055 177.754C547.055 177.754 600.793 165.177 626.5 165.576C646.547 165.849 632.984 173.03 654.785 175.654C677.441 178.356 697.977 177.591 737.219 174.879C740.762 174.624 744.133 174.513 747.656 174.352C804.301 172.057 783.152 181.674 854.715 173.528C925.379 165.493 956.32 160.413 996.922 168.48C1004.8 170.013 1010.38 172.105 1013.4 174.667C1026.07 185.698 1014.8 200.973 992.441 217.957C988.723 220.74 984.66 223.811 979.996 226.987C943.02 251.311 912.766 266.855 924.168 277.676C934.59 287.487 961.008 283.241 996 281.452C1023.64 280.084 1046.77 276.275 1071.03 278.198C1072.61 278.308 1074.17 278.512 1075.6 278.672C1109.45 281.488 1146 273.636 1205.97 266.74C1220.4 265.109 1233.2 264.444 1244.2 264C1289.8 262.336 1308.14 256.889 1309.27 270.478C1310.3 283.835 1304.63 283.008 1306.98 298.678C1308.18 307.121 1330.44 305.715 1317.37 318.125C1282.96 350.632 1269.81 358.741 1256.2 375.651" stroke="#3A3A3A" stroke-opacity="1.000000" stroke-width="0.635000"/>
	<path id="Vector" d="M550.742 183.612C550.742 183.612 603.879 171.14 629.617 171.351C649.684 171.53 636.898 178.462 658.73 180.899C681.562 183.457 702.25 182.642 741.027 180.079C744.414 179.874 748.078 179.758 751.449 179.647C808.039 177.633 786.102 187.592 856.715 179.839C926.297 172.152 957.668 167.111 997.703 175.094C1005.57 176.628 1011.02 178.676 1014.05 181.237C1026.58 192.224 1015.64 207.306 993.738 224.14C990.02 226.924 986.109 229.945 981.445 233.121C945.266 257.103 915.32 272.547 926.875 283.318C937.297 293.129 963.695 288.978 998.691 287.188C1026.32 285.82 1049.3 282.061 1073.73 283.841C1075.32 283.951 1076.88 284.155 1078.46 284.265C1112.64 286.888 1149.64 278.98 1208.99 272.283C1223.42 270.652 1236.06 270.037 1247.19 269.731C1292.45 268.354 1310.46 263.1 1311.12 276.838C1311.68 290.345 1306 289.611 1308.79 305.227C1310.27 313.758 1333.43 312.147 1320.36 324.557C1286.46 356.727 1273.43 364.974 1259.56 381.702" stroke="#3A3A3A" stroke-opacity="1.000000" stroke-width="0.635000"/>
	<path id="Vector" d="M553.691 189.531C553.691 189.531 606.086 177.12 632.152 177.138C652.098 177.179 640.223 183.906 661.938 186.205C684.785 188.67 705.645 187.711 744.094 185.341C747.484 185.136 750.992 185.069 754.516 184.909C810.902 183.226 788.461 193.523 857.699 186.123C926.043 178.834 957.707 173.787 997.332 181.638C1005.07 183.128 1010.51 185.175 1013.54 187.737C1025.93 198.679 1015.3 213.662 993.883 230.253C990.316 232.987 986.41 236.008 981.746 239.184C946.215 262.78 916.719 278.168 928.41 288.984C938.988 298.745 965.371 294.687 1000.21 292.948C1027.55 291.585 1050.82 287.821 1075.27 289.506C1076.86 289.616 1078.42 289.82 1080 289.931C1114.64 292.404 1151.66 284.402 1210.55 277.855C1224.82 276.273 1237.75 275.652 1248.72 275.397C1293.64 274.307 1311.32 269.246 1311.52 283.133C1311.78 296.739 1305.76 296.199 1309.17 311.616C1311.07 320.279 1335.02 318.326 1321.92 330.923C1288.8 362.752 1275.89 371.136 1261.77 387.682" stroke="#3A3A3A" stroke-opacity="1.000000" stroke-width="0.635000"/>
	<path id="Vector" d="M555.332 195.429C555.332 195.429 607.145 183.029 633.52 182.947C653.348 182.85 642.246 189.329 664.133 191.485C687.152 193.806 708.164 192.797 746.152 190.577C749.539 190.372 753.047 190.305 756.555 190.238C812.887 188.837 789.797 199.52 857.949 192.469C925.211 185.527 957.168 180.475 996.375 188.194C1004.11 189.683 1009.42 191.687 1012.44 194.248C1024.7 205.147 1014.24 219.986 993.445 236.378C989.879 239.112 986.125 242.083 981.617 245.21C946.879 268.462 917.676 283.846 929.539 294.518C940.27 304.229 966.48 300.315 1001.32 298.575C1028.53 297.168 1051.78 293.498 1076.25 295.09C1077.83 295.2 1079.25 295.36 1080.97 295.514C1116.08 297.838 1153.25 289.787 1211.54 283.344C1225.81 281.762 1238.73 281.236 1249.7 280.98C1294.29 280.083 1311.62 275.31 1311.22 289.302C1311.01 303.057 1304.84 302.567 1308.7 317.928C1310.87 326.68 1335.74 324.522 1322.61 337.214C1290.15 368.655 1277.21 377.227 1263.12 393.586" stroke="#3A3A3A" stroke-opacity="1.000000" stroke-width="0.635000"/>
	<path id="Vector" d="M556.375 201.431C556.375 201.431 607.445 189.093 634.148 188.818C653.992 188.627 643.664 194.857 665.43 196.874C688.625 199.052 709.793 197.993 747.297 196.016C750.684 195.811 754.039 195.794 757.547 195.727C813.809 194.702 790.078 205.678 857.148 198.974C923.172 192.431 955.422 187.373 994.219 194.959C1001.8 196.498 1007.12 198.408 1010.01 200.925C1022.13 211.779 1012.14 226.469 991.527 242.624C988.117 245.308 984.363 248.28 979.719 251.362C945.773 274.272 916.875 289.556 928.879 300.272C939.766 309.934 965.805 306.163 1000.66 304.33C1027.71 302.972 1050.98 299.208 1075.6 300.75C1077.18 300.86 1078.61 301.02 1080.35 301.081C1116.07 303.206 1153.25 295.155 1210.77 288.867C1225.18 287.329 1237.96 286.758 1249.05 286.64C1293.3 286.031 1310.17 281.407 1309.6 295.543C1308.92 309.447 1302.58 309.1 1307.04 324.356C1309.48 333.196 1335.13 330.79 1322.14 343.526C1290.32 374.675 1277.64 383.335 1263.3 399.511" stroke="#3A3A3A" stroke-opacity="1.000000" stroke-width="0.635000"/>
	<path id="Vector" d="M556.715 207.309C556.715 207.309 607.047 195.031 634.078 194.562C653.801 194.233 644.387 200.259 666.188 202.089C689.414 204.078 711.027 202.965 747.914 201.186C751.441 201.025 754.793 201.008 758.145 200.991C814.203 200.297 789.836 211.566 855.805 205.304C920.742 199.109 953.285 194.045 991.516 201.549C998.957 203.044 1004.29 204.954 1007.17 207.471C1019.15 218.281 1009.33 232.827 989.34 248.783C985.93 251.467 982.332 254.389 977.84 257.421C944.531 280.039 916.102 295.174 928.258 305.84C939.16 315.408 965.164 311.825 1000.02 309.992C1026.93 308.59 1050.19 304.92 1074.98 306.318C1076.56 306.428 1078.14 306.538 1079.73 306.649C1115.78 308.581 1153.24 300.524 1210.3 294.385C1224.72 292.847 1237.48 292.37 1248.41 292.302C1292.31 291.98 1308.86 287.549 1307.82 301.834C1306.68 315.888 1300.32 315.635 1305.25 330.742C1308.26 339.665 1334.68 337.01 1321.52 349.889C1290.48 380.695 1277.8 389.449 1263.17 405.537" stroke="#3A3A3A" stroke-opacity="1.000000" stroke-width="0.635000"/>
	<path id="Vector" d="M556.469 213.196C556.469 213.196 606.355 200.973 633.422 200.317C653.023 199.85 644.535 205.578 666.199 207.363C689.598 209.209 711.23 208.002 747.789 206.417C751.316 206.256 754.668 206.239 758.023 206.222C814.027 205.809 789.008 217.465 853.891 211.551C917.609 205.659 950.426 200.684 988.242 208.055C995.684 209.55 1001.01 211.46 1003.76 213.933C1015.45 224.749 1006.09 239.146 986.582 254.859C983.328 257.493 979.73 260.415 975.238 263.447C942.582 285.678 914.602 300.758 926.895 311.468C937.797 321.036 963.648 317.503 998.641 315.714C1025.4 314.362 1048.65 310.692 1073.62 311.946C1075.2 312.057 1076.78 312.167 1078.36 312.277C1114.88 314.06 1152.5 305.953 1208.96 299.919C1223.38 298.382 1236.11 297.999 1247.05 297.931C1290.62 297.802 1306.83 293.658 1305.19 308.048C1303.74 322.201 1297.2 322.092 1302.58 337.143C1305.87 346.154 1333.05 343.251 1320.17 356.218C1289.64 386.688 1277.21 395.624 1262.48 411.48" stroke="#3A3A3A" stroke-opacity="1.000000" stroke-width="0.635000"/>
	<path id="Vector" d="M556.086 219.04C556.086 219.04 605.23 206.878 632.762 206.073C652.535 205.462 644.668 210.991 666.367 212.589C689.938 214.291 711.727 213.034 747.82 211.598C751.191 211.487 754.543 211.47 757.895 211.453C813.691 211.372 788.176 223.364 851.84 217.754C914.316 212.26 947.578 207.23 984.965 214.562C992.273 216.013 997.598 217.923 1000.35 220.396C1011.9 231.168 1002.87 245.371 983.824 260.935C980.57 263.57 977.129 266.442 972.789 269.424C940.926 291.313 913.254 306.293 925.703 316.953C936.762 326.471 962.438 323.082 997.434 321.293C1024.05 319.897 1047.44 316.271 1072.43 317.431C1074.01 317.542 1075.59 317.652 1077.32 317.712C1114.31 319.346 1151.95 311.145 1207.94 305.261C1222.35 303.723 1235.09 303.34 1246.15 303.41C1289.38 303.569 1305.12 299.574 1303.3 314.108C1301.39 328.41 1294.55 328.4 1300.52 343.346C1304.23 352.49 1332.19 349.338 1319.29 362.399C1289.54 392.526 1277.1 401.556 1262.25 417.274" stroke="#3A3A3A" stroke-opacity="1.000000" stroke-width="0.635000"/>
	<path id="Vector" d="M555.137 224.801C555.137 224.801 603.543 212.7 631.402 211.702C651.055 210.953 644.102 216.277 665.832 217.687C689.578 219.246 711.52 217.939 746.992 216.702C750.363 216.591 753.855 216.618 757.055 216.651C812.645 216.901 786.625 229.23 849.051 224.018C910.445 218.872 943.844 213.886 980.82 221.086C988.125 222.537 993.316 224.403 996.062 226.876C1007.48 237.603 998.758 251.707 980.195 267.028C977.098 269.613 973.652 272.485 969.316 275.468C938.242 297.014 910.727 311.944 923.465 322.599C934.68 332.067 960.34 328.772 995.332 326.982C1021.8 325.636 1045.19 322.01 1070.34 323.027C1072.08 323.088 1073.51 323.248 1075.25 323.308C1112.71 324.699 1150.48 316.542 1205.88 310.763C1220.43 309.269 1233.01 308.936 1243.91 309.056C1286.8 309.501 1302.21 305.7 1299.93 320.383C1297.55 334.834 1290.7 334.918 1297.27 349.76C1301.25 358.992 1329.98 355.591 1317.22 368.696C1287.98 398.486 1275.81 407.605 1260.84 423.185" stroke="#3A3A3A" stroke-opacity="1.000000" stroke-width="0.635000"/>
	<path id="Vector" d="M554.207 230.469C554.207 230.469 602.164 218.424 630.059 217.237C649.73 216.395 643.41 221.426 665.16 222.742C688.922 224.207 711.176 222.801 746.184 221.713C749.555 221.602 752.891 221.679 756.09 221.711C811.609 222.337 784.664 234.964 846.297 230.095C906.453 225.347 940.301 220.306 976.707 227.423C983.875 228.83 989.066 230.695 991.676 233.124C1002.95 243.807 994.402 257.768 976.461 272.89C973.363 275.475 970.074 278.297 965.734 281.28C935.316 302.439 908.383 317.358 920.988 327.969C932.355 337.387 957.844 334.236 992.699 332.402C1019.03 331.012 1042.4 327.479 1067.73 328.353C1069.46 328.414 1070.89 328.574 1072.49 328.59C1110.42 329.832 1148.5 321.576 1203.28 315.995C1217.83 314.501 1230.55 314.212 1241.3 314.382C1283.86 315.021 1298.92 311.506 1296.05 326.294C1293.2 340.895 1286.32 341.072 1293.21 355.815C1297.6 365.179 1327.27 361.48 1314.33 374.729C1285.74 404.132 1273.67 413.483 1258.45 428.881" stroke="#3A3A3A" stroke-opacity="1.000000" stroke-width="0.635000"/>
	<path id="Vector" d="M553.297 236.043C553.297 236.043 600.516 224.059 628.734 222.679C648.285 221.698 642.879 226.525 664.664 227.654C688.598 228.975 711.004 227.519 745.688 226.624C749.059 226.513 752.395 226.59 755.73 226.667C811.199 227.574 783.598 240.588 844.148 236.067C903.219 231.667 937.203 226.67 973.352 233.605C980.52 235.012 985.73 236.783 988.184 239.262C999.324 249.901 991.238 263.713 973.625 278.641C970.68 281.176 967.391 283.998 963.207 286.931C933.426 307.798 906.957 322.568 919.855 333.173C931.379 342.542 956.691 339.534 991.551 337.7C1017.59 336.315 1041.11 332.733 1066.59 333.557C1068.33 333.618 1069.91 333.728 1071.51 333.744C1109.91 334.837 1148.14 326.531 1202.32 321.055C1216.87 319.562 1229.44 319.323 1240.46 319.58C1282.67 320.506 1297.41 317.185 1294.07 332.123C1290.91 346.822 1283.86 347.144 1291.22 361.737C1295.88 371.19 1326.32 367.242 1313.66 380.579C1285.71 409.69 1273.78 419.085 1258.43 434.344" stroke="#3A3A3A" stroke-opacity="1.000000" stroke-width="0.635000"/>
	<path id="Vector" d="M552.57 241.381C552.57 241.381 599.188 229.501 627.598 227.884C647.168 226.809 642.688 231.338 664.199 232.378C688.305 233.556 710.727 232.006 745.086 231.304C748.594 231.238 751.773 231.364 754.973 231.397C810.234 232.635 782.133 245.986 841.445 241.863C899.277 237.861 933.555 232.858 969.293 239.66C976.324 241.023 981.531 242.795 983.984 245.274C994.988 255.868 987.074 269.536 970.082 284.266C967.289 286.751 964.004 289.574 959.82 292.506C930.828 313.031 904.668 327.701 917.566 338.306C928.953 347.631 954.387 344.761 989.242 342.927C1015.28 341.543 1038.65 338.01 1064.3 338.691C1065.91 338.707 1067.62 338.861 1069.22 338.878C1108.1 339.727 1146.48 331.465 1200.05 326.095C1214.44 324.651 1227.15 324.456 1238.17 324.713C1280.19 325.877 1294.31 322.755 1290.8 337.836C1287.18 352.685 1280.11 353.1 1287.91 367.638C1293.14 377.173 1324.2 373.027 1311.39 386.414C1284.09 415.138 1272.26 424.764 1256.81 439.792" stroke="#3A3A3A" stroke-opacity="1.000000" stroke-width="0.635000"/>
	<path id="Vector" d="M552.164 246.619C552.164 246.619 598.043 234.8 626.914 233.033C646.363 231.821 642.66 236.101 664.34 236.997C688.617 238.031 711.199 236.432 745.09 235.88C748.598 235.813 751.777 235.939 754.961 236.066C810.152 237.68 781.414 251.324 839.508 247.504C896.117 243.806 930.824 238.842 965.996 245.561C973.023 246.924 978.094 248.652 980.551 251.131C991.418 261.681 983.812 275.25 967.301 289.736C964.508 292.222 961.375 294.994 957.348 297.877C929.012 318.015 903.145 332.68 916.488 343.23C928.027 352.505 953.293 349.778 988.305 347.895C1014.05 346.516 1037.56 343.027 1063.38 343.564C1064.98 343.58 1066.56 343.691 1068.3 343.751C1107.64 344.451 1146.17 336.14 1199.14 330.874C1213.67 329.475 1226.38 329.28 1237.23 329.681C1278.77 331.088 1292.7 328.203 1288.59 343.389C1284.5 358.387 1277.26 358.946 1285.53 373.334C1291.03 382.958 1322.87 378.563 1310.33 392.038C1283.66 420.469 1271.97 430.14 1256.4 445.03" stroke="#3A3A3A" stroke-opacity="1.000000" stroke-width="0.635000"/>
	<path id="Vector" d="M552.074 251.663C552.074 251.663 597.504 239.899 626.41 237.945C645.879 236.639 642.949 240.67 664.664 241.379C688.977 242.225 711.848 240.62 745.121 240.267C748.473 240.25 751.652 240.376 754.988 240.453C809.977 242.399 780.602 256.335 837.59 252.957C892.965 249.657 927.965 244.687 962.723 251.274C969.613 252.593 974.82 254.365 977.137 256.799C987.867 267.306 980.727 280.725 964.406 294.974C961.77 297.41 958.5 300.138 954.469 303.021C926.926 322.816 901.367 337.382 914.711 347.932C926.406 357.157 951.652 354.524 986.512 352.691C1012.25 351.312 1035.77 347.823 1061.61 348.266C1063.21 348.283 1064.79 348.393 1066.68 348.404C1106.35 348.911 1145.17 340.594 1197.54 335.433C1212.07 334.034 1224.62 333.888 1235.61 334.333C1276.96 335.978 1290.41 333.336 1285.83 348.671C1281.44 363.768 1274.02 364.471 1282.89 378.755C1288.81 388.511 1321.57 383.817 1308.86 397.436C1282.7 425.531 1271.42 435.334 1255.3 450.047" stroke="#3A3A3A" stroke-opacity="1.000000" stroke-width="0.635000"/>
	<path id="Vector" d="M552.609 256.508C552.609 256.508 597.297 244.805 626.535 242.658C645.879 241.214 643.879 244.947 665.457 245.611C689.941 246.314 712.969 244.659 745.777 244.455C749.129 244.438 752.449 244.608 755.629 244.735C810.41 247.012 780.535 261.285 836.441 258.256C890.73 255.303 926.023 250.328 960.348 256.877C967.242 258.195 972.312 259.923 974.492 262.313C985.086 272.775 978.117 286.051 962.41 300.102C959.777 302.537 956.66 305.216 952.785 308.049C925.879 327.551 900.785 341.968 914.422 352.512C926.273 361.688 951.348 359.199 986.066 357.321C1011.52 355.947 1035.16 352.503 1061.18 352.803C1062.78 352.819 1064.52 352.879 1066.11 352.896C1106.4 353.204 1145.22 344.887 1197.12 339.875C1211.66 338.476 1224.35 338.374 1235.18 338.869C1276.05 340.757 1289.31 338.352 1284.42 353.787C1279.56 369.034 1272 369.786 1281.31 384.014C1287.66 393.809 1321.04 388.917 1308.46 402.58C1282.95 430.287 1271.64 440.278 1255.56 454.804" stroke="#3A3A3A" stroke-opacity="1.000000" stroke-width="0.635000"/>
	<path id="Vector" d="M553.766 261.155C553.766 261.155 597.855 249.557 627.125 247.222C646.488 245.684 645.262 249.168 666.875 249.645C691.531 250.204 714.711 248.5 747.055 248.445C750.41 248.428 753.727 248.598 756.754 248.774C811.465 251.427 780.953 265.993 835.773 263.311C888.98 260.707 924.547 255.82 958.324 262.192C965.219 263.511 970.148 265.194 972.328 267.585C982.785 278.003 976.125 291.179 960.902 304.986C958.285 307.328 955.309 310.051 951.434 312.884C925.18 332 900.672 346.405 914.172 356.905C926.02 366.081 951.078 363.686 985.797 361.808C1011.25 360.434 1034.74 357.04 1060.93 357.196C1062.53 357.212 1064.27 357.273 1065.86 357.289C1106.61 357.448 1145.45 349.037 1196.74 344.224C1211.27 342.825 1223.94 342.817 1234.91 343.357C1275.59 345.481 1288.23 343.276 1282.88 358.86C1277.55 374.256 1269.97 375.102 1279.73 389.275C1286.49 399.202 1320.65 394.061 1308.06 407.818C1283.18 435.233 1272.14 445.312 1255.8 459.655" stroke="#3A3A3A" stroke-opacity="1.000000" stroke-width="0.635000"/>
	<path id="Vector" d="M555.848 265.503C555.848 265.503 599.195 253.966 628.793 251.438C648.176 249.806 647.723 253.042 669.215 253.38C694.043 253.796 717.379 252.042 749.398 252.18C752.75 252.163 755.914 252.383 758.938 252.559C813.441 255.543 782.141 270.452 836.016 268.162C887.844 265.912 923.996 261.013 957.207 267.303C963.961 268.577 968.895 270.261 971.23 272.601C981.547 282.975 975.215 295.958 960.457 309.616C957.84 311.958 955.016 314.631 951.141 317.465C925.68 336.238 901.48 350.543 915.273 361.038C927.277 370.164 952.16 367.912 987.035 365.985C1012.2 364.617 1035.98 361.217 1062.18 361.279C1063.79 361.295 1065.52 361.356 1067.12 361.372C1108.35 361.288 1147.33 352.921 1198.01 348.214C1212.68 346.858 1225.21 346.806 1236.01 347.489C1276.21 349.857 1288.66 347.889 1282.84 363.622C1277.06 379.167 1269.46 380.107 1279.68 394.131C1287.01 404.141 1321.65 398.757 1309.33 412.602C1285.11 439.63 1274.04 449.897 1257.73 464.053" stroke="#3A3A3A" stroke-opacity="1.000000" stroke-width="0.635000"/>
	<path id="Vector" d="M558.996 269.597C558.996 269.597 601.746 258.165 631.668 255.444C650.93 253.674 651.25 256.661 672.918 256.856C697.918 257.128 721.41 255.324 752.961 255.611C756.449 255.638 759.613 255.859 762.641 256.035C817.09 259.3 785.137 274.596 837.789 272.61C888.535 270.708 924.824 265.853 957.777 271.961C964.531 273.235 969.328 274.874 971.66 277.215C981.84 287.545 975.82 300.428 961.543 313.844C959.082 316.136 956.258 318.809 952.539 321.592C927.867 340.023 903.824 354.279 917.77 364.724C929.793 373.756 954.641 371.692 989.516 369.765C1014.67 368.396 1038.17 365.002 1064.68 364.965C1066.28 364.981 1068.02 365.041 1069.77 365.008C1111.33 364.73 1150.6 356.358 1200.68 351.756C1215.35 350.4 1227.87 350.442 1238.66 351.125C1278.67 353.731 1290.64 352.006 1284.36 367.888C1278.27 383.532 1270.49 384.616 1281.02 398.54C1288.62 408.639 1324.33 403 1311.84 416.989C1288.12 443.68 1277.46 454.08 1260.74 468.103" stroke="#3A3A3A" stroke-opacity="1.000000" stroke-width="0.635000"/>
	<path id="Vector" d="M563.211 273.437C563.211 273.437 605.219 262.066 635.469 259.151C654.746 257.287 656 259.976 677.391 260.083C702.562 260.211 726.207 258.357 757.141 258.844C760.477 258.921 763.641 259.141 766.668 259.317C821.047 262.958 788.457 278.546 840.027 276.909C889.531 275.404 926.27 270.494 958.652 276.519C965.273 277.749 970.066 279.388 972.262 281.685C982.305 291.971 976.457 304.711 962.801 317.927C960.336 320.219 957.668 322.842 953.949 325.626C929.777 343.72 906.336 357.871 920.574 368.31C932.75 377.292 957.43 375.372 992.301 373.445C1017.17 372.082 1040.95 368.682 1067.48 368.551C1069.24 368.517 1070.82 368.627 1072.57 368.594C1114.75 368.118 1154.02 359.745 1203.64 355.292C1218.31 353.937 1230.96 354.023 1241.74 354.8C1281.27 357.648 1292.76 356.166 1286.32 372.098C1279.76 387.892 1271.97 389.069 1282.95 402.938C1291.12 413.119 1327.31 407.238 1314.96 421.271C1291.73 447.625 1281.35 458.113 1264.51 471.998" stroke="#3A3A3A" stroke-opacity="1.000000" stroke-width="0.635000"/>
	<path id="Vector" d="M568.66 276.879C568.66 276.879 610.223 265.563 640.508 262.46C659.664 260.458 661.691 262.898 683.254 262.861C708.461 262.802 732.398 260.943 762.867 261.578C766.203 261.655 769.367 261.875 772.375 262.145C826.551 266.118 793.32 281.999 843.789 280.803C892.074 279.602 929.086 274.781 961.059 280.673C967.676 281.903 972.336 283.498 974.531 285.795C984.281 296.086 979.051 308.627 965.723 321.65C963.414 323.892 960.746 326.516 957.18 329.25C933.801 347.001 910.668 361.052 924.906 371.492C937.238 380.424 961.898 378.598 996.48 376.676C1021.21 375.269 1044.98 371.963 1071.68 371.688C1073.44 371.655 1075.17 371.715 1076.63 371.688C1119.14 371.018 1158.7 362.64 1207.71 358.292C1222.37 357.03 1234.89 357.073 1245.8 357.893C1285.14 360.979 1296.14 359.74 1289.24 375.821C1282.22 391.764 1274.41 393.035 1285.86 406.755C1294.3 417.025 1331.26 410.895 1319.03 425.066C1296.6 451.078 1286.18 461.753 1269.24 475.406" stroke="#3A3A3A" stroke-opacity="1.000000" stroke-width="0.635000"/>
	<path id="Vector" d="M575.477 280.061C575.477 280.061 616.434 268.85 646.91 265.51C666.086 263.414 668.883 265.606 690.48 265.381C715.859 265.178 740.09 263.313 769.957 264.054C773.293 264.13 776.301 264.401 779.465 264.621C833.57 268.969 799.707 285.142 849.09 284.295C896.137 283.492 933.594 278.615 965.137 284.469C971.617 285.655 976.414 287.294 978.473 289.547C988.086 299.794 983.027 312.191 970.316 325.015C968.008 327.257 965.496 329.831 961.93 332.565C939.207 349.93 916.52 363.926 930.914 374.316C943.246 383.248 967.887 381.515 1002.62 379.544C1027.2 378.187 1050.96 374.881 1077.84 374.462C1079.6 374.429 1081.2 374.445 1082.95 374.412C1125.92 373.593 1165.64 365.165 1214.05 360.922C1228.7 359.661 1241.36 359.747 1251.96 360.667C1290.97 363.946 1301.64 362.995 1294.27 379.225C1286.78 395.317 1279.11 396.632 1290.85 410.347C1299.86 420.699 1337.44 414.37 1325.34 428.585C1303.41 454.26 1293.27 465.024 1276.21 478.539" stroke="#3A3A3A" stroke-opacity="1.000000" stroke-width="0.635000"/>
	<path id="Vector" d="M583.812 282.839C583.812 282.839 624.172 271.733 654.836 268.155C674.027 265.966 677.621 267.815 699.078 267.546C724.633 267.2 749.016 265.285 778.418 266.175C781.754 266.251 784.898 266.566 787.91 266.836C841.652 271.565 807.305 287.981 855.742 287.526C901.707 287.071 939.301 282.239 970.434 287.96C976.914 289.146 981.57 290.741 983.629 292.993C993.105 303.196 988.512 315.445 976.129 328.075C973.977 330.268 971.461 332.841 968.051 335.526C946.117 352.548 923.586 366.494 938.273 376.878C950.758 385.761 975.094 384.128 1009.96 382.201C1034.4 380.799 1058.31 377.538 1085.2 377.025C1086.96 376.992 1088.55 377.008 1090.31 376.975C1133.76 375.913 1173.62 367.529 1221.43 363.391C1236.08 362.13 1248.58 362.266 1259.46 363.274C1298.12 366.841 1308.46 366.082 1300.64 382.368C1292.85 398.559 1284.87 399.974 1297.05 413.633C1306.48 424.118 1344.7 417.496 1332.58 431.805C1311.15 457.143 1301.42 468.039 1283.95 481.422" stroke="#3A3A3A" stroke-opacity="1.000000" stroke-width="0.635000"/>
	<path id="Vector" d="M593.805 285.351C593.805 285.351 633.422 274.307 664.551 270.58C683.625 268.252 688.129 269.896 709.621 269.44C735.348 268.95 759.73 267.035 788.809 268.118C792.281 268.239 795.133 268.559 798.141 268.829C851.68 273.889 816.832 290.643 863.895 290.541C908.48 290.44 946.66 285.596 977.227 291.235C983.566 292.377 988.227 293.972 990.285 296.224C999.484 306.339 995.34 318.532 983.438 330.919C981.285 333.112 978.926 335.636 975.379 338.276C953.945 354.961 932.152 368.847 946.855 379.137C959.496 387.97 983.656 386.481 1018.53 384.553C1042.81 383.202 1066.72 379.94 1093.79 379.284C1095.54 379.25 1097.14 379.267 1098.89 379.233C1142.67 377.978 1182.82 369.589 1230.16 365.6C1244.81 364.339 1257.45 364.519 1268.18 365.577C1306.52 369.337 1316.37 368.821 1308.23 385.3C1299.97 401.641 1291.97 403.15 1304.76 416.704C1314.61 427.227 1353.6 420.357 1341.61 434.804C1320.83 459.755 1311.07 470.839 1293.62 484.034" stroke="#3A3A3A" stroke-opacity="1.000000" stroke-width="0.635000"/>
	<path id="Vector" d="M605.641 287.361C605.641 287.361 644.656 276.421 675.973 272.457C695.066 270.035 700.203 271.387 721.715 270.837C747.473 270.159 772.152 268.239 800.762 269.471C804.082 269.641 807.09 269.911 809.941 270.231C863.41 275.667 827.789 292.669 873.906 292.96C917.41 293.207 955.727 288.407 986.031 293.863C992.375 295.005 996.895 296.556 998.816 298.765C1007.88 308.835 1003.91 320.884 992.484 333.029C990.488 335.172 987.992 337.652 984.738 340.286C964.094 356.629 942.613 370.415 957.453 380.749C970.109 389.488 994.238 388.187 1028.97 386.215C1053.12 384.82 1077.01 381.652 1104.25 380.852C1106 380.819 1107.75 380.785 1109.51 380.752C1153.91 379.298 1194.05 370.909 1240.79 367.025C1255.58 365.807 1268.07 366.037 1278.79 367.096C1316.95 371.093 1326.32 370.82 1317.57 387.404C1308.84 403.894 1300.83 405.497 1313.93 418.951C1324.35 429.557 1363.96 422.488 1351.95 437.029C1331.67 461.643 1322.32 472.86 1304.62 485.873" stroke="#3A3A3A" stroke-opacity="1.000000" stroke-width="0.635000"/>
	<path id="Vector" d="M619.293 288.962C619.293 288.962 657.863 278.077 689.215 273.925C708.32 271.409 714.391 272.463 735.781 271.775C761.715 270.953 786.547 268.983 814.691 270.365C818.008 270.535 821 270.899 824.008 271.169C877.27 276.936 840.996 294.325 886.184 294.914C928.602 295.509 967.211 290.704 996.949 296.077C1003.16 297.175 1007.68 298.726 1009.6 300.934C1018.52 310.961 1015.01 322.861 1003.92 334.812C1001.92 336.955 999.578 339.385 996.324 342.019C976.336 357.976 955.301 371.706 970.297 381.991C982.957 390.73 1007.07 389.522 1041.96 387.501C1065.95 386.155 1089.85 382.893 1117.25 382.044C1119 382.011 1120.75 381.977 1122.37 381.9C1167.09 380.252 1207.54 371.858 1253.67 368.079C1268.46 366.861 1280.95 367.091 1291.64 368.337C1329.6 372.572 1338.49 372.543 1329.28 389.276C1320.24 405.865 1312.05 407.611 1325.62 420.917C1336.31 431.611 1376.7 424.293 1364.96 438.922C1345.19 463.2 1335.95 474.554 1318.29 487.379" stroke="#3A3A3A" stroke-opacity="1.000000" stroke-width="0.635000"/>
	<path id="Vector" d="M636.918 290.344C636.918 290.344 674.883 279.565 706.426 275.175C725.551 272.566 732.258 273.327 753.82 272.495C779.922 271.53 804.91 269.51 832.594 271.041C835.91 271.211 838.902 271.575 841.754 271.895C894.945 278.037 857.898 295.675 901.984 296.706C943.027 297.654 982.066 292.888 1011.39 298.129C1017.6 299.227 1021.98 300.733 1023.9 302.942C1032.69 312.924 1029.35 324.681 1018.88 336.433C1017.04 338.526 1014.69 340.956 1011.44 343.59C992.086 359.254 971.516 372.835 986.648 383.164C999.461 391.854 1023.55 390.74 1058.29 388.768C1081.99 387.428 1106.03 384.21 1133.6 383.217C1135.35 383.184 1137.11 383.15 1138.72 383.073C1183.93 381.182 1224.5 372.832 1270.04 369.158C1284.83 367.941 1297.3 368.264 1307.99 369.511C1345.47 373.988 1354.03 374.152 1344.65 391.029C1335.15 407.767 1327.1 409.558 1340.95 422.858C1352.21 433.634 1393.09 426.074 1381.33 440.797C1362.21 464.688 1353.23 476.224 1335.02 488.873" stroke="#3A3A3A" stroke-opacity="1.000000" stroke-width="0.635000"/>
	<path id="Vector" d="M656.562 291.78C656.562 291.78 693.926 281.106 725.66 276.479C744.664 273.731 752.281 274.288 773.723 273.318C799.859 272.165 824.984 270.189 852.359 271.819C855.676 271.99 858.512 272.404 861.504 272.767C914.488 279.241 876.941 297.216 919.805 298.551C959.762 299.847 999.094 295.075 1027.86 300.233C1034.06 301.331 1038.3 302.794 1040.23 305.002C1048.88 314.94 1045.85 326.597 1035.86 338.107C1034.02 340.2 1031.83 342.58 1028.73 345.165C1010.03 360.441 989.75 374.018 1005.2 384.247C1018.16 392.887 1042.08 391.916 1076.82 389.945C1100.52 388.604 1124.4 385.436 1152.14 384.3C1153.89 384.266 1155.65 384.233 1157.42 384.106C1202.96 382.022 1243.82 373.666 1288.74 370.191C1303.52 369.067 1316.14 369.341 1326.81 370.681C1364.1 375.396 1372.18 375.804 1362.2 392.785C1352.23 409.673 1344.03 411.513 1358.33 424.758C1370.16 435.617 1411.64 427.858 1400.03 442.625C1381.54 466.223 1372.7 477.804 1354.37 490.314" stroke="#3A3A3A" stroke-opacity="1.000000" stroke-width="0.635000"/>
	<path id="Vector" d="M677.102 293.106C677.102 293.106 713.863 282.536 745.922 277.716C764.945 274.874 773.352 275.088 794.812 274.024C821.125 272.728 846.402 270.703 873.156 272.532C876.32 272.752 879.449 273.16 882.148 273.529C934.906 280.429 896.738 298.602 938.656 300.329C977.395 301.929 1017 297.246 1045.48 302.316C1051.55 303.369 1055.94 304.876 1057.58 306.996C1066.1 316.89 1063.53 328.398 1053.87 339.714C1052.18 341.757 1049.99 344.138 1046.89 346.722C1028.99 361.656 1009.02 375.133 1024.6 385.407C1037.72 393.997 1061.47 393.17 1096.21 391.198C1119.61 389.864 1143.79 386.69 1171.55 385.46C1173.3 385.426 1175.07 385.299 1176.82 385.266C1222.98 382.983 1263.85 374.627 1308.16 371.257C1322.94 370.133 1335.4 370.457 1346.06 371.891C1383.02 376.799 1390.76 377.494 1380.31 394.624C1369.88 411.661 1361.66 413.595 1376.56 426.735C1388.82 437.633 1430.93 429.674 1419.43 444.58C1401.45 467.841 1392.86 479.604 1374.43 491.882" stroke="#3A3A3A" stroke-opacity="1.000000" stroke-width="0.635000"/>
	<path id="Vector" d="M698.227 294.42C698.227 294.42 734.25 283.912 766.637 278.898C785.828 275.913 794.855 275.928 816.199 274.726C842.68 273.286 868.254 271.255 894.402 273.189C897.703 273.454 900.695 273.818 903.531 274.231C956.086 281.462 917.418 299.972 958.098 302.097C995.598 304.095 1035.5 299.406 1063.57 304.343C1069.64 305.397 1073.88 306.859 1075.53 308.98C1083.9 318.829 1081.51 330.194 1072.46 341.311C1070.78 343.354 1068.75 345.685 1065.8 348.22C1048.39 362.817 1029.16 376.233 1044.76 386.413C1057.88 395.002 1081.61 394.27 1116.21 392.254C1139.48 390.875 1163.64 387.795 1191.57 386.421C1193.34 386.294 1195.1 386.261 1196.85 386.227C1243.49 383.701 1284.49 375.39 1328.21 372.124C1342.98 371.001 1355.58 371.369 1366.09 372.853C1402.86 377.998 1410.11 378.936 1399.2 396.216C1388.46 413.352 1380.22 415.38 1395.28 428.47C1407.95 439.5 1450.7 431.249 1439.18 446.248C1421.7 469.173 1413.39 481.024 1394.83 493.164" stroke="#3A3A3A" stroke-opacity="1.000000" stroke-width="0.635000"/>
	<path id="Vector" d="M719.523 295.591C719.523 295.591 754.945 285.187 787.367 279.986C806.578 276.907 816.242 276.629 837.754 275.284C864.27 273.656 889.98 271.669 915.957 273.747C919.258 274.011 922.098 274.425 924.934 274.838C977.277 282.4 937.977 301.203 977.707 303.72C1013.98 306.022 1054.45 301.416 1081.82 306.226C1087.75 307.236 1092 308.698 1093.64 310.819C1101.73 320.674 1099.8 331.889 1091.23 342.763C1089.7 344.757 1087.67 347.087 1084.72 349.622C1068.11 363.877 1049.04 377.243 1064.92 387.417C1078.06 395.913 1101.76 395.368 1136.52 393.303C1159.62 391.974 1183.79 388.894 1211.89 387.376C1213.66 387.249 1215.41 387.216 1217.18 387.088C1264.15 384.369 1305.45 376.052 1348.56 372.892C1363.47 371.813 1375.78 372.186 1386.56 373.758C1423 379.097 1429.78 380.278 1418.55 397.657C1407.35 414.942 1399.09 417.064 1414.46 430.055C1427.7 441.168 1471.08 432.624 1459.69 447.761C1442.86 470.299 1434.65 482.382 1415.84 494.34" stroke="#3A3A3A" stroke-opacity="1.000000" stroke-width="0.635000"/>
	<path id="Vector" d="M741.105 296.755C741.105 296.755 776.082 286.407 808.535 281.018C827.629 277.801 838.359 277.269 859.598 275.835C886.441 274.014 912.148 272.027 937.664 274.254C940.965 274.518 943.938 274.976 946.48 275.396C998.605 283.383 958.82 302.429 997.469 305.294C1032.66 307.944 1073.27 303.381 1100.38 308.01C1106.3 309.019 1110.41 310.438 1112.06 312.558C1120.01 322.369 1118.54 333.435 1110.31 344.116C1108.77 346.109 1106.89 348.39 1104.11 350.876C1088.14 364.744 1069.52 378.055 1085.41 388.229C1098.7 396.675 1122.23 396.274 1156.98 394.208C1179.95 392.835 1204.25 389.799 1232.37 388.188C1234.14 388.06 1235.9 388.027 1237.67 387.9C1285.11 384.938 1326.55 376.664 1369.2 373.653C1384.11 372.574 1396.55 372.992 1407.18 374.613C1443.43 380.19 1449.73 381.614 1438.04 399.142C1426.37 416.577 1418.1 418.792 1434.07 431.678C1447.73 442.83 1491.73 434.087 1480.46 449.362C1464.13 471.563 1456.2 483.734 1437.27 495.554" stroke="#3A3A3A" stroke-opacity="1.000000" stroke-width="0.635000"/>
	<path id="Vector" d="M763.008 297.821C763.008 297.821 797.379 287.578 830.023 281.951C849.133 278.641 860.5 277.816 881.91 276.239C908.789 274.23 934.637 272.287 959.84 274.613C962.984 274.927 965.961 275.385 968.797 275.799C1020.71 284.117 980.289 303.456 1017.7 306.719C1051.67 309.673 1092.71 305.149 1119.25 309.695C1125.04 310.66 1129.15 312.079 1130.8 314.199C1138.6 323.966 1137.31 334.888 1129.7 345.37C1128.32 347.314 1126.44 349.595 1123.51 352.036C1108.19 365.611 1090.02 378.773 1106.21 388.942C1119.66 397.338 1143.16 397.031 1177.76 395.015C1200.58 393.691 1224.88 390.656 1253.17 388.901C1254.94 388.773 1256.7 388.74 1258.47 388.613C1306.24 385.457 1348.11 377.223 1390.02 374.272C1404.93 373.193 1417.51 373.655 1427.82 375.376C1463.6 381.196 1469.56 382.813 1457.55 400.534C1445.41 418.118 1437.14 420.334 1453.4 433.214C1467.64 444.448 1512.26 435.506 1501.12 450.826C1485.29 472.69 1477.77 484.994 1458.58 496.632" stroke="#3A3A3A" stroke-opacity="1.000000" stroke-width="0.635000"/>
	<path id="Vector" d="M784.633 298.799C784.633 298.799 818.402 288.661 851.371 282.841C870.5 279.436 882.641 278.363 904.086 276.598C931.137 274.445 957.137 272.453 981.723 274.978C984.867 275.292 987.844 275.75 990.523 276.213C1042.23 284.863 1001.33 304.445 1037.64 308.15C1070.37 311.501 1111.7 306.972 1137.83 311.385C1143.62 312.351 1147.59 313.725 1149.1 315.801C1156.77 325.524 1155.95 336.297 1148.52 346.541C1147.14 348.485 1145.28 350.672 1142.49 353.158C1127.82 366.346 1110.1 379.453 1126.29 389.621C1139.73 398.018 1163.22 397.804 1197.82 395.788C1220.5 394.421 1244.65 391.435 1273.25 389.58C1275.02 389.453 1276.93 389.37 1278.7 389.242C1326.95 385.844 1368.96 377.654 1410.27 374.808C1425.16 373.823 1437.61 374.241 1448.2 376.05C1483.78 382.107 1489.26 383.967 1476.8 401.744C1464.2 419.477 1455.91 421.787 1472.62 434.611C1487.42 445.929 1532.52 436.744 1521.38 452.157C1506.04 473.684 1498.64 486.126 1479.48 497.576" stroke="#3A3A3A" stroke-opacity="1.000000" stroke-width="0.635000"/>
	<path id="Vector" d="M805.824 299.737C805.824 299.737 838.992 289.704 872.156 283.647C891.297 280.148 904.23 278.732 925.539 276.923C952.762 274.627 978.766 272.635 1003.04 275.259C1006.32 275.618 1009.14 276.125 1011.82 276.589C1063.31 285.663 1021.92 305.488 1057.15 309.541C1088.66 313.197 1130.42 308.706 1156.12 313.081C1161.77 314.002 1165.74 315.376 1167.25 317.452C1174.79 327.131 1174.13 337.761 1167.32 347.806C1166.1 349.7 1164.24 351.887 1161.6 354.323C1147.59 367.125 1130.16 380.226 1146.79 390.339C1160.4 398.686 1183.71 398.616 1218.33 396.506C1240.86 395.188 1265.16 392.153 1293.77 390.204C1295.54 390.077 1297.45 389.994 1299.23 389.866C1347.8 386.275 1390.1 378.079 1430.8 375.338C1445.7 374.353 1458.29 374.815 1468.72 376.674C1504.11 382.969 1509.11 385.072 1496.19 402.998C1483.28 420.83 1474.82 423.283 1491.99 435.959C1507.23 447.315 1552.95 437.931 1542.07 453.433C1527.23 474.622 1520.25 487.197 1500.68 498.515" stroke="#3A3A3A" stroke-opacity="1.000000" stroke-width="0.635000"/>
	<path id="Vector" d="M826.453 300.594C826.453 300.594 859.172 290.616 892.371 284.371C911.531 280.779 925.102 279.07 946.578 277.117C973.836 274.633 1000.13 272.636 1023.94 275.409C1027.23 275.768 1030.05 276.275 1032.57 276.788C1083.85 286.195 1041.83 306.312 1075.95 310.807C1106.38 314.811 1148.27 310.364 1173.56 314.606C1179.21 315.528 1183.19 316.902 1184.71 318.884C1192.11 328.518 1191.77 339.049 1185.44 348.851C1184.37 350.696 1182.51 352.883 1179.88 355.318C1166.49 367.827 1149.54 380.779 1166.16 390.892C1179.92 399.189 1203.07 399.263 1237.68 397.153C1260.07 395.791 1284.36 392.85 1313.14 390.758C1314.92 390.63 1316.69 390.503 1318.46 390.376C1367.52 386.541 1409.96 378.389 1450.2 375.798C1465.09 374.813 1477.66 375.368 1488.09 377.227C1523.16 383.715 1527.68 386.061 1514.43 404.181C1501.05 422.162 1492.59 424.615 1510.19 437.329C1525.99 448.768 1572.2 439.141 1561.44 454.781C1547.1 475.634 1540.39 488.297 1520.7 499.477" stroke="#3A3A3A" stroke-opacity="1.000000" stroke-width="0.635000"/>
	<path id="Vector" d="M846.809 301.363C846.809 301.363 879.066 291.534 912.312 285.008C931.355 281.277 945.836 279.364 967.195 277.273C994.625 274.646 1021.06 272.692 1044.56 275.565C1047.69 275.973 1050.5 276.481 1053.32 276.988C1104.24 286.776 1061.73 307.137 1094.91 312.023C1124.12 316.331 1166.45 311.923 1191.16 316.083C1196.82 317.004 1200.65 318.334 1202.18 320.316C1209.44 329.906 1209.56 340.287 1203.56 349.897C1202.49 351.741 1200.79 353.878 1198.3 356.264C1185.58 368.387 1169.2 381.327 1185.99 391.391C1199.61 399.644 1222.88 399.855 1257.49 397.746C1279.73 396.433 1304.16 393.442 1332.97 391.256C1334.74 391.129 1336.51 391.001 1338.44 390.824C1387.96 386.84 1430.55 378.639 1470.19 376.153C1485.22 375.212 1497.65 375.723 1508.05 377.77C1542.93 384.495 1546.81 387.134 1533.11 405.309C1519.28 423.44 1510.8 425.987 1528.71 438.601C1544.94 450.078 1591.76 440.253 1581.14 455.937C1567.46 476.403 1560.85 489.298 1541.06 500.245" stroke="#3A3A3A" stroke-opacity="1.000000" stroke-width="0.635000"/>
	<path id="Vector" d="M866.02 302.062C866.02 302.062 897.672 292.338 931.109 285.574C950.324 281.7 965.441 279.494 986.816 277.309C1014.28 274.494 1040.85 272.585 1063.89 275.607C1067.02 276.015 1069.97 276.567 1072.5 277.08C1123.35 287.243 1080.36 307.846 1112.16 313.087C1140.15 317.698 1182.75 313.379 1207.05 317.406C1212.57 318.283 1216.41 319.613 1217.79 321.551C1224.91 331.097 1225.21 341.335 1219.83 350.745C1218.78 352.495 1217.21 354.677 1214.73 357.063C1202.5 368.848 1186.73 381.684 1203.51 391.747C1217.29 399.951 1240.38 400.306 1275 398.196C1297.1 396.84 1321.52 393.942 1350.5 391.613C1352.27 391.485 1354.19 391.308 1355.96 391.181C1405.97 386.954 1448.7 378.797 1487.73 376.416C1502.77 375.474 1515.33 376.03 1525.58 378.127C1560.27 385.089 1563.66 387.971 1549.66 406.246C1535.51 424.476 1527.01 427.117 1545.23 439.632C1562.03 451.192 1609.34 441.123 1598.84 456.945C1585.65 477.074 1579.32 490.057 1559.41 500.867" stroke="#3A3A3A" stroke-opacity="1.000000" stroke-width="0.635000"/>
	<path id="Vector" d="M884.363 302.682C884.363 302.682 915.57 293.014 949.18 286.106C968.41 282.138 984.164 279.639 1005.71 277.311C1033.35 274.352 1060.07 272.393 1082.65 275.564C1085.78 275.973 1088.58 276.574 1091.24 277.131C1141.73 287.675 1098.26 308.522 1128.96 314.204C1155.86 319.164 1198.75 314.839 1222.65 318.733C1228.16 319.61 1231.86 320.896 1233.25 322.834C1240.23 332.336 1240.99 342.425 1235.94 351.642C1234.89 353.392 1233.47 355.524 1231.15 357.86C1219.71 369.303 1204.09 382.089 1221.32 392.097C1235.26 400.251 1258.18 400.749 1292.95 398.59C1314.89 397.283 1339.31 394.386 1368.46 391.913C1370.23 391.785 1372.16 391.608 1373.93 391.481C1424.27 387.061 1467.29 378.898 1505.56 376.672C1520.58 375.824 1533.14 376.38 1543.53 378.521C1577.89 385.677 1580.95 388.846 1566.47 407.269C1551.86 425.648 1543.21 428.339 1562.02 440.843C1579.38 452.486 1627.01 442.224 1616.94 458.084C1604.25 477.877 1598.18 491.042 1578.01 501.669" stroke="#3A3A3A" stroke-opacity="1.000000" stroke-width="0.635000"/>
	<path id="Vector" d="M901.543 303.327C901.543 303.327 932.148 293.763 965.949 286.618C985.195 282.556 1001.72 279.809 1023.15 277.343C1050.82 274.196 1077.69 272.281 1099.95 275.552C1103.21 276.004 1105.88 276.561 1108.39 277.168C1158.66 288.044 1114.56 309.183 1144.32 315.258C1170 320.521 1213.16 316.285 1236.64 320.047C1241.87 320.929 1245.72 322.165 1247.11 324.103C1253.8 333.611 1255.02 343.55 1250.45 352.524C1249.55 354.225 1248.14 356.357 1245.82 358.693C1235.04 369.749 1219.86 382.48 1237.09 392.488C1251.18 400.592 1274.09 401.184 1308.56 399.031C1330.37 397.68 1354.77 394.876 1384.09 392.259C1386.02 392.082 1387.79 391.955 1389.72 391.778C1440.4 387.07 1483.69 378.996 1521.37 376.875C1536.38 376.027 1548.95 376.583 1559.32 378.818C1593.48 386.211 1595.92 389.579 1580.98 408.152C1565.91 426.68 1557.39 429.415 1576.36 441.869C1594.3 453.501 1642.4 443.089 1632.32 459.044C1620.13 478.5 1614.33 491.753 1593.9 502.198" stroke="#3A3A3A" stroke-opacity="1.000000" stroke-width="0.635000"/>
	<path id="Vector" d="M917.301 303.812C917.301 303.812 947.301 294.354 981.293 286.971C1000.55 282.815 1017.88 279.726 1039.32 277.165C1067.17 273.875 1094.03 271.96 1115.98 275.331C1119.09 275.832 1121.76 276.39 1124.42 276.947C1174.34 288.203 1130.04 309.58 1158.56 316.053C1183.16 321.664 1226.61 317.422 1249.66 321.145C1254.89 322.028 1258.6 323.22 1259.99 325.158C1266.55 334.622 1268.09 344.367 1263.99 353.192C1263.09 354.893 1261.83 356.975 1259.51 359.311C1249.23 370.031 1234.66 382.656 1252.18 392.659C1266.27 400.763 1289.15 401.449 1323.63 399.295C1345.14 397.95 1369.84 395.141 1399.03 392.48C1400.95 392.303 1402.72 392.176 1404.51 391.954C1455.52 387.054 1499.09 379.067 1536.32 377.001C1551.33 376.154 1563.88 376.803 1574.09 379.088C1608.07 386.719 1610.03 390.33 1594.78 409.002C1579.24 427.68 1570.57 430.464 1590.27 442.857C1608.79 454.572 1657.36 443.917 1647.55 459.96C1635.87 479.079 1630.48 492.465 1609.79 502.728" stroke="#3A3A3A" stroke-opacity="1.000000" stroke-width="0.635000"/>
	<path id="Vector" d="M931.613 304.232C931.613 304.232 961.168 294.829 995.195 287.258C1014.48 283.009 1032.43 279.626 1053.89 276.972C1081.77 273.494 1108.93 271.574 1130.42 275.093C1133.53 275.595 1136.33 276.197 1138.84 276.804C1188.68 288.435 1143.62 310.061 1171.03 316.975C1194.41 322.891 1238.14 318.737 1260.78 322.328C1265.87 323.166 1269.58 324.358 1270.97 326.296C1277.25 335.672 1279.25 345.362 1275.62 353.944C1274.88 355.595 1273.48 357.633 1271.31 359.919C1261.68 370.252 1247.56 382.822 1265.09 392.825C1279.33 400.879 1302.04 401.709 1336.52 399.555C1357.88 398.26 1382.57 395.45 1411.93 392.646C1413.86 392.469 1415.63 392.342 1417.42 392.12C1468.91 386.977 1512.61 379.034 1549.24 377.074C1564.39 376.27 1576.94 376.92 1587.13 379.298C1620.79 387.122 1622.4 391.021 1606.69 409.842C1590.84 428.619 1582.15 431.497 1602.01 443.841C1621.09 455.638 1670.15 444.741 1660.46 460.921C1649.27 479.703 1644 493.227 1623.35 503.302" stroke="#3A3A3A" stroke-opacity="1.000000" stroke-width="0.635000"/>
	<path id="Vector" d="M944.195 304.593C944.195 304.593 973.148 295.295 1007.36 287.487C1026.68 283.049 1045.39 279.512 1066.89 276.671C1094.8 273.005 1122.09 271.128 1143.25 274.841C1146.37 275.343 1149.02 275.994 1151.52 276.601C1201.01 288.614 1155.75 310.477 1181.79 317.745C1204.08 324.009 1248.11 319.849 1270.18 323.357C1275.27 324.196 1278.98 325.388 1280.09 327.238C1286.23 336.569 1288.54 346.16 1285.4 354.498C1284.66 356.149 1283.41 358.138 1281.24 360.424C1272.25 370.464 1258.44 382.935 1276.41 392.882C1290.67 400.843 1313.35 401.86 1347.98 399.657C1369.2 398.317 1393.9 395.508 1423.41 392.654C1425.34 392.477 1427.26 392.3 1429.05 392.078C1480.87 386.741 1524.87 378.793 1560.89 376.938C1575.89 376.184 1588.59 376.784 1598.77 379.256C1632.23 387.318 1633.36 391.459 1617.05 410.385C1600.73 429.312 1591.89 432.24 1612.49 444.522C1632 456.358 1681.68 445.262 1672.27 461.531C1661.57 479.976 1656.72 493.632 1635.66 503.575" stroke="#3A3A3A" stroke-opacity="1.000000" stroke-width="0.635000"/>
	<path id="Vector" d="M954.887 304.945C954.887 304.945 983.238 295.751 1017.78 287.75C1037.11 283.219 1056.46 279.389 1077.98 276.453C1106.06 272.644 1133.36 270.768 1154.21 274.58C1157.16 275.131 1159.96 275.733 1162.61 276.384C1211.73 288.778 1166 310.884 1191.09 318.544C1212.45 325.106 1256.61 320.991 1278.12 324.416C1283.07 325.211 1286.78 326.403 1287.89 328.252C1293.9 337.539 1296.67 346.981 1293.71 355.082C1293.13 356.684 1291.73 358.721 1289.87 360.908C1281.54 370.562 1268.31 383.022 1286.14 392.925C1300.55 400.835 1323.06 401.997 1357.56 399.749C1378.62 398.459 1403.32 395.65 1433 392.652C1434.93 392.475 1436.72 392.254 1438.64 392.077C1490.94 386.497 1535.08 378.593 1570.5 376.842C1585.63 376.133 1598.18 376.782 1608.36 379.254C1641.64 387.554 1642.14 391.894 1625.5 411.013C1608.73 430.089 1600.02 433.061 1620.77 445.294C1641.01 457.163 1691.01 445.873 1681.58 462.236C1671.39 480.344 1666.66 494.139 1645.63 503.894" stroke="#3A3A3A" stroke-opacity="1.000000" stroke-width="0.635000"/>
	<path id="Vector" d="M963.574 305.148C963.574 305.148 991.477 296.01 1026.05 287.821C1045.41 283.196 1065.55 279.024 1087.08 275.994C1115.2 271.997 1142.63 270.165 1163.17 274.077C1166.27 274.672 1168.91 275.324 1171.42 275.931C1220.34 288.656 1174.25 311.049 1197.95 319.157C1218.09 326.023 1262.53 321.996 1283.78 325.239C1288.73 326.033 1292.3 327.181 1293.42 329.031C1299.13 338.323 1302.23 347.572 1299.89 355.474C1299.3 357.076 1298.06 359.064 1296.2 361.251C1288.36 370.567 1275.59 382.972 1293.87 392.82C1308.28 400.73 1330.63 401.941 1365.27 399.738C1386.19 398.403 1410.87 395.688 1440.73 392.547C1442.65 392.37 1444.44 392.148 1446.37 391.971C1498.99 386.198 1543.42 378.289 1578.38 376.687C1593.51 375.978 1606.2 376.671 1616.21 379.287C1649.29 387.824 1649.32 392.407 1632.37 411.626C1615.28 430.801 1606.42 433.823 1627.46 446.05C1648.13 457.958 1698.6 446.519 1689.6 462.92C1679.9 480.691 1675.45 494.574 1654.3 504.191" stroke="#3A3A3A" stroke-opacity="1.000000" stroke-width="0.635000"/>
	<path id="Vector" d="M970.078 305.348C970.078 305.348 997.52 296.359 1031.99 287.938C1051.36 283.219 1072.28 278.798 1093.84 275.581C1122.14 271.44 1149.43 269.564 1169.8 273.619C1172.89 274.215 1175.54 274.866 1178.03 275.567C1226.59 288.673 1180.31 311.304 1202.77 319.81C1221.83 327.024 1266.56 322.991 1287.24 326.151C1292.05 326.901 1295.63 328.049 1296.74 329.899C1302.32 339.147 1305.88 348.247 1303.87 355.956C1303.44 357.507 1302.2 359.495 1300.49 361.633C1293.31 370.563 1280.98 382.912 1299.25 392.76C1313.82 400.62 1336.16 401.925 1370.64 399.772C1391.41 398.487 1416.24 395.722 1446.12 392.487C1448.04 392.31 1449.83 392.089 1451.77 391.818C1504.88 385.801 1549.29 377.986 1583.8 376.439C1598.94 375.73 1611.47 376.473 1621.61 379.133C1654.37 387.864 1654.05 392.734 1636.5 412.058C1618.95 431.382 1610.07 434.498 1631.72 446.62C1652.95 458.61 1703.76 446.884 1695.02 463.468C1685.69 480.858 1681.78 494.917 1660.38 504.352" stroke="#3A3A3A" stroke-opacity="1.000000" stroke-width="0.635000"/>
	<path id="Vector" d="M974.285 305.405C974.285 305.405 1001.12 296.521 1035.79 287.863C1055.32 283 1076.72 278.336 1098.31 275.025C1126.64 270.697 1154.06 268.865 1174.12 273.019C1177.06 273.665 1179.71 274.316 1182.2 275.017C1230.69 288.499 1183.64 311.378 1205.15 320.276C1223.13 327.838 1268 323.849 1288.4 326.921C1293.21 327.672 1296.65 328.775 1297.63 330.581C1303.06 339.785 1306.93 348.785 1305.41 356.251C1304.98 357.802 1303.75 359.697 1302.19 361.878C1295.5 370.471 1283.77 382.715 1302.34 392.558C1317.07 400.369 1339.23 401.817 1373.86 399.614C1394.5 398.285 1419.31 395.614 1449.36 392.235C1451.15 392.014 1453.23 391.787 1455.02 391.566C1508.45 385.356 1553.29 377.579 1587.07 376.094C1602.18 375.478 1614.87 376.172 1624.86 378.882C1657.43 387.849 1656.62 392.963 1638.61 412.436C1620.59 431.909 1611.71 435.025 1633.65 447.142C1655.47 459.12 1706.75 447.245 1698.14 463.873C1689.31 480.926 1685.52 495.124 1663.99 504.421" stroke="#3A3A3A" stroke-opacity="1.000000" stroke-width="0.635000"/>
	<path id="Vector" d="M975.723 305.47C975.723 305.47 1114.82 258.947 1175.82 272.471C1236.98 285.945 1183.7 311.001 1204.91 320.794C1225.97 330.542 1290.59 322.154 1295.88 331.314C1301.18 340.474 1305.38 349.281 1304.32 356.598C1303.26 363.914 1279.02 379.998 1302.66 392.363C1326.01 404.734 1368.42 401.447 1449.54 391.996C1530.67 382.546 1592.64 369.532 1625.02 378.737C1657.4 387.942 1655.98 393.254 1637.79 412.871C1619.31 432.493 1610.42 435.703 1632.8 447.765C1655.19 459.826 1706.79 447.758 1698.46 464.474C1690.13 481.19 1686.75 495.52 1664.97 504.635" stroke="#3A3A3A" stroke-opacity="1.000000" stroke-width="0.635000"/>
</svg>
